<svg xmlns="http://www.w3.org/2000/svg" viewBox="0 0 163.77 496.19">
<defs>
  <style>
    .cls-1{fill:#fbf191;}
    .cls-2{fill:#00958c;}
  </style>
</defs>
<title>1_Mesa de trabajo 3Rudo</title>
<g id="Texto_Inicio">
  <path class="cls-1" d="M27.37,24.11H16.64v3.54H26.81v5H17q3.44,2.92,7.82,7.31l-3.26,3.76q-2.37-2.74-4.89-5.28V51.65h-5.9V38.78a42,42,0,0,1-7.42,9.11L0,43.56a40.84,40.84,0,0,0,9.16-11h-8v-5h9.62V24.11H1.12V19.34h6C6.48,16.86,5.62,14,4.5,10.62h-3V5.68h9.28V0h5.9V5.68H27.49v4.94h-3a50.9,50.9,0,0,1-2.92,8.72h5.84ZM12.42,19.34H16a55.4,55.4,0,0,0,3.09-8.72H10C10.92,13.51,11.75,16.41,12.42,19.34ZM26.3,51.09l-4.38-3.93A36,36,0,0,0,26.78,38,54.91,54.91,0,0,0,29.23,25.6Q30,17.88,30,4.89,42.39,3.93,50.42,1L51.88,6.3A79.51,79.51,0,0,1,35.69,9.72c-.07,3.6-.15,6.32-.22,8.15H52.78v5.34H47.55V51.15H41.76V23.21H35.13a74.74,74.74,0,0,1-2.87,16.47A37.9,37.9,0,0,1,26.3,51.09Z"/>
  <path class="cls-1" d="M18,54V85.15q0,3.76,1.07,5.36t4.05,1.83a17.5,17.5,0,0,0,7.11-1.69,57,57,0,0,0,7.05-3.71,59.35,59.35,0,0,0,5.28-3.59V90.2A49.79,49.79,0,0,1,37,94.05a33.29,33.29,0,0,1-6.23,2.84,24.48,24.48,0,0,1-7.26,1.3Q17.6,98.07,15,94.62T12.31,85V54Z"/>
  <path class="cls-1" d="M9.81,105.82h6c-.15,2.33-.27,4.72-.34,7.2s-.14,5.07-.2,7.81-.1,5.25-.14,7.53a49.14,49.14,0,0,0,.51,7.7c.33,2.1,1.35,3.24,3,3.43a8.54,8.54,0,0,0,4.19-1.38,23.7,23.7,0,0,0,3.23-2.27V142A16.5,16.5,0,0,1,22.71,144a13.76,13.76,0,0,1-4.64,1.3,6.57,6.57,0,0,1-6.35-3q-2.31-3.37-2.31-11.86,0-3.6,0-8T9.56,114C9.61,111.27,9.7,108.56,9.81,105.82Zm23.44,0H39A99.17,99.17,0,0,1,42.32,123a178.27,178.27,0,0,1,.82,21.24H37.35q.06-4.54-.08-8.85c-.1-2.87-.31-6.19-.65-10s-.83-7.53-1.46-11.24A58,58,0,0,0,33.25,105.82Z"/>
  <path class="cls-1" d="M9.81,155.5h6c-.15,2.32-.27,4.72-.34,7.2s-.14,5.07-.2,7.81-.1,5.24-.14,7.53a49.14,49.14,0,0,0,.51,7.7c.33,2.1,1.35,3.24,3,3.43a8.54,8.54,0,0,0,4.19-1.38,23.7,23.7,0,0,0,3.23-2.27v6.12a17,17,0,0,1-3.34,2.08A13.53,13.53,0,0,1,18.07,195a6.54,6.54,0,0,1-6.35-3q-2.31-3.37-2.31-11.86,0-3.6,0-8t.12-8.46C9.61,161,9.7,158.24,9.81,155.5Zm23.44,0H39a99.05,99.05,0,0,1,3.28,17.14,178.54,178.54,0,0,1,.82,21.25H37.35c0-3,0-6-.08-8.85s-.31-6.19-.65-10-.83-7.53-1.46-11.24A58,58,0,0,0,33.25,155.5Z"/>
  <path class="cls-1" d="M10,231.77V210.18H23.27v-7.3h6v7.3H43v7.65a38.72,38.72,0,0,1-2,12.36,21.65,21.65,0,0,1-5,8.32,28.38,28.38,0,0,1-6.63,4.86,38,38,0,0,1-6.61,2.81,36.3,36.3,0,0,1-5.45,1.27v-5.9a31.62,31.62,0,0,0,6.44-1.86,25.77,25.77,0,0,0,6.43-3.93,16.85,16.85,0,0,0,5-7.06,30.86,30.86,0,0,0,1.79-11V216H15.91v15.74Z"/
  ><path class="cls-1" d="M12.87,267.45v-5.12H40.13v5.12H29.23v22.48H41.14v5.12H12v-5.12H24V267.45Z"/>
  <path class="cls-1" d="M8.94,310.72v-6.18H40.13v-4.67H44V308H40.69v3.48a36.76,36.76,0,0,1-2.5,13.72,33.27,33.27,0,0,1-5.65,9.41,26.29,26.29,0,0,1-6.94,5.73,39.17,39.17,0,0,1-7,3.12,46.49,46.49,0,0,1-6,1.58v-6.13a36.3,36.3,0,0,0,7-2.11,24,24,0,0,0,6.83-4.41,25,25,0,0,0,5.7-7.81c1.58-3.23,2.48-7.83,2.7-13.83ZM46.2,308v-8.1h3.88V308Z"/>
  <path class="cls-1" d="M13.88,379V366.36H8.15v-6.19h5.73v-7.86h5.79v7.86H33.11v-8.09H39v8.09h5.9v6.19H39v9.33a17.33,17.33,0,0,1-8.1,15.12,31.13,31.13,0,0,1-6.88,3.4A50.63,50.63,0,0,1,17.48,396v-6.41a33.66,33.66,0,0,0,4.72-1.1,18.49,18.49,0,0,0,4.86-2.27,15.4,15.4,0,0,0,4.16-4.1,11.14,11.14,0,0,0,1.89-6.41v-9.33H19.67V379Z"/>
  <path class="cls-1" d="M43.81,402.66a54.38,54.38,0,0,1-4.69,7.47,48.53,48.53,0,0,1-6.49,7.54v28.61H26.56V422.89a71.4,71.4,0,0,1-17.2,9.61v-6.35a74.54,74.54,0,0,0,9.41-4.86,53.38,53.38,0,0,0,9.31-7.47,52.28,52.28,0,0,0,8.54-11.16Z"/>
  <path class="cls-1" d="M12.62,495.67v-44.4h6.29v15.29h23.5v6.12H18.91v23Z"/>
</g>
<g id="Texto_Medio">
  <path class="cls-1" d="M117.48,237.19l-2.82,4.94q-13-8.25-20.51-17.87v19.5H88.08V224.09a78.74,78.74,0,0,1-20.52,18l-2.81-4.94a80.94,80.94,0,0,0,19.39-15.85H66v-5.12H78.19q-3-5.83-6.36-11.35l4-1.86H68v-5H88.08v-5.51h6.07V198h20.12v5h-8l4,1.69a72.76,72.76,0,0,1-6.07,11.52h12v5.12H98.08A81.21,81.21,0,0,0,117.48,237.19ZM77.46,203q3.81,6.36,6.29,11.41l-4,1.8h8.38V203Zm25.23,13.21-3.93-1.8a81.92,81.92,0,0,0,6-11.41H94.15v13.21Z"/>
  <path class="cls-1" d="M108.31,250v6a22.1,22.1,0,0,0-9,3.06,31.17,31.17,0,0,0-7.25,5.82,16,16,0,0,0-3.8,6.47c-.78,2.88-.71,5.22.23,7a8.45,8.45,0,0,0,3.68,3.85A13.1,13.1,0,0,0,97,283.58a28.45,28.45,0,0,0,4.66.06c1.27-.12,2.51-.27,3.71-.45v6.24a37.53,37.53,0,0,1-4,.25c-1.41,0-3,0-4.64-.14a21,21,0,0,1-5.23-1.1,13.73,13.73,0,0,1-5.14-2.92,16.52,16.52,0,0,1-3.57-4.92,14.56,14.56,0,0,1-1-7.76,20.8,20.8,0,0,1,2-6.07A22.39,22.39,0,0,1,87,262.05,32.48,32.48,0,0,1,90,259q1.29-1.1,4.27-3.12H74.14V250Z"/>
  <path class="cls-1" d="M74.39,300.57h6q-.22,3.49-.34,7.2c-.07,2.47-.14,5.08-.19,7.81s-.11,5.25-.14,7.53a49.19,49.19,0,0,0,.5,7.7c.34,2.1,1.35,3.25,3,3.43a8.39,8.39,0,0,0,4.18-1.37,23,23,0,0,0,3.24-2.28v6.13a17.37,17.37,0,0,1-3.35,2.07,13.7,13.7,0,0,1-4.64,1.3,6.57,6.57,0,0,1-6.35-3Q74,333.68,74,325.19q0-3.58,0-8t.11-8.46Q74.23,304.68,74.39,300.57Zm23.44,0h5.79a99.16,99.16,0,0,1,3.29,17.15,178.54,178.54,0,0,1,.81,21.24h-5.79q.06-4.54-.08-8.85c-.09-2.87-.31-6.19-.65-10s-.82-7.53-1.46-11.24A56.65,56.65,0,0,0,97.83,300.57Z"/>
  <path class="cls-1" d="M75.52,365.12H89.85v-5.28H74.5v-5.68H89.85v-4.61h5.9v4.61h11.64v5.68H95.75v5.28h10.68v5.4H95.75v6.18a27,27,0,0,1,5.54,2.42,30.45,30.45,0,0,1,4,2.67c1,.8,1.39,1,1.24.75v7.54a43.51,43.51,0,0,0-10.74-7.37v2.14a10.55,10.55,0,0,1-1.6,6,7,7,0,0,1-3.8,2.81,15.6,15.6,0,0,1-4.72.59,14.74,14.74,0,0,1-5.73-1.12,8.35,8.35,0,0,1-4-3.15,9.49,9.49,0,0,1-1.41-4.78,9.8,9.8,0,0,1,1.83-5.9,9.53,9.53,0,0,1,5.23-3.54,19.31,19.31,0,0,1,8.29-.28v-5H75.52Zm10.11,23.49a5.34,5.34,0,0,0,2.84-.73,3.15,3.15,0,0,0,1.38-2.64v-4.1c-3.26-.68-5.65-.59-7.17.25a4.05,4.05,0,0,0-2.39,3.29,3.5,3.5,0,0,0,1.32,2.87A6.33,6.33,0,0,0,85.63,388.61Z"/>
  <path class="cls-1" d="M73.49,411.29v-5.74H95.08V400.1h5.73v5.45h8.09v5.74h-8.09V423a20.05,20.05,0,0,1,1.63,6.24,27.63,27.63,0,0,1-.84,8.4,21.43,21.43,0,0,1-3.15,7.05h-6.8a21.07,21.07,0,0,0,3.57-6,19.19,19.19,0,0,0,1-4,12.28,12.28,0,0,1-4.08,2.87,12.94,12.94,0,0,1-4.3,1.12,9.84,9.84,0,0,1-9.67-5.34,14,14,0,0,1,.37-12.93,10.6,10.6,0,0,1,4.24-4,12.38,12.38,0,0,1,6.41-1.09,16.48,16.48,0,0,1,2.87.53,8.61,8.61,0,0,1,3,1.49v-6Zm22.2,15.51A6.73,6.73,0,0,0,94,422.89a6.49,6.49,0,0,0-4.66-2.39,5.33,5.33,0,0,0-4.84,1.61,6.55,6.55,0,0,0-1.74,4.52c0,2.36.66,4.08,2,5.14a5.73,5.73,0,0,0,5,1,9.32,9.32,0,0,0,4-2,5.65,5.65,0,0,0,1.63-2.42A7.41,7.41,0,0,0,95.69,426.8Z"/>
  <path class="cls-1" d="M87.35,452.06h7.53L94,482H88.25Zm.34,42v-7.48h6.85v7.48Z"/>
</g>
<g id="Texto_ENG">
  <rect class="cls-1" x="139.4" y="249.27" width="24.37" height="246.92"/>
  <path class="cls-2" d="M155.15,260.87c0,.15,0,.42,0,.81s0,.8,0,1.27,0,.93,0,1.41,0,.91,0,1.26,0,.43,0,.59v.33a1.25,1.25,0,0,1-.27.71,1.13,1.13,0,0,1-.3.28.66.66,0,0,1-.35.11A1.37,1.37,0,0,1,153,267c-.05-.07-.15-.22-.3-.48s-.33-.52-.51-.82-.35-.57-.51-.85a5.87,5.87,0,0,1-.32-.58c-.06-.12-.17-.31-.31-.54l-.45-.76-.46-.78-.39-.63a3.55,3.55,0,0,0-.2-.34c0-.05-.07-.13-.14-.26l-.23-.46c-.09-.18-.19-.35-.28-.54s-.18-.35-.25-.51c0,.24,0,.57,0,1s0,.89,0,1.46c0,.34,0,.7,0,1.08s0,.73,0,1.09,0,.69,0,1,0,.58,0,.81,0,.22,0,.31v.21a1.78,1.78,0,0,1-.19.92.74.74,0,0,1-.62.33h0a.64.64,0,0,1-.51-.26,1,1,0,0,1-.15-.21.7.7,0,0,1-.05-.34c0-.07,0-.2,0-.37s0-.38,0-.6,0-.46,0-.7,0-.48,0-.71v-1.54c0-.29,0-.62,0-1s0-.71,0-1.09l0-1.11c0-.47,0-.87,0-1.2v-.64a5.7,5.7,0,0,1,0-.8,1.08,1.08,0,0,1,.18-.47.84.84,0,0,1,.14-.15.74.74,0,0,1,.28-.14H148a.66.66,0,0,1,.58.28,5.25,5.25,0,0,1,.29.46l.46.82c.18.3.35.62.53.94s.33.61.46.87.26.5.42.78l.47.84.46.78c.15.25.28.45.4.62s.22.38.4.66.34.55.52.82l.64,1,.05.08.06.06v-.1c0-.12,0-.34,0-.65s0-.64,0-1,0-.76,0-1.12,0-.62,0-.79,0-.2,0-.35v-3.6c0-.27,0-.46,0-.55,0-.59.28-.88.76-.88a.62.62,0,0,1,.44.23,1.31,1.31,0,0,1,.26.4,1,1,0,0,1,.07.44c0,.08,0,.23,0,.45s0,.46,0,.73,0,.4,0,.61v1.2C155.17,260.59,155.16,260.74,155.15,260.87Z"/>
  <path class="cls-2" d="M150,275.86a.5.5,0,0,0,0,.12.41.41,0,0,1,0,.11.25.25,0,0,0,0,.1v1.62h0a.43.43,0,0,0,.17-.08l.24-.12,1.35-.73a1,1,0,0,1,.49,0,.53.53,0,0,1,.4.36.47.47,0,0,1,0,.46,1.19,1.19,0,0,1-.38.35l-2,1.12a.76.76,0,0,0-.22.14.3.3,0,0,0-.05.15.57.57,0,0,1,0,.14.31.31,0,0,0,0,.09,0,0,0,0,1,0,0s0,.09,0,.2a3.35,3.35,0,0,1,0,.45l0,.35v.16H150a1.83,1.83,0,0,1,.35,0h.09l.26,0h2.95a.94.94,0,0,1,.49.1.62.62,0,0,1,.25.26.71.71,0,0,1,.1.3c0,.11,0,.19,0,.25a.55.55,0,0,1-.19.41.78.78,0,0,1-.46.21h-4.66l-.37,0h0a.28.28,0,0,1-.22-.1.7.7,0,0,1-.15-.46,6.79,6.79,0,0,1,0-.75v-.25a2.09,2.09,0,0,0,0-.25v-.65c0-.25,0-.5,0-.74s0-.42,0-.67,0-.53,0-.84v-.73c0-.27,0-.49,0-.67s0-.3,0-.55v-.85c0-.31,0-.63,0-1s0-.63,0-.91V271.9a.55.55,0,0,1,.24-.45.8.8,0,0,1,.49-.16h4a.45.45,0,0,1,.31.1,1,1,0,0,1,.2.22,1.08,1.08,0,0,1,.11.28,1.12,1.12,0,0,1,0,.24c0,.45-.2.67-.59.67H150s0,.08,0,.18a1.94,1.94,0,0,0,0,.22v.14a.36.36,0,0,1,0,.11,1.79,1.79,0,0,0,0,.47v.51c0,.11,0,.31,0,.6S150,275.61,150,275.86Z"/>
  <path class="cls-2" d="M156.28,286.12a.42.42,0,0,1,.24.1.71.71,0,0,1,.15.16.6.6,0,0,1,.14.2.35.35,0,0,1,0,.22c-.05.24-.1.42-.13.54a2.43,2.43,0,0,0-.09.3,1,1,0,0,0,0,.14.43.43,0,0,1,0,.14c-.07.27-.15.55-.23.83s-.13.48-.19.72-.12.46-.18.67-.09.42-.19.79-.21.76-.32,1.18l-.32,1.22c-.11.39-.19.7-.25.92l0,.08a.84.84,0,0,0-.05.17l-.06.19c-.05.2-.11.41-.17.63s-.11.43-.17.63l-.15.52q-.06.22-.09.3a1.4,1.4,0,0,1-.37.43.94.94,0,0,1-.64.22,1.31,1.31,0,0,1-.66-.13,2.49,2.49,0,0,1-.4-.34v0a3.12,3.12,0,0,1-.44-.57l-.27-.45-.06-.1a.5.5,0,0,1-.09-.18.52.52,0,0,0-.06-.13.56.56,0,0,0,0-.08l-.11.12-.13.16a.41.41,0,0,1-.07.11.61.61,0,0,0-.07.1l-.05.06c-.11.16-.24.32-.38.5a3.87,3.87,0,0,1-.43.47,2.75,2.75,0,0,1-.45.35.72.72,0,0,1-.41.14,1,1,0,0,1-.49-.14.87.87,0,0,1-.39-.47l-.09-.18c0-.06-.05-.11-.07-.17s-.12-.28-.17-.42-.11-.32-.17-.55-.13-.48-.22-.81-.18-.67-.27-1-.17-.65-.25-1-.17-.65-.25-.94l-.21-.75c-.07-.22-.11-.37-.14-.47a3.37,3.37,0,0,1-.17-.6l-.15-.72c0-.22-.08-.43-.12-.61a2.46,2.46,0,0,0-.11-.45,1.76,1.76,0,0,1-.14-.46c0-.16-.05-.31-.07-.43s0-.14,0-.2a.29.29,0,0,0,0-.12.24.24,0,0,1,0-.23,1.84,1.84,0,0,1,.17-.22,1.57,1.57,0,0,1,.21-.17l.15-.09a.32.32,0,0,1,.19,0,.51.51,0,0,1,.33.11.14.14,0,0,0,.08.06l.2.18a.57.57,0,0,1,.16.32l.09.33c0,.12.06.25.1.4s.09.41.15.64.11.44.16.66l.16.62c.05.19.1.35.14.47s.12.37.18.6.14.47.2.72l.18.74c.06.24.11.47.15.67s.12.56.21.89.16.63.23.9a2.06,2.06,0,0,0,.07.29l.06.22a2.86,2.86,0,0,0,.07.28.87.87,0,0,0,.07.19.35.35,0,0,0,.06-.09l.07-.1a.22.22,0,0,0,.05-.08l.06-.08.15-.22.13-.14.06-.07.07-.09.19-.25a3.57,3.57,0,0,1,.33-.38,4,4,0,0,1,.38-.34.61.61,0,0,1,.36-.15.58.58,0,0,1,.43.14,1.5,1.5,0,0,1,.24.31.13.13,0,0,1,0,.06l0,.06.22.29c.1.12.19.25.29.38l.27.36.2.26a.21.21,0,0,0,0,.08.61.61,0,0,0,.11.14.88.88,0,0,0,0-.2c0-.08,0-.17.05-.27s0-.25.08-.4.07-.32.11-.5l.14-.57c.07-.25.14-.52.22-.82s.16-.61.25-.93l.25-.91.21-.74c.07-.22.11-.37.14-.47s.13-.39.19-.61.11-.44.17-.66l.16-.63c.06-.2.1-.38.15-.52s0-.14,0-.2,0-.1,0-.14,0,0,0-.05,0,0,0-.06,0-.17.07-.26a.46.46,0,0,1,.15-.23.85.85,0,0,1,.3-.18A1.62,1.62,0,0,1,156.28,286.12Z"/>
  <path class="cls-2" d="M156.28,309.81a.36.36,0,0,1,.24.1l.15.15a.77.77,0,0,1,.14.21.35.35,0,0,1,0,.22c-.05.24-.1.42-.13.54a3,3,0,0,0-.09.29,1.13,1.13,0,0,0,0,.15.43.43,0,0,1,0,.14c-.07.27-.15.55-.23.83s-.13.48-.19.72-.12.46-.18.67-.09.42-.19.79-.21.76-.32,1.18L155.1,317c-.11.39-.19.7-.25.92l0,.08a.84.84,0,0,0-.05.17l-.06.19c-.05.2-.11.41-.17.63s-.11.43-.17.63l-.15.52q-.06.22-.09.3a1.4,1.4,0,0,1-.37.43,1,1,0,0,1-.64.22,1.2,1.2,0,0,1-.66-.14,2.07,2.07,0,0,1-.4-.34h0a3.12,3.12,0,0,1-.44-.57l-.27-.45-.06-.1a.5.5,0,0,1-.09-.18.52.52,0,0,0-.06-.13.27.27,0,0,0,0-.08l-.11.12-.13.16a.41.41,0,0,1-.07.11.36.36,0,0,0-.07.1l-.05.06c-.11.16-.24.32-.38.49a3.34,3.34,0,0,1-.43.48,2.75,2.75,0,0,1-.45.35.72.72,0,0,1-.41.14,1,1,0,0,1-.49-.15.85.85,0,0,1-.39-.46l-.09-.18c0-.06-.05-.12-.07-.17l-.17-.42c0-.14-.11-.32-.17-.55s-.13-.48-.22-.81-.18-.67-.27-1-.17-.65-.25-1-.17-.65-.25-.94l-.21-.75c-.07-.22-.11-.37-.14-.47a3.63,3.63,0,0,1-.17-.6l-.15-.72c0-.22-.08-.43-.12-.62a2.33,2.33,0,0,0-.11-.44,1.76,1.76,0,0,1-.14-.46c0-.16-.05-.31-.07-.43s0-.14,0-.2a.29.29,0,0,0,0-.12.24.24,0,0,1,0-.23,1.84,1.84,0,0,1,.17-.22,1,1,0,0,1,.21-.17l.15-.09a.31.31,0,0,1,.19-.05.57.57,0,0,1,.33.11s0,.05.08.07l.2.18a.54.54,0,0,1,.16.32c0,.1.06.2.09.32s.06.26.1.41.09.41.15.63.11.45.16.67.11.43.16.62.1.34.14.47.12.37.18.6.14.47.2.72l.18.74c.06.24.11.47.15.67s.12.55.21.89.16.63.23.9a2.06,2.06,0,0,0,.07.29l.06.22c0,.09,0,.18.07.28a1.15,1.15,0,0,0,.07.19.35.35,0,0,0,.06-.09l.07-.1a.22.22,0,0,0,.05-.08l.06-.08.15-.22.13-.14.06-.07.07-.09L150,318a2.8,2.8,0,0,1,.33-.38,4,4,0,0,1,.38-.34.61.61,0,0,1,.36-.15.58.58,0,0,1,.43.14,1.76,1.76,0,0,1,.24.3.23.23,0,0,1,0,.07l0,.06.22.29c.1.12.19.25.29.38l.27.36.2.26,0,.08.11.14a.88.88,0,0,0,0-.2,2.56,2.56,0,0,1,.05-.27c0-.11,0-.25.08-.4s.07-.32.11-.5l.14-.57c.07-.25.14-.52.22-.82s.16-.61.25-.93l.25-.91.21-.75c.07-.21.11-.37.14-.46s.13-.39.19-.61.11-.45.17-.67.11-.43.16-.63.1-.37.15-.52,0-.14,0-.19a1.06,1.06,0,0,1,0-.14l0-.05a.14.14,0,0,1,0-.06c0-.08,0-.17.07-.26a.42.42,0,0,1,.15-.23.85.85,0,0,1,.3-.18A1.62,1.62,0,0,1,156.28,309.81Z"/>
  <path class="cls-2" d="M150,329.25a.5.5,0,0,0,0,.12.45.45,0,0,1,0,.11.28.28,0,0,0,0,.1v1.62h0l.17-.08.24-.13,1.35-.72a1,1,0,0,1,.49,0,.53.53,0,0,1,.4.36.47.47,0,0,1,0,.46,1.18,1.18,0,0,1-.38.34l-2,1.12a1,1,0,0,0-.22.15.3.3,0,0,0-.05.15.57.57,0,0,1,0,.14.25.25,0,0,0,0,.08.06.06,0,0,1,0,0s0,.08,0,.2a3.35,3.35,0,0,1,0,.45l0,.35v.16H150a1.83,1.83,0,0,1,.35,0h3.3a.94.94,0,0,1,.49.1.6.6,0,0,1,.25.25.75.75,0,0,1,.1.31c0,.11,0,.19,0,.25a.55.55,0,0,1-.19.41.78.78,0,0,1-.46.21h-4.66l-.37,0h0a.28.28,0,0,1-.22-.1.7.7,0,0,1-.15-.46,6.79,6.79,0,0,1,0-.75v-.25a2.26,2.26,0,0,0,0-.26v-.64c0-.25,0-.5,0-.74s0-.42,0-.67,0-.53,0-.84v-.73c0-.27,0-.5,0-.68s0-.3,0-.55v-.84c0-.31,0-.63,0-1s0-.64,0-.91v-1.07a.57.57,0,0,1,.24-.46.86.86,0,0,1,.49-.15h4a.5.5,0,0,1,.31.09,1.1,1.1,0,0,1,.2.23,1,1,0,0,1,.11.28,1.11,1.11,0,0,1,0,.23c0,.46-.2.68-.59.68H150s0,.08,0,.17a2.11,2.11,0,0,0,0,.23v.14a.36.36,0,0,1,0,.11,1.79,1.79,0,0,0,0,.47v.5c0,.12,0,.32,0,.6S150,329,150,329.25Z"/>
  <path class="cls-2" d="M154.32,345.66a4.45,4.45,0,0,1,.37.7,2.41,2.41,0,0,1,.18.93,2.92,2.92,0,0,1-1.18,2.46c-.09.06-.21.15-.39.25a5.89,5.89,0,0,1-.61.29,7,7,0,0,1-.77.24,3.78,3.78,0,0,1-.8.12l-.46,0h-1.49a1.06,1.06,0,0,0-.24,0h-.19a1,1,0,0,1-.26,0,.63.63,0,0,1-.27-.16.92.92,0,0,1-.22-.26.72.72,0,0,1-.1-.4c0-.11,0-.26,0-.45s0-.39,0-.6,0-.37,0-.53V345l0-1.56a4.09,4.09,0,0,1,0-.87v-.08c0-.14,0-.34,0-.59s0-.49,0-.73,0-.25,0-.37v-.34a.65.65,0,0,1,.31-.57,1.63,1.63,0,0,1,.87-.25h1.82a2.76,2.76,0,0,1,1.22.24,3.14,3.14,0,0,1,.75.49,3.47,3.47,0,0,1,.6.72,2.15,2.15,0,0,1,.27,1,2.65,2.65,0,0,1-.18,1.21,4.34,4.34,0,0,1-.7,1.21l.34.16a2,2,0,0,1,.3.16,1.68,1.68,0,0,1,.4.32A5.56,5.56,0,0,1,154.32,345.66Zm-4.9-4.53c0,.15,0,.4,0,.74s0,.66,0,1h0v.58a.57.57,0,0,1,0,.12.38.38,0,0,0,0,.1v1.14l.65-.07a2.64,2.64,0,0,0,.67-.17,2.23,2.23,0,0,0,1.06-.83,2.34,2.34,0,0,0,.39-1.33,1.2,1.2,0,0,0-.19-.73,1.24,1.24,0,0,0-.42-.38,1.77,1.77,0,0,0-.45-.14l-.22,0h-1.46Zm2.66,7.77a2.2,2.2,0,0,0,1-.64,2,2,0,0,0,0-2.07,1.54,1.54,0,0,0-.58-.55l-.3-.13-.35-.15a4.34,4.34,0,0,1-.86.36,4.27,4.27,0,0,1-.74.17c-.27,0-.54.08-.81.1,0,.45,0,.84,0,1.18s0,.52,0,.56v.18c0,.2,0,.41,0,.62a3.5,3.5,0,0,0,0,.39.29.29,0,0,0,.1.16.35.35,0,0,0,.23.06h0l.1,0h.83l.31,0,.4-.07.36-.07A1.21,1.21,0,0,0,152.08,348.9Z"/>
  <path class="cls-2" d="M152,367.69v6.68a.47.47,0,0,1-.08.26.7.7,0,0,1-.21.21.83.83,0,0,1-.27.12,1,1,0,0,1-.29,0,.64.64,0,0,1-.47-.23.94.94,0,0,1-.21-.67v-.49c0-.18,0-.4,0-.64s0-.48,0-.72,0-.45,0-.65,0-.35,0-.46v-3.91a1,1,0,0,1,.09-.43,1.19,1.19,0,0,1,.23-.3,1,1,0,0,1,.29-.17.69.69,0,0,1,.26-.06.67.67,0,0,1,.44.21.87.87,0,0,1,.22.64Zm-.71-2.17a.68.68,0,0,1-.59-.3,1.22,1.22,0,0,1-.23-.65.8.8,0,0,1,.24-.58,1,1,0,0,1,.3-.21.68.68,0,0,1,.33-.09.6.6,0,0,1,.41.17.82.82,0,0,1,.14.26,2.68,2.68,0,0,1,.07.27,1,1,0,0,1,0,.24v.15a1.08,1.08,0,0,1-.2.5A.55.55,0,0,1,151.31,365.52Z"/>
  <path class="cls-2" d="M152.79,384.83a3.79,3.79,0,0,1,.69.44,3.89,3.89,0,0,1,.63.65,1.66,1.66,0,0,1,.32.83,2.53,2.53,0,0,1-.05.83,2.89,2.89,0,0,1-.27.73,3.82,3.82,0,0,1-.43.6,2.19,2.19,0,0,1-.51.42,4,4,0,0,1-.66.33,2.24,2.24,0,0,1-.9.19,4.23,4.23,0,0,1-1-.13,3.51,3.51,0,0,1-.85-.28c-.53-.23-.81-.49-.85-.79a.57.57,0,0,1,.19-.58.68.68,0,0,1,.52-.25,1.11,1.11,0,0,1,.59.23,2,2,0,0,0,.56.28,2.19,2.19,0,0,0,.66.09h.2l.24,0,.26,0a1.42,1.42,0,0,0,.34-.15,1.88,1.88,0,0,0,.33-.31,1.07,1.07,0,0,0,.2-.51,1.7,1.7,0,0,0,0-.39.8.8,0,0,0-.14-.38,1.45,1.45,0,0,0-.4-.37,4.15,4.15,0,0,0-.72-.33,5.69,5.69,0,0,1-3.07-2.08,3.65,3.65,0,0,1-.59-1.34,3.33,3.33,0,0,1,.07-1.43,2.32,2.32,0,0,1,.31-.72,3.71,3.71,0,0,1,.69-.83,4.09,4.09,0,0,1,1-.69,3.32,3.32,0,0,1,1.41-.28,3.48,3.48,0,0,1,1.43.24,3.25,3.25,0,0,1,.74.42,1,1,0,0,1,.41.64.88.88,0,0,1-.11.56.61.61,0,0,1-.55.31,1,1,0,0,1-.62-.23,1.22,1.22,0,0,0-.55-.3,2.59,2.59,0,0,0-.88-.13h-.25a2,2,0,0,0-1,.44,1.78,1.78,0,0,0-.63,1.18,1.87,1.87,0,0,0,.13,1,2.35,2.35,0,0,0,.7.85,5.67,5.67,0,0,0,.93.57c.33.16.62.29.89.4l.09,0Z"/>
  <path class="cls-2" d="M154.34,409.92a.72.72,0,0,1,.58.25,1.78,1.78,0,0,1,.14.21.56.56,0,0,1,.07.39.87.87,0,0,1-.39.58,2.93,2.93,0,0,1-1.11.48,6.28,6.28,0,0,1-1.46.17,4,4,0,0,1-3.09-1.39,5.8,5.8,0,0,1-1.17-1.95,7.42,7.42,0,0,1-.36-2.71,4.53,4.53,0,0,1,.32-1.52,8.22,8.22,0,0,1,.63-1.26,5.79,5.79,0,0,1,.67-.92,4.52,4.52,0,0,1,.45-.45,4,4,0,0,1,.59-.38,7.26,7.26,0,0,1,.74-.36,7,7,0,0,1,.77-.26,2.6,2.6,0,0,1,.68-.1l.57,0,.4,0,.3.07.28.08.06,0a.82.82,0,0,1,.52.43.6.6,0,0,1,.05.47.73.73,0,0,1-.29.38.77.77,0,0,1-.45.14.62.62,0,0,1-.25,0l-.34-.09a2.21,2.21,0,0,0-.39,0,3.3,3.3,0,0,0-.8.12,5.15,5.15,0,0,0-.86.37,4.27,4.27,0,0,0-.95.68,4,4,0,0,0-.78,1,3.08,3.08,0,0,0-.37,1.36,6.15,6.15,0,0,0,.07,1.65,5.46,5.46,0,0,0,.34,1.15,3.81,3.81,0,0,0,.46.77c.16.19.3.34.4.45a2.5,2.5,0,0,0,.84.55,3,3,0,0,0,1,.19,3.4,3.4,0,0,0,1.06-.14A3.72,3.72,0,0,0,154,410,.62.62,0,0,1,154.34,409.92Z"/>
  <path class="cls-2" d="M151.32,415.52a3.69,3.69,0,0,1,.78.08,3.55,3.55,0,0,1,.82.26,4.08,4.08,0,0,1,.8.47,3.2,3.2,0,0,1,.7.72,7.58,7.58,0,0,1,1.15,4.71c0,.34,0,.67-.09,1a4.36,4.36,0,0,1-.19.87,6.14,6.14,0,0,1-.37.84,5.48,5.48,0,0,1-.61.86,3.39,3.39,0,0,1-.85.72,8.45,8.45,0,0,1-.83.43,5.24,5.24,0,0,1-.85.28,3.54,3.54,0,0,1-.6.08,2.86,2.86,0,0,1-.79-.12,3.56,3.56,0,0,1-.85-.33,5.9,5.9,0,0,1-.83-.5,4.87,4.87,0,0,1-.72-.62,3.23,3.23,0,0,1-.55-.88,6.36,6.36,0,0,1-.39-1.14,8.64,8.64,0,0,1-.23-1.27,10.58,10.58,0,0,1-.07-1.22,4.45,4.45,0,0,1,.11-.94,7.58,7.58,0,0,1,.28-1c.12-.31.25-.6.39-.88a5.42,5.42,0,0,1,.43-.73,3.41,3.41,0,0,1,.76-.8,4.88,4.88,0,0,1,.87-.52,5.42,5.42,0,0,1,.89-.29,4.19,4.19,0,0,1,.82-.09Zm0,9.77a2,2,0,0,0,.68-.13,2.62,2.62,0,0,0,.64-.34,3.09,3.09,0,0,0,.54-.48,4.13,4.13,0,0,0,.41-.55,5,5,0,0,0,.34-.71,4,4,0,0,0,.15-.65,4.65,4.65,0,0,0,0-.65c0-.23,0-.48-.05-.75a.71.71,0,0,1,0-.14.69.69,0,0,0,0-.13c0-.2,0-.36,0-.5s0-.26,0-.38,0-.23-.07-.34-.06-.24-.1-.4a3.61,3.61,0,0,0-.55-1.13,2.21,2.21,0,0,0-.55-.55,2.47,2.47,0,0,0-.59-.29,2.67,2.67,0,0,0-.51-.12l-.34,0h-.09a2.9,2.9,0,0,0-1,.26,2.65,2.65,0,0,0-.9.68,3.7,3.7,0,0,0-.67,1.12,5.09,5.09,0,0,0-.3,1.56,6.64,6.64,0,0,0,.22,2.23,3.79,3.79,0,0,0,.86,1.59A2.65,2.65,0,0,0,151.35,425.29Z"/>
  <path class="cls-2" d="M156.11,433.68V435c0,.48,0,1,0,1.55s0,1.06,0,1.55,0,.92,0,1.29,0,.63,0,.76a1.78,1.78,0,0,1-.31,1.31.66.66,0,0,1-.48.21.69.69,0,0,1-.53-.21,1.34,1.34,0,0,1-.24-.94c0-.12,0-.3,0-.56s0-.55,0-.86v-2.87c0-.25,0-.43,0-.55s0-.21,0-.35,0-.31,0-.48,0-.34,0-.53,0-.39,0-.57,0-.35,0-.5,0-.27,0-.36c-.1.09-.24.23-.43.44s-.4.47-.63.78l-.43.52c-.19.22-.38.43-.6.64a5.93,5.93,0,0,1-.64.54.93.93,0,0,1-.53.23,1,1,0,0,1-.62-.23,3.82,3.82,0,0,1-.45-.43l-.07-.05-.06-.06-.28-.26-.43-.4-.47-.46c-.16-.15-.29-.29-.4-.41l-.15-.15c-.12-.12-.24-.24-.35-.37s-.2-.22-.27-.28a1.91,1.91,0,0,0,0,.43c0,.19,0,.35,0,.5,0,.32,0,.71,0,1.15v.9c0,.24,0,.57,0,1s0,.88,0,1.34,0,.91,0,1.33,0,.74,0,1a1.06,1.06,0,0,1-.22.86.83.83,0,0,1-.64.25.47.47,0,0,1-.41-.2,1.35,1.35,0,0,1-.22-.5,4.14,4.14,0,0,1-.08-.64v-1.72c0-.42,0-.91,0-1.47s0-1.12,0-1.68V433.9c0-.46,0-.82,0-1.06v-.65c0-.17,0-.34,0-.51a1.73,1.73,0,0,1,0-.41,1.8,1.8,0,0,1,.15-.67.52.52,0,0,1,.45-.26h.05a1.16,1.16,0,0,1,.27,0,.9.9,0,0,1,.37.18,4.46,4.46,0,0,1,.71.63l.7.77.24.27.23.25c.15.15.3.32.47.52l.51.57c.15.18.31.37.48.55l.33.36a3.06,3.06,0,0,0,.32-.32l.47-.55.5-.6.38-.48.34-.41.48-.56c.17-.19.34-.39.52-.57a6.15,6.15,0,0,1,.49-.45,1,1,0,0,1,.68-.2.4.4,0,0,1,.24.09.84.84,0,0,1,.18.23,1,1,0,0,1,.13.28l.08.26a4.91,4.91,0,0,1,.09.77v1.71Z"/>
  <path class="cls-2" d="M152,449.19v6.68a.5.5,0,0,1-.08.26.67.67,0,0,1-.21.2.84.84,0,0,1-.27.13,1.55,1.55,0,0,1-.29,0,.64.64,0,0,1-.47-.23,1,1,0,0,1-.21-.67v-.49c0-.19,0-.4,0-.65s0-.48,0-.71,0-.46,0-.66,0-.35,0-.45v-3.91a.94.94,0,0,1,.09-.43,1.19,1.19,0,0,1,.23-.3,1,1,0,0,1,.29-.18.91.91,0,0,1,.26-.05.7.7,0,0,1,.44.2.89.89,0,0,1,.22.65Zm-.71-2.18a.68.68,0,0,1-.59-.3,1.19,1.19,0,0,1-.23-.64.82.82,0,0,1,.24-.59,1.14,1.14,0,0,1,.3-.21.67.67,0,0,1,.33-.08.56.56,0,0,1,.41.17.77.77,0,0,1,.14.25c0,.1.05.19.07.28a.92.92,0,0,1,0,.23v.15a1.11,1.11,0,0,1-.2.51A.56.56,0,0,1,151.31,447Z"/>
  <path class="cls-2" d="M155.15,464.56c0,.15,0,.42,0,.81s0,.8,0,1.27,0,.93,0,1.41,0,.91,0,1.26,0,.43,0,.59v.33a1,1,0,0,1-.07.35,1.07,1.07,0,0,1-.2.36,1.32,1.32,0,0,1-.3.28.66.66,0,0,1-.35.11,1.37,1.37,0,0,1-1.23-.61c-.05-.07-.15-.22-.3-.48s-.33-.52-.51-.82-.35-.57-.51-.85a5.87,5.87,0,0,1-.32-.58c-.06-.13-.17-.31-.31-.54l-.45-.76-.46-.78-.39-.63-.2-.35-.14-.26-.23-.45c-.09-.18-.19-.35-.28-.54s-.18-.35-.25-.51c0,.24,0,.56,0,1s0,.89,0,1.46c0,.34,0,.7,0,1.08s0,.73,0,1.09,0,.69,0,1,0,.58,0,.81,0,.22,0,.31v.21a1.78,1.78,0,0,1-.19.92.74.74,0,0,1-.62.33h0a.64.64,0,0,1-.51-.26,1,1,0,0,1-.15-.21.7.7,0,0,1-.05-.34c0-.07,0-.2,0-.38s0-.37,0-.59,0-.46,0-.7,0-.49,0-.71v-1.54c0-.29,0-.62,0-1s0-.72,0-1.09l0-1.11c0-.47,0-.87,0-1.2v-.64a5.7,5.7,0,0,1,0-.8,1.18,1.18,0,0,1,.18-.48l.14-.14a.74.74,0,0,1,.28-.14H148a.66.66,0,0,1,.58.28,5.25,5.25,0,0,1,.29.46c.13.24.29.51.46.81s.35.62.53,1,.33.61.46.87.26.5.42.78l.47.84.46.78c.15.25.28.45.4.62s.22.38.4.65.34.56.52.83l.64,1,.05.07a.2.2,0,0,0,.06.07V469c0-.12,0-.34,0-.65s0-.64,0-1,0-.76,0-1.12,0-.62,0-.79,0-.2,0-.35v-3.6c0-.27,0-.46,0-.55,0-.59.28-.88.76-.88a.62.62,0,0,1,.44.23,1.31,1.31,0,0,1,.26.4,1,1,0,0,1,.07.44c0,.08,0,.23,0,.45s0,.46,0,.73,0,.4,0,.61v1.2C155.17,464.28,155.16,464.43,155.15,464.56Z"/>
  <path class="cls-2" d="M155.22,482a.79.79,0,0,1,.29.2.7.7,0,0,1,.14.27,1,1,0,0,1,0,.29,3.55,3.55,0,0,1-.06.64,5,5,0,0,1-.19.63,3.22,3.22,0,0,1-.27.56,2.06,2.06,0,0,1-.35.45,3,3,0,0,1-.41.36,2.7,2.7,0,0,1-.61.34,4.2,4.2,0,0,1-.86.25,5.64,5.64,0,0,1-1.16.11,4.4,4.4,0,0,1-1.39-.21,4.5,4.5,0,0,1-1.15-.53,4.67,4.67,0,0,1-.89-.74,4.75,4.75,0,0,1-.62-.79,6.89,6.89,0,0,1-.7-1.71,8,8,0,0,1-.24-1.95,4.59,4.59,0,0,1,.12-1,6.4,6.4,0,0,1,.33-1.05,6,6,0,0,1,.49-1,4.37,4.37,0,0,1,2.17-1.84,4.61,4.61,0,0,1,1.85-.38h.13a5.12,5.12,0,0,1,1.81.37,2.84,2.84,0,0,1,1.24.87,3.25,3.25,0,0,1,.29.43l.15.3a.41.41,0,0,1,0,.27,1.31,1.31,0,0,1-.06.27.73.73,0,0,1-.13.23.52.52,0,0,1-.16.14.79.79,0,0,1-.37.1.73.73,0,0,1-.33-.08.91.91,0,0,1-.29-.19l-.05-.08-.06-.06a.4.4,0,0,0-.1-.12l-.13-.14-.08-.07-.22-.23a2.22,2.22,0,0,0-.32-.24,2,2,0,0,0-.46-.2,2.2,2.2,0,0,0-.61-.08h-.16l-.16,0a4.1,4.1,0,0,0-.87.16,2.76,2.76,0,0,0-.65.27,2.35,2.35,0,0,0-.52.37,4.06,4.06,0,0,0-.43.48,5.49,5.49,0,0,0-.65,1,3.14,3.14,0,0,0-.29,1.46,5.07,5.07,0,0,0,.07.86,6.42,6.42,0,0,0,.19.87,8.32,8.32,0,0,0,.3.8,3.5,3.5,0,0,0,.4.66,2.13,2.13,0,0,0,.45.45,3.26,3.26,0,0,0,.63.37,3.35,3.35,0,0,0,.69.25,2.37,2.37,0,0,0,.67.1h.13a8.17,8.17,0,0,0,1.13-.12,1.79,1.79,0,0,0,.85-.42.83.83,0,0,0,.24-.28.7.7,0,0,0,.06-.17c0-.05,0-.08,0-.1v0h-.25l-.15,0h-.68a.47.47,0,0,1-.17,0,1.84,1.84,0,0,1-.31,0,1.19,1.19,0,0,1-.36-.09.87.87,0,0,1-.31-.18.74.74,0,0,1-.19-.35.72.72,0,0,1,.13-.63.73.73,0,0,1,.6-.24h2.27A1.36,1.36,0,0,1,155.22,482Z"/
  >
</g>
</svg>