<svg id="Behance" x="0px" y="0px" viewBox="0 0 45 243.4" class="behance kanji">
<title>Behance</title>
<path class="borde" d="M45,243.4H0v-206h45V243.4z M1.5,241.9h41.9V39H1.5V241.9z"/>
<path class="icono" d="M18.2,18.6c0-1.8-1.2-1.8-1.2-1.8h-4.9v3.8h4.6C17.5,20.7,18.2,20.4,18.2,18.6z"/>
<g class='texto'>
	<path class="st0" d="M30.9,20.7c-1.5,0-2.8,1.1-3,2.6h5.6c0-1.4-1-2.6-2.4-2.6C31,20.7,31,20.7,30.9,20.7z"/>
	<path class="st0" d="M17,23.3h-4.9v4.5h4.7c0.7,0,2-0.2,2-2.2C18.8,23.2,17,23.3,17,23.3z"/>
	<path class="st0" d="M0,0v45h45V0H0z M27.7,13.8h7v2.1h-7V13.8z M22.4,25.8c0,5.2-5.4,5-5.4,5H8.2v-17H17c2.7,0,4.8,1.5,4.8,4.5
		c0.2,1.6-1,3-2.6,3.2C22.6,21.6,22.4,25.8,22.4,25.8L22.4,25.8z M36.7,25.6H28c-0.1,1.5,1,2.8,2.5,2.9c0.2,0,0.3,0,0.5,0
		c1.6,0,2.3-0.7,2.5-1.2h3.1c-0.5,3.8-5.8,3.9-5.8,3.9c-3.3,0.3-6.2-2.2-6.5-5.5c0-0.3,0-0.7,0-1c0,0,0-6.5,6.5-6.5
		C37.7,18.2,36.7,25.5,36.7,25.6L36.7,25.6z"/>
	<path class="st0" d="M13.9,61.5h3.5v4.3h13.8v3.5H17.4v9.2c0,0.9,0.4,1.8,1,2.5c0.9,0.7,2.1,1.1,3.2,1c1.9,0,3.6,0,5.2-0.1
		s3-0.3,4.4-0.5v3.6c-1.5,0.2-3,0.3-4.6,0.4s-3.4,0.1-5.3,0.1c-1.9,0-3.7-0.6-5.3-1.6c-1.4-1.2-2.2-3-2.1-4.8L13.9,61.5z M25.5,63.8
		v-4.6h2.2v4.6L25.5,63.8z M29,63.8v-4.6h2.2v4.6L29,63.8z"/>
	<path class="st0" d="M15,109v-3.5h14.2v3.5H15z"/>
	<path class="st0" d="M12,153c0.4-1.1,0.9-2.5,1.5-4.1c0.6-1.9,1.1-3.9,1.4-5.9c0.4-2.5,0.6-5,0.6-7.5v-6H19v6
		c0,2.6-0.1,5.2-0.5,7.8c-0.2,1.9-0.6,3.8-1.2,5.6c-0.5,1.5-0.9,2.9-1.4,4.1L12,153z M32.4,153h-3.7c-0.7-1.3-1.2-2.7-1.6-4.1
		c-0.5-1.8-0.9-3.7-1.1-5.6c-0.4-2.6-0.5-5.2-0.5-7.8v-6h3.5v6c0,4.5,0.7,9.1,2,13.4C31.4,150.6,31.9,151.9,32.4,153z"/>
	<path class="st0" d="M12.3,167.7v-3.5h8.5v3.5H12.3z M32,169.6c-0.8,3-2.1,5.9-3.9,8.4c-1.5,2.1-3.3,4-5.5,5.5
		c-1.6,1.2-3.4,2.1-5.3,2.7c-1.6,0.5-3.3,0.9-4.9,1.1v-3.6c1.4-0.1,2.8-0.4,4.1-0.8c1.6-0.5,3.1-1.3,4.4-2.4
		c1.6-1.2,3.1-2.7,4.3-4.4c1.4-2,2.5-4.2,3.3-6.6H32z"/>
	<path class="st0" d="M13.6,201.4V198h16.8c-0.4,2-1,4-1.9,5.9c-0.9,2.1-2,4.1-3.2,6c1,1.4,2,2.7,3.1,4c1,1.2,2.2,2.2,3.4,3.3v4.4
		c-0.3-0.2-1-0.7-1.9-1.5c-1.1-0.9-2.1-1.8-3-2.8c-1.3-1.4-2.6-2.9-3.7-4.5c-1.4,1.7-2.9,3.3-4.5,4.8c-1.2,1-2.4,2-3.7,2.8
		c-0.9,0.6-1.8,1.1-2.7,1.5V218c1.7-1,3.3-2.2,4.8-3.6c1.7-1.6,3.3-3.4,4.6-5.3c1.7-2.3,3-4.9,4-7.6L13.6,201.4z"/>
</g>
</svg>
