<svg xmlns="http://www.w3.org/2000/svg" viewBox="0 0 20.37 162.62"><defs><style>.cls-1{fill:#fffc92;}</style></defs><title>BehanceRudo</title><g id="Texto_Expand"><path class="cls-1" d="M1.93,2.32H5.38V6.57H19.17v3.52H5.38v9.15a3.74,3.74,0,0,0,1,2.46,4.69,4.69,0,0,0,3.23,1.05c1.93,0,3.65,0,5.15-.13s3-.28,4.38-.51v3.57c-1.46.15-3,.28-4.57.38s-3.35.12-5.29.08a9.3,9.3,0,0,1-5.25-1.65,6.07,6.07,0,0,1-2.13-4.83ZM13.47,4.64V0h2.22V4.64Zm3.48,0V0h2.22V4.64Z"/><path class="cls-1" d="M3,49.79V46.28H17.18v3.51Z"/><path class="cls-1" d="M0,93.85q.68-1.65,1.47-4.11a48.19,48.19,0,0,0,1.4-5.87,44.22,44.22,0,0,0,.64-7.52v-6H7v6a57.51,57.51,0,0,1-.47,7.78,36.77,36.77,0,0,1-1.16,5.62c-.46,1.51-.93,2.87-1.4,4.1Zm20.37,0H16.69a20.34,20.34,0,0,1-1.62-4.11,49.94,49.94,0,0,1-1.15-5.61,52.57,52.57,0,0,1-.51-7.78v-6h3.44v6a45.22,45.22,0,0,0,.65,7.52,46.4,46.4,0,0,0,1.4,5.87Q19.7,92.2,20.37,93.85Z"/><path class="cls-1" d="M.34,108.54v-3.48H8.85v3.48ZM20,110.48a24.91,24.91,0,0,1-3.9,8.39,22.7,22.7,0,0,1-5.48,5.54,21.52,21.52,0,0,1-5.35,2.73A25.19,25.19,0,0,1,.34,128.2v-3.64a18.44,18.44,0,0,0,4.09-.77,14.79,14.79,0,0,0,4.45-2.37,21.32,21.32,0,0,0,4.28-4.35,22.77,22.77,0,0,0,3.26-6.59Z"/><path class="cls-1" d="M1.58,142.28v-3.44H18.4a26,26,0,0,1-1.85,5.86,43.52,43.52,0,0,1-3.18,6,45.71,45.71,0,0,0,3.13,4,37.31,37.31,0,0,0,3.35,3.25v4.38c-.32-.23-1-.73-1.88-1.49A36.83,36.83,0,0,1,15,158a41.48,41.48,0,0,1-3.67-4.49,39.83,39.83,0,0,1-4.48,4.81,27,27,0,0,1-3.71,2.82,24.73,24.73,0,0,1-2.7,1.52v-3.87a27.08,27.08,0,0,0,4.78-3.58,36.8,36.8,0,0,0,4.64-5.28,29.58,29.58,0,0,0,3.95-7.61Z"/></g></svg>