<svg id="Contacto" x="0px" y="0px" viewBox="0 0 58 247.1" >
<title>Contacto</title>
<g class='sobre'>
<path class="st1" d="M9.1,48.9h38.4V17.5H9.1V48.9z M12.8,45.3V23.8L27,38.7c0.3,0.4,0.8,0.6,1.3,0.5l0,0c0.5,0,1-0.2,1.3-0.5
	l14.3-14.9v21.5H12.8z M15.2,21.1h26.3L28.3,34.8L15.2,21.1z"/>
<path class="st1" d="M28.8,10.5c1,0,1.8-0.8,1.8-1.8l0,0V1.8c0-1-0.8-1.8-1.8-1.8c-1,0-1.8,0.8-1.8,1.8v6.8
	C27,9.6,27.8,10.5,28.8,10.5L28.8,10.5z"/>
<path class="st1" d="M51.6,14.1c0.4,0,0.9-0.2,1.2-0.5l4-3.6c0.7-0.7,0.8-1.8,0.1-2.6c-0.7-0.7-1.8-0.8-2.6-0.1l-4,3.6
	c-0.7,0.7-0.8,1.8-0.1,2.6C50.6,13.9,51.1,14.1,51.6,14.1L51.6,14.1z"/>
<path class="st1" d="M4.2,13.6c0.7,0.7,1.9,0.7,2.6,0c0.7-0.7,0.7-1.9,0-2.6L3.1,7.4c-0.7-0.7-1.9-0.7-2.6,0
	c-0.7,0.7-0.7,1.8,0,2.5c0,0,0,0,0,0L4.2,13.6z"/>
<path class="st1" d="M28.7,56.5c-1,0-1.8,0.8-1.8,1.8v6.8c0.1,1,0.9,1.7,1.9,1.7c0.9-0.1,1.6-0.8,1.7-1.7v-6.8
	C30.5,57.4,29.7,56.6,28.7,56.5z"/>
<path class="st1" d="M4.6,53.4l-4,3.6c-0.7,0.7-0.8,1.8-0.1,2.5c0,0,0,0,0,0c0.3,0.4,0.8,0.6,1.3,0.6c0.4,0,0.9-0.2,1.2-0.5L7,56
	c0.8-0.6,0.9-1.8,0.3-2.5c-0.6-0.8-1.8-0.9-2.5-0.3C4.7,53.3,4.6,53.3,4.6,53.4L4.6,53.4z"/>
<path class="st1" d="M56.9,57.1l-3.6-3.6c-0.7-0.7-1.9-0.7-2.6,0c-0.7,0.7-0.7,1.9,0,2.6l3.6,3.6c0.7,0.7,1.9,0.7,2.6,0
	c0,0,0,0,0,0C57.6,58.9,57.6,57.8,56.9,57.1C56.9,57.1,56.9,57.1,56.9,57.1z"/>
</g>
<path class="st1" d="M17.3,90.6v-3.5h18.2v22H17.3v-3.4H32V90.6H17.3z"/>
<path class="st1" d="M17.2,124.3v-3.5h8.5v3.5H17.2z M36.8,126.3c-0.8,3-2.1,5.9-3.9,8.4c-1.5,2.1-3.3,4-5.5,5.5
	c-1.6,1.2-3.4,2.1-5.4,2.7c-1.6,0.5-3.3,0.9-4.9,1.1v-3.6c1.4-0.1,2.8-0.4,4.1-0.8c1.6-0.5,3.1-1.3,4.4-2.4
	c1.6-1.2,3.1-2.7,4.3-4.4c1.4-2,2.5-4.2,3.3-6.6L36.8,126.3z"/>
<path class="st1" d="M25.9,153.3c-0.2,0.9-0.4,1.8-0.7,2.5h11.3v4.1c-0.2,2.5-0.8,5-1.8,7.4c-0.8,1.9-2,3.7-3.5,5.2
	c-1.3,1.3-2.7,2.5-4.3,3.4c-1.3,0.8-2.7,1.5-4.1,2.1c-1.1,0.4-2.2,0.8-3.4,1.1v-3.6c1.2-0.3,2.3-0.7,3.5-1.2
	c1.4-0.6,2.7-1.4,3.9-2.4c1.6-1.2,3-2.8,4.1-4.5h-8v-3.3h9.3c0.5-1.7,0.8-3.4,0.8-5.2h-9c-1.1,2.1-2.4,4-4,5.8
	c-0.9,1-1.9,1.9-3,2.7v-4.4c0.8-0.8,1.5-1.7,2.1-2.6c0.7-1,1.4-2.1,1.9-3.2c0.6-1.3,1.1-2.6,1.4-4L25.9,153.3z"/>
<path class="st1" d="M21,192.2l1.7,9.8h-2.6l-1.6-9.8L21,192.2z M20.6,212.5v-3c2-0.3,3.8-1.2,5.4-2.6c1.5-1.3,2.7-2.8,3.5-4.6
	c0.8-1.6,1.4-3.3,1.8-5c0.4-1.6,0.7-3.3,0.9-5h2.9c-0.1,1.5-0.3,2.9-0.6,4.3c-0.3,1.6-0.8,3.2-1.4,4.8c-0.7,1.8-1.6,3.4-2.7,4.9
	c-1.2,1.6-2.7,2.9-4.3,4C24.4,211.4,22.5,212.2,20.6,212.5L20.6,212.5z M26.4,192.2l1.8,9.8h-2.7l-1.6-9.8L26.4,192.2z"/>
<path class="st1" d="M26.2,221.3c-0.2,1.1-0.5,2.2-0.8,3.4h10.8v4.1c-0.2,2.5-0.8,4.9-1.8,7.1c-0.8,1.9-2,3.6-3.4,5.1
	c-1.2,1.2-2.6,2.3-4,3.2c-1.3,0.7-2.6,1.4-4,1.9c-1.1,0.4-2.1,0.8-3.3,1.1v-3.6c1.3-0.4,2.6-0.9,3.9-1.5c1.4-0.7,2.7-1.6,3.9-2.7
	c1.4-1.2,2.6-2.7,3.5-4.3c1.1-2.2,1.6-4.6,1.7-7H24c-1.1,1.8-2.3,3.5-3.8,5c-0.9,0.9-1.8,1.7-2.9,2.4V231c0.8-0.7,1.5-1.6,2.2-2.5
	c0.7-1,1.4-2.2,1.9-3.3c0.6-1.2,1-2.6,1.2-3.9L26.2,221.3z"/>
<path class="st1" d="M56.9,154.9c0.2,0,0.4,0.1,0.6,0.3l0.1,0.2c0.1,0.1,0.1,0.3,0.1,0.4c0,0.2-0.2,0.4-0.4,0.6
	c-0.3,0.2-0.7,0.4-1.1,0.5c-0.5,0.1-1,0.2-1.5,0.2c-1.2,0-2.3-0.5-3.1-1.4c-0.5-0.6-0.9-1.2-1.2-1.9c-0.3-0.9-0.4-1.8-0.4-2.7
	c0-0.5,0.1-1,0.3-1.5c0.2-0.4,0.4-0.9,0.6-1.3c0.2-0.3,0.4-0.6,0.7-0.9c0.1-0.2,0.3-0.3,0.5-0.4c0.2-0.1,0.4-0.3,0.6-0.4
	c0.2-0.1,0.5-0.2,0.7-0.4c0.3-0.1,0.5-0.2,0.8-0.3c0.2-0.1,0.4-0.1,0.7-0.1h0.6h0.4c0.1,0,0.2,0,0.3,0.1l0.3,0.1h0.1
	c0.2,0.1,0.4,0.2,0.5,0.4c0.1,0.2,0.1,0.3,0,0.5c-0.1,0.2-0.2,0.3-0.3,0.4c-0.1,0.1-0.3,0.1-0.5,0.1c-0.1,0-0.2,0-0.3,0
	c-0.1,0-0.2-0.1-0.3-0.1c-0.1,0-0.3,0-0.4,0c-0.3,0-0.5,0-0.8,0.1c-1.1,0.3-2,1.1-2.5,2c-0.2,0.4-0.4,0.9-0.4,1.4
	c0,0.6,0,1.1,0.1,1.6c0.1,0.4,0.2,0.8,0.3,1.2c0.1,0.3,0.3,0.5,0.5,0.8c0.1,0.2,0.3,0.3,0.4,0.4c0.2,0.2,0.5,0.4,0.8,0.6
	c0.3,0.1,0.7,0.2,1,0.2c0.4,0,0.7,0,1.1-0.1c0.2-0.1,0.5-0.2,0.7-0.3C56.6,154.9,56.7,154.8,56.9,154.9z"/>
<path class="st1" d="M53.8,160.4c0.3,0,0.5,0,0.8,0.1c0.3,0.1,0.6,0.1,0.8,0.3c0.3,0.1,0.5,0.3,0.8,0.5c0.3,0.2,0.5,0.4,0.7,0.7
	c0.9,1.4,1.3,3.1,1.1,4.7c0,0.4,0,0.7-0.1,1c0,0.3-0.1,0.6-0.2,0.9c-0.1,0.3-0.2,0.6-0.4,0.9c-0.2,0.3-0.4,0.6-0.6,0.9
	c-0.2,0.3-0.5,0.5-0.8,0.7c-0.3,0.2-0.5,0.3-0.8,0.4c-0.3,0.1-0.6,0.2-0.8,0.3c-0.2,0.1-0.4,0.1-0.6,0.1c-0.3,0-0.5,0-0.8-0.1
	c-0.3-0.1-0.6-0.2-0.8-0.3c-0.3-0.1-0.6-0.3-0.8-0.5c-0.3-0.2-0.5-0.4-0.7-0.6c-0.2-0.3-0.4-0.6-0.6-0.9c-0.2-0.4-0.3-0.8-0.4-1.1
	c-0.1-0.4-0.2-0.8-0.2-1.3c0-0.4-0.1-0.8-0.1-1.2c0-0.3,0-0.6,0.1-0.9c0.1-0.3,0.2-0.6,0.3-0.9c0.1-0.3,0.2-0.6,0.4-0.9
	c0.1-0.3,0.3-0.5,0.4-0.7c0.2-0.3,0.5-0.6,0.8-0.8c0.3-0.2,0.6-0.4,0.9-0.5c0.3-0.1,0.6-0.2,0.9-0.3
	C53.2,160.5,53.5,160.5,53.8,160.4L53.8,160.4z M53.8,170.2c0.2,0,0.5,0,0.7-0.1c0.2-0.1,0.4-0.2,0.6-0.3c0.2-0.1,0.4-0.3,0.5-0.5
	c0.2-0.2,0.3-0.4,0.4-0.6c0.1-0.2,0.2-0.5,0.3-0.7c0.1-0.2,0.1-0.4,0.2-0.6c0-0.2,0-0.4,0-0.7c0-0.2,0-0.5,0-0.7c0,0,0-0.1,0-0.1
	c0,0,0-0.1,0-0.1c0-0.2,0-0.4,0-0.5s0-0.3,0-0.4l-0.1-0.3c0-0.1-0.1-0.3-0.1-0.4c-0.1-0.4-0.3-0.8-0.5-1.1
	c-0.1-0.2-0.3-0.4-0.5-0.5c-0.2-0.1-0.4-0.2-0.6-0.3c-0.2-0.1-0.3-0.1-0.5-0.1h-0.3h-0.1c-0.3,0-0.7,0.1-1,0.3
	c-0.3,0.2-0.6,0.4-0.9,0.7c-0.3,0.3-0.5,0.7-0.7,1.1c-0.2,0.5-0.3,1-0.3,1.6c0,0.7,0,1.5,0.2,2.2c0.2,0.6,0.5,1.1,0.9,1.6
	C52.5,169.9,53.1,170.2,53.8,170.2L53.8,170.2z"/>
<path class="st1" d="M57.6,179.8c0,0.2,0,0.4,0,0.8s0,0.8,0,1.3s0,0.9,0,1.4s0,0.9,0,1.3s0,0.4,0,0.6v0.3c0,0.1,0,0.2-0.1,0.4
	c0,0.1-0.1,0.3-0.2,0.4c-0.1,0.1-0.2,0.2-0.3,0.3c-0.1,0.1-0.2,0.1-0.3,0.1c-0.5,0-1-0.2-1.2-0.6c-0.1-0.2-0.2-0.3-0.3-0.5
	l-0.5-0.8l-0.5-0.9c-0.2-0.3-0.3-0.5-0.3-0.6l-0.3-0.6l-0.5-0.8l-0.5-0.8c-0.2-0.3-0.3-0.5-0.4-0.6l-0.2-0.4l-0.1-0.3
	c-0.1-0.1-0.1-0.3-0.2-0.5l-0.3-0.5c-0.1-0.2-0.2-0.4-0.3-0.5c0,0.3,0,0.6,0,1s0,0.9,0,1.5c0,0.4,0,0.7,0,1.1s0,0.7,0,1.1
	s0,0.7,0,1s0,0.6,0,0.8s0,0.2,0,0.3v0.2c0,0.3,0,0.6-0.2,0.9c-0.1,0.2-0.4,0.3-0.6,0.3l0,0c-0.2,0-0.4-0.1-0.5-0.3
	c-0.1-0.1-0.1-0.1-0.2-0.2c0-0.1,0-0.2,0-0.3c0-0.1,0-0.2,0-0.4v-1.3c0-0.3,0-0.5,0-0.7v-1.5c0-0.3,0-0.6,0-1s0-0.7,0-1.1
	s0-0.7,0-1.1s0-0.9,0-1.2v-0.6c0-0.3,0-0.5,0-0.8c0-0.2,0.1-0.3,0.2-0.5c0-0.1,0.1-0.1,0.1-0.1c0.1-0.1,0.2-0.1,0.3-0.1h0.2
	c0.2,0,0.4,0.1,0.6,0.3c0.1,0.1,0.2,0.2,0.3,0.5l0.5,0.8c0.2,0.3,0.3,0.6,0.5,0.9s0.3,0.6,0.5,0.9s0.3,0.5,0.4,0.8l0.5,0.8
	c0.1,0.3,0.3,0.5,0.5,0.8c0.2,0.3,0.3,0.5,0.4,0.6s0.2,0.4,0.4,0.6l0.5,0.8l0.6,1c0,0,0,0.1,0,0.1l0.1,0.1v-0.1c0-0.1,0-0.4,0-0.7
	s0-0.6,0-1s0-0.8,0-1.1s0-0.6,0-0.8s0-0.2,0-0.4v-3.6c0-0.3,0-0.4,0-0.6c0-0.6,0.3-0.9,0.8-0.9c0.2,0,0.3,0.1,0.4,0.2
	c0.1,0.1,0.2,0.3,0.3,0.4c0.1,0.1,0.1,0.3,0.1,0.4c0,0.1,0,0.2,0,0.4s0,0.5,0,0.7s0,0.4,0,0.6s0,0.4,0,0.6s0,0.4,0,0.6
	S57.6,179.7,57.6,179.8z"/>
<path class="st1" d="M52.1,190.7h0.1c0.1,0,0.1,0,0.2,0c0.1,0,0.1,0,0.2,0.1c0.1,0,0.1,0.1,0.1,0.2c0,0.1,0,0.3,0,0.4
	c-0.1,0.3-0.2,0.5-0.5,0.7c-0.1,0.1-0.3,0.1-0.4,0.1h-0.3c-0.2,0-0.5,0-0.8,0c-0.2,0-0.3-0.1-0.4-0.3c-0.1-0.1-0.2-0.3-0.2-0.5
	c0-0.2,0.1-0.4,0.2-0.5c0.1-0.1,0.3-0.2,0.5-0.2H51h0.8C51.9,190.7,52,190.7,52.1,190.7z M56.6,190.7c0.5,0,0.8,0.2,0.8,0.5
	c0,0.2,0,0.3-0.1,0.4c-0.1,0.1-0.2,0.2-0.3,0.3c-0.1,0.1-0.3,0.1-0.4,0.2c-0.1,0-0.2,0-0.4,0h-1.5c-0.1,0-0.1,0-0.2,0
	c0,0-0.1,0.1-0.1,0.3s0,0.5,0,0.9s0,0.8,0,1.2v5.8c0,0.2,0,0.3-0.1,0.5c-0.1,0.1-0.1,0.2-0.2,0.3c-0.1,0.1-0.2,0.2-0.3,0.2
	c-0.1,0-0.3,0.1-0.4,0.1c-0.1,0-0.2,0-0.2-0.1c-0.1-0.1-0.1-0.2-0.1-0.2c0-0.1-0.1-0.2-0.1-0.3c0-0.1,0-0.2,0-0.3
	c0-0.1,0-0.2,0-0.4s0-0.4,0-0.6V199c0-0.2,0-0.4,0-0.6s0-0.4,0-0.5s0-0.4,0-0.5s0-0.4,0-0.6c0-0.2,0-0.3,0-0.5c0-0.2,0-0.5,0-0.7
	c0-0.3,0-0.6,0-1c0-0.1,0-0.3,0-0.4v-0.6c0-0.1,0-0.2,0-0.3c0-0.2,0-0.3,0-0.6s0-0.4,0-0.6s0-0.4,0-0.6c0-0.2,0-0.4,0-0.5
	c0-0.1,0-0.3,0.1-0.4c0.1-0.1,0.2-0.2,0.4-0.3c0.1-0.1,0.3-0.1,0.4-0.1c0.2,0,0.3,0,0.5,0c0.1,0,0.2,0.1,0.3,0.1c0,0.1,0,0.2,0,0.3
	l0,0h0.2h0.3h0.2h0.8h0.4h0.3L56.6,190.7z"/>
<path class="st1" d="M57.9,215.3v0.1v0.1c0.1,0.2,0,0.3-0.1,0.5c-0.1,0.2-0.3,0.3-0.5,0.3c-0.2,0-0.4-0.1-0.5-0.2
	c-0.1-0.1-0.3-0.3-0.4-0.4c-0.1-0.2-0.2-0.3-0.3-0.5c-0.1-0.1-0.1-0.3-0.1-0.4c0-0.1-0.1-0.3-0.1-0.4c-0.1-0.2-0.1-0.5-0.2-0.8h-1
	c0,0-0.1,0-0.1,0h-0.3h-0.5h-1h-0.3h-1c0,0,0,0.1,0,0.1c-0.1,0.3-0.2,0.5-0.3,0.7s-0.1,0.4-0.2,0.6c0,0.2-0.1,0.3-0.2,0.4
	c-0.1,0.1-0.2,0.3-0.3,0.4c-0.1,0.1-0.2,0.2-0.3,0.3c-0.1,0.1-0.2,0.1-0.3,0.1c-0.2,0-0.3-0.1-0.4-0.2c-0.1-0.2-0.2-0.4-0.2-0.6
	c0-0.2,0-0.3,0.1-0.5c0-0.2,0.1-0.3,0.2-0.4c0-0.1,0.1-0.3,0.2-0.5s0.2-0.6,0.3-0.9s0.3-0.7,0.4-1.1s0.3-0.8,0.4-1.2s0.2-0.7,0.3-1
	l0.3-0.9c0.1-0.3,0.2-0.5,0.2-0.7s0.1-0.3,0.1-0.4s0.1-0.2,0.2-0.4s0.1-0.3,0.2-0.5l0.3-0.6c0.1-0.2,0.2-0.4,0.3-0.6
	c0.2-0.4,0.6-0.7,1-0.6c0.2,0,0.4,0,0.6,0.1c0.2,0.1,0.4,0.3,0.5,0.6l0.3,0.9c0.1,0.3,0.2,0.6,0.3,0.8s0.2,0.6,0.3,0.8
	s0.2,0.5,0.3,0.8s0.2,0.6,0.3,0.9s0.2,0.6,0.2,0.8s0.1,0.5,0.2,0.7l0.1,0.4l0.1,0.2c0.1,0.2,0.1,0.4,0.2,0.6l0.2,0.7l0.2,0.7
	c0.1,0.2,0.1,0.4,0.2,0.5c0.1,0.1,0.1,0.3,0.2,0.4C57.8,215,57.9,215.1,57.9,215.3z M52.6,210.3c0,0.1-0.1,0.1-0.1,0.2
	c0,0.1-0.1,0.1-0.1,0.2l-0.3,0.8c-0.1,0.2-0.2,0.4-0.2,0.6h3.3c-0.1-0.3-0.2-0.6-0.3-0.9s-0.2-0.6-0.3-0.9L52.6,210.3z M54.4,209.3
	c0-0.1-0.1-0.2-0.1-0.3s0-0.1-0.1-0.2s-0.1-0.4-0.2-0.6s-0.1-0.4-0.1-0.7s-0.1-0.3-0.1-0.4c0-0.1-0.1-0.2-0.1-0.4
	c0,0.1-0.1,0.2-0.1,0.3c0,0.1-0.1,0.2-0.1,0.4c0,0.1-0.1,0.3-0.1,0.4c0,0.1-0.1,0.3-0.1,0.4c-0.1,0.3-0.1,0.5-0.2,0.7
	c0,0.1-0.1,0.1-0.1,0.2c0,0.1-0.1,0.2-0.1,0.3L54.4,209.3L54.4,209.3z"/>
<path class="st1" d="M56.9,229.1c0.2,0,0.4,0.1,0.6,0.3l0.1,0.2c0.1,0.1,0.1,0.3,0.1,0.4c0,0.2-0.2,0.4-0.4,0.6
	c-0.3,0.2-0.7,0.4-1.1,0.5c-0.5,0.1-1,0.2-1.5,0.2c-1.2,0-2.3-0.5-3.1-1.4c-0.5-0.6-0.9-1.2-1.2-1.9c-0.3-0.9-0.4-1.8-0.4-2.7
	c0-0.5,0.1-1,0.3-1.5c0.2-0.4,0.4-0.9,0.6-1.3c0.2-0.3,0.4-0.6,0.7-0.9c0.1-0.2,0.3-0.3,0.5-0.4c0.2-0.1,0.4-0.3,0.6-0.4
	c0.2-0.1,0.5-0.3,0.7-0.4c0.3-0.1,0.5-0.2,0.8-0.3c0.2-0.1,0.5-0.1,0.7-0.1h0.6h0.4c0.1,0,0.2,0,0.3,0.1l0.3,0.1h0.1
	c0.2,0.1,0.4,0.2,0.5,0.4c0.1,0.2,0.1,0.3,0,0.5c-0.1,0.2-0.2,0.3-0.3,0.4c-0.1,0.1-0.3,0.1-0.5,0.1c-0.1,0-0.2,0-0.3-0.1l-0.3-0.1
	c-0.1,0-0.3,0-0.4,0c-0.3,0-0.5,0-0.8,0.1c-0.3,0.1-0.6,0.2-0.9,0.4c-0.3,0.2-0.7,0.4-1,0.7c-0.3,0.3-0.6,0.6-0.8,1
	c-0.2,0.4-0.4,0.9-0.4,1.4c0,0.6,0,1.1,0.1,1.6c0.1,0.4,0.2,0.8,0.4,1.2c0.1,0.3,0.3,0.5,0.5,0.8c0.2,0.2,0.3,0.3,0.4,0.4
	c0.2,0.2,0.5,0.4,0.8,0.6c0.3,0.1,0.7,0.2,1,0.2c0.4,0,0.7,0,1.1-0.1c0.2-0.1,0.5-0.2,0.7-0.3C56.6,229.1,56.7,229.1,56.9,229.1z"
	/>
<path class="st1" d="M52.1,235.3h0.1c0.1,0,0.1,0,0.2,0l0.2,0.1c0.1,0,0.1,0.1,0.1,0.2c0,0.1,0,0.3,0,0.4c-0.1,0.3-0.2,0.5-0.5,0.7
	c-0.1,0.1-0.3,0.1-0.4,0.1h-0.3c-0.2,0-0.5,0-0.8-0.1c-0.2,0-0.3-0.1-0.4-0.3c-0.1-0.1-0.2-0.3-0.2-0.5c0-0.2,0.1-0.4,0.2-0.5
	c0.1-0.1,0.3-0.2,0.5-0.2H51h0.8C51.9,235.2,52,235.3,52.1,235.3z M56.6,235.3c0.5,0,0.8,0.2,0.8,0.5c0,0.2,0,0.3-0.1,0.4
	c-0.1,0.1-0.2,0.2-0.3,0.3c-0.1,0.1-0.3,0.1-0.4,0.2c-0.1,0-0.2,0.1-0.4,0.1h-1.5c-0.1,0-0.1,0-0.2,0c0,0-0.1,0.1-0.1,0.3
	s0,0.5,0,0.9s0,0.8,0,1.3v5.8c0,0.2,0,0.3-0.1,0.5c-0.1,0.1-0.1,0.2-0.2,0.3c-0.1,0.1-0.2,0.2-0.3,0.2c-0.1,0-0.3,0.1-0.4,0.1
	c-0.1,0-0.2,0-0.3-0.1c-0.1-0.1-0.1-0.2-0.1-0.2c0-0.1-0.1-0.2-0.1-0.3c0-0.1,0-0.2,0-0.3c0-0.1,0-0.2,0-0.4s0-0.4,0-0.6v-0.6
	c0-0.2,0-0.4,0-0.6s0-0.4,0-0.5s0-0.4,0-0.5s0-0.4,0-0.6c0-0.2,0-0.3,0-0.5c0-0.2,0-0.5,0-0.7c0-0.3,0-0.6,0-1c0-0.1,0-0.3,0-0.4
	v-0.6c0-0.1,0-0.2,0-0.3c0-0.2,0-0.3,0-0.6s0-0.4,0-0.6s0-0.4,0-0.6c0-0.2,0-0.4,0-0.5c0-0.1,0-0.3,0.1-0.4
	c0.1-0.1,0.2-0.2,0.4-0.3c0.1-0.1,0.3-0.1,0.4-0.1c0.2,0,0.3,0,0.5,0c0.1,0,0.2,0.1,0.3,0.1c0,0,0,0.1,0,0.1c0,0,0,0.1,0,0.1l0,0
	h0.2h0.3h0.2h0.8h0.4L56.6,235.3L56.6,235.3z"/>
</svg>
