<svg xmlns="http://www.w3.org/2000/svg" viewBox="0 0 58.05 247.12"><defs><style>.cls-1{fill:#fffc92;}</style></defs><title>ContactoRudo</title><g id="Texto_Expand"><path class="cls-1" d="M9.14,48.89H47.56V17.46H9.14Zm3.61-3.62V23.77L27,38.66a1.87,1.87,0,0,0,1.31.56h0a1.83,1.83,0,0,0,1.3-.56l14.31-14.9V45.27Zm2.43-24.19H41.51L28.33,34.8Z"/><path class="cls-1" d="M28.77,10.46a1.81,1.81,0,0,0,1.81-1.81V1.81a1.81,1.81,0,1,0-3.62,0V8.65A1.81,1.81,0,0,0,28.77,10.46Z"/><path class="cls-1" d="M51.64,14.1a1.81,1.81,0,0,0,1.21-.47l4-3.64a1.81,1.81,0,1,0-2.44-2.68l-4,3.65a1.81,1.81,0,0,0,1.22,3.14Z"/><path class="cls-1" d="M4.17,13.57A1.81,1.81,0,0,0,6.73,11L3.09,7.37a1.82,1.82,0,0,0-2.56,0,1.8,1.8,0,0,0,0,2.56Z"/><path class="cls-1" d="M28.67,56.55a1.81,1.81,0,0,0-1.81,1.8V65.2a1.81,1.81,0,0,0,3.61,0V58.35A1.81,1.81,0,0,0,28.67,56.55Z"/><path class="cls-1" d="M4.59,53.38.59,57a1.8,1.8,0,0,0-.12,2.55,1.82,1.82,0,0,0,1.34.59A1.8,1.8,0,0,0,3,59.69l4-3.64a1.81,1.81,0,1,0-2.43-2.67Z"/><path class="cls-1" d="M56.91,57.08l-3.65-3.64A1.8,1.8,0,0,0,50.71,56l3.64,3.64a1.81,1.81,0,0,0,2.56,0A1.81,1.81,0,0,0,56.91,57.08Z"/><path class="cls-1" d="M17.27,90.62V87.17H35.48v22H17.27v-3.45H32V90.62Z"/><path class="cls-1" d="M17.19,124.33v-3.48H25.7v3.48Zm19.66,1.93a25,25,0,0,1-3.9,8.4,22.88,22.88,0,0,1-5.48,5.54,21.52,21.52,0,0,1-5.35,2.73A25.19,25.19,0,0,1,17.19,144v-3.64a18.48,18.48,0,0,0,4.09-.78,15,15,0,0,0,4.45-2.36A21.12,21.12,0,0,0,30,132.85a22.52,22.52,0,0,0,3.26-6.59Z"/><path class="cls-1" d="M25.9,153.27c-.21.95-.44,1.78-.67,2.51H36.54v4.13a23,23,0,0,1-1.79,7.38,17.26,17.26,0,0,1-3.51,5.22,24.09,24.09,0,0,1-4.3,3.45,25.57,25.57,0,0,1-4.1,2.08,28.55,28.55,0,0,1-3.38,1.08v-3.55a23.88,23.88,0,0,0,3.46-1.22A21.45,21.45,0,0,0,26.86,172a17.57,17.57,0,0,0,4.07-4.48h-8v-3.25h9.31A17.07,17.07,0,0,0,33,159.1H24a24.87,24.87,0,0,1-4,5.77,32,32,0,0,1-3,2.68V163.1a25.87,25.87,0,0,0,2.13-2.58A19,19,0,0,0,21,157.3a23.46,23.46,0,0,0,1.4-4Z"/><path class="cls-1" d="M21,192.2,22.73,202H20.09l-1.65-9.77Zm-.42,20.27v-3a11.1,11.1,0,0,0,5.37-2.56,13.71,13.71,0,0,0,3.54-4.59,28,28,0,0,0,1.82-5,37.22,37.22,0,0,0,.91-5h2.86a35.36,35.36,0,0,1-.59,4.33,31.71,31.71,0,0,1-1.39,4.77,19.28,19.28,0,0,1-2.74,4.93,17.42,17.42,0,0,1-4.33,4A13.75,13.75,0,0,1,20.57,212.47Zm5.77-20.27L28.11,202H25.44l-1.65-9.77Z"/><path class="cls-1" d="M26.21,221.27c-.24,1.08-.5,2.19-.8,3.35H36.23v4.13a21.09,21.09,0,0,1-1.77,7.1A16.77,16.77,0,0,1,31,240.91,19.85,19.85,0,0,1,27,244.1,29.6,29.6,0,0,1,23,246a27.9,27.9,0,0,1-3.25,1.08v-3.61a28.15,28.15,0,0,0,3.9-1.53,18.46,18.46,0,0,0,3.94-2.71,15.86,15.86,0,0,0,3.45-4.3,16.58,16.58,0,0,0,1.69-7H24a27.68,27.68,0,0,1-3.76,5,19.72,19.72,0,0,1-2.88,2.43V231a16.12,16.12,0,0,0,2.18-2.48,18.32,18.32,0,0,0,1.9-3.32,17.71,17.71,0,0,0,1.21-3.9Z"/><path class="cls-1" d="M56.87,154.85a.73.73,0,0,1,.58.25l.14.21a.62.62,0,0,1,.07.39.87.87,0,0,1-.4.58,2.88,2.88,0,0,1-1.1.48,6.28,6.28,0,0,1-1.46.17,3.94,3.94,0,0,1-3.09-1.39,5.64,5.64,0,0,1-1.17-1.95,7.39,7.39,0,0,1-.36-2.71,4.67,4.67,0,0,1,.31-1.51A7.53,7.53,0,0,1,51,148.1a6.35,6.35,0,0,1,.66-.91,4.44,4.44,0,0,1,.45-.45,4.31,4.31,0,0,1,.59-.39,7.12,7.12,0,0,1,.74-.35,4.76,4.76,0,0,1,.78-.26,2.59,2.59,0,0,1,.68-.11l.57,0,.4,0,.3.06.28.09h.06a.87.87,0,0,1,.52.43.61.61,0,0,1,0,.47.74.74,0,0,1-.29.38.73.73,0,0,1-.45.14.71.71,0,0,1-.26,0c-.11,0-.23-.06-.34-.09a1.43,1.43,0,0,0-.38,0,3.05,3.05,0,0,0-.81.13,4.38,4.38,0,0,0-.85.37,4.57,4.57,0,0,0-.95.67,4.18,4.18,0,0,0-.78,1,3.27,3.27,0,0,0-.38,1.36,7.11,7.11,0,0,0,.07,1.65,5.53,5.53,0,0,0,.35,1.16,3,3,0,0,0,.46.76,4.09,4.09,0,0,0,.4.45,2.36,2.36,0,0,0,.84.55,2.73,2.73,0,0,0,1,.19,3.42,3.42,0,0,0,1.07-.14,3.08,3.08,0,0,0,.68-.32A.65.65,0,0,1,56.87,154.85Z"/><path class="cls-1" d="M53.79,160.45a4.49,4.49,0,0,1,.78.08,3.79,3.79,0,0,1,.83.26,4.33,4.33,0,0,1,.79.47,3.69,3.69,0,0,1,.7.72A7.55,7.55,0,0,1,58,166.69c0,.35,0,.67-.08,1a5,5,0,0,1-.2.87,4.87,4.87,0,0,1-.37.85,5.29,5.29,0,0,1-.61.86,3.19,3.19,0,0,1-.85.71,6.07,6.07,0,0,1-.83.43,5.24,5.24,0,0,1-.85.28,2.8,2.8,0,0,1-.6.09,2.92,2.92,0,0,1-.79-.12,5,5,0,0,1-.85-.33,5.62,5.62,0,0,1-.83-.51,4.78,4.78,0,0,1-.71-.62,3.11,3.11,0,0,1-.56-.87,7.26,7.26,0,0,1-.39-1.14,10.53,10.53,0,0,1-.23-1.27,10.83,10.83,0,0,1-.07-1.22,4.54,4.54,0,0,1,.11-.95,7.94,7.94,0,0,1,.28-.95c.12-.31.25-.6.39-.88a6.93,6.93,0,0,1,.43-.74,3.58,3.58,0,0,1,.76-.79,3.93,3.93,0,0,1,.87-.52,4.61,4.61,0,0,1,.89-.29,3.59,3.59,0,0,1,.82-.1Zm0,9.77a1.87,1.87,0,0,0,.69-.13,2.42,2.42,0,0,0,.63-.34,3.09,3.09,0,0,0,.54-.48,3.57,3.57,0,0,0,.41-.55,4.11,4.11,0,0,0,.34-.71,2.57,2.57,0,0,0,.15-.64,4.8,4.8,0,0,0,0-.66c0-.22,0-.47,0-.74a.89.89,0,0,1,0-.15.25.25,0,0,0,0-.12c0-.2,0-.37,0-.51s0-.26,0-.37l-.06-.34-.11-.4a3.46,3.46,0,0,0-.55-1.14,2.16,2.16,0,0,0-.55-.54,2.42,2.42,0,0,0-.58-.29,1.86,1.86,0,0,0-.51-.12l-.34,0h-.1a3.21,3.21,0,0,0-1,.26,2.89,2.89,0,0,0-.9.68,3.49,3.49,0,0,0-.66,1.12,4.86,4.86,0,0,0-.31,1.57,6.81,6.81,0,0,0,.22,2.22,3.69,3.69,0,0,0,.87,1.59A2.57,2.57,0,0,0,53.82,170.22Z"/><path class="cls-1" d="M57.63,179.79c0,.16,0,.43,0,.81v1.27c0,.46,0,.94,0,1.42s0,.9,0,1.26,0,.42,0,.58v.33a1,1,0,0,1-.08.36,1.07,1.07,0,0,1-.2.36,1.58,1.58,0,0,1-.3.28.66.66,0,0,1-.35.11,1.38,1.38,0,0,1-1.23-.62,5.3,5.3,0,0,1-.3-.47l-.51-.82-.51-.85c-.16-.27-.27-.47-.32-.58l-.31-.55-.45-.75-.46-.78q-.23-.39-.39-.63l-.2-.35-.14-.26c-.07-.13-.14-.28-.23-.46l-.28-.53-.25-.51q0,.36,0,1c0,.41,0,.89.05,1.46,0,.35,0,.71,0,1.08s0,.74,0,1.09,0,.7,0,1,0,.58,0,.81,0,.22,0,.3v.22a1.81,1.81,0,0,1-.19.92.76.76,0,0,1-.62.32h0a.63.63,0,0,1-.51-.25,1,1,0,0,1-.15-.21.7.7,0,0,1,0-.34c0-.07,0-.2,0-.38v-1.3c0-.25,0-.48,0-.7v-1.54c0-.3,0-.62,0-1s0-.72,0-1.1,0-.74,0-1.1,0-.88,0-1.21v-.63a5.86,5.86,0,0,1,0-.81,1,1,0,0,1,.18-.47.58.58,0,0,1,.14-.14.74.74,0,0,1,.28-.14h.19a.68.68,0,0,1,.58.28c.06.08.15.23.29.47l.46.81c.18.3.35.62.53.95s.33.61.46.86.26.51.42.79l.48.83q.22.42.45.78c.15.25.28.46.4.63s.22.37.4.65l.52.83.64,1a.56.56,0,0,0,0,.08l.06.06v-.09c0-.13,0-.35,0-.66s0-.64,0-1,0-.76,0-1.11,0-.62,0-.79,0-.2,0-.36v-3.6c0-.27,0-.45,0-.55,0-.59.28-.88.76-.88a.63.63,0,0,1,.44.24,1.2,1.2,0,0,1,.26.4,1,1,0,0,1,.07.43c0,.09,0,.24,0,.45s0,.46,0,.73,0,.41,0,.62,0,.41,0,.62,0,.4,0,.57S57.64,179.67,57.63,179.79Z"/><path class="cls-1" d="M52.06,190.72h.11a.78.78,0,0,1,.21,0,.72.72,0,0,1,.2.09.21.21,0,0,1,.08.17,1.73,1.73,0,0,1,0,.38,1.33,1.33,0,0,1-.18.38,1.14,1.14,0,0,1-.28.3.74.74,0,0,1-.4.14h-.27c-.23,0-.5,0-.82,0a.6.6,0,0,1-.43-.26.86.86,0,0,1-.17-.49.65.65,0,0,1,.23-.48.77.77,0,0,1,.47-.23l.17,0h.8A2,2,0,0,1,52.06,190.72Zm4.52,0c.52,0,.78.18.78.53a.77.77,0,0,1-.14.45,1.14,1.14,0,0,1-.32.3,1.59,1.59,0,0,1-.4.18,1.9,1.9,0,0,1-.37,0h-1.5a.37.37,0,0,0-.21,0s-.07.12-.09.28,0,.49,0,.85,0,.77,0,1.24v5.8a1.06,1.06,0,0,1-.1.5.83.83,0,0,1-.24.33.88.88,0,0,1-.34.19,1.58,1.58,0,0,1-.38,0,.3.3,0,0,1-.24-.1.7.7,0,0,1-.13-.24.89.89,0,0,1-.07-.28,2.36,2.36,0,0,1,0-.25c0-.1,0-.24,0-.41s0-.37,0-.57V199c0-.22,0-.43,0-.63s0-.36,0-.54,0-.36,0-.53,0-.38,0-.55a2.26,2.26,0,0,1,0-.46,7,7,0,0,0,0-.74c0-.31,0-.64,0-1,0-.14,0-.29,0-.43v-.62a2.81,2.81,0,0,0,0-.3q0-.24,0-.54c0-.21,0-.42,0-.63s0-.43,0-.63a2.81,2.81,0,0,0-.05-.53.43.43,0,0,1,.11-.38.74.74,0,0,1,.37-.25,1.13,1.13,0,0,1,.4-.08,2.69,2.69,0,0,1,.46,0,.41.41,0,0,1,.25.14.57.57,0,0,1,0,.14.71.71,0,0,1,0,.15v0l.19,0h.36l.18,0h.84l.36,0h.3Z"/><path class="cls-1" d="M57.92,215.29l0,.14,0,.09a.49.49,0,0,1-.08.46.62.62,0,0,1-.55.27.69.69,0,0,1-.48-.2,2,2,0,0,1-.37-.45,2.73,2.73,0,0,1-.25-.52c-.07-.18-.11-.31-.14-.41a1.87,1.87,0,0,1-.12-.38c-.06-.21-.14-.46-.23-.75h-1s-.09,0-.1,0l-.34,0-.55,0h-1l-.26,0h-1a.49.49,0,0,1,0,.12c-.09.25-.17.5-.25.74s-.13.43-.16.55a1.55,1.55,0,0,1-.21.43,2.66,2.66,0,0,1-.34.4,2.33,2.33,0,0,1-.35.3.53.53,0,0,1-.28.12.49.49,0,0,1-.4-.21.78.78,0,0,1-.17-.61,2.81,2.81,0,0,1,.09-.47,2.55,2.55,0,0,1,.15-.44c0-.1.09-.27.18-.52s.19-.55.3-.9.25-.73.38-1.14.28-.82.41-1.24.23-.7.35-1l.31-.91c.08-.27.16-.5.23-.69s.11-.32.14-.39a3.63,3.63,0,0,1,.15-.39c.06-.16.14-.34.22-.53l.25-.59c.09-.2.17-.4.26-.59a1,1,0,0,1,1-.65,1.67,1.67,0,0,1,.62.12.88.88,0,0,1,.48.58l.31.87c.11.3.21.58.31.84s.22.56.28.76.17.49.25.77.17.57.25.85.15.56.23.84.13.51.18.72.07.28.09.38l.07.24c0,.18.12.39.2.63l.24.71c.07.24.15.46.22.67s.14.36.19.46a2.41,2.41,0,0,1,.15.43C57.83,215,57.87,215.14,57.92,215.29Zm-5.3-5c0,.08-.06.15-.08.22a1,1,0,0,0-.07.21l-.28.78c-.09.24-.16.45-.21.62H55.3c-.1-.3-.21-.61-.31-.93s-.19-.6-.27-.88Zm1.77-1c0-.12-.08-.23-.1-.31s0-.15-.08-.21-.1-.36-.15-.58-.1-.44-.14-.66-.07-.3-.1-.45a2.45,2.45,0,0,0-.09-.35,2.54,2.54,0,0,0-.11.26c0,.12-.07.24-.11.38a2.62,2.62,0,0,0-.11.4c0,.15-.07.27-.1.37-.06.27-.12.49-.17.67a1.5,1.5,0,0,0-.07.2c0,.08-.06.19-.09.3h1.42Z"/><path class="cls-1" d="M56.87,229.1a.73.73,0,0,1,.58.25l.14.21a.62.62,0,0,1,.07.39.89.89,0,0,1-.4.58,2.88,2.88,0,0,1-1.1.48,6.28,6.28,0,0,1-1.46.17,3.94,3.94,0,0,1-3.09-1.39,5.64,5.64,0,0,1-1.17-1.95,7.39,7.39,0,0,1-.36-2.71,4.67,4.67,0,0,1,.31-1.51,7.17,7.17,0,0,1,.64-1.27,6.51,6.51,0,0,1,.66-.92,5.2,5.2,0,0,1,.45-.44,4.31,4.31,0,0,1,.59-.39c.24-.13.49-.25.74-.36a7.92,7.92,0,0,1,.78-.26,3,3,0,0,1,.68-.1l.57,0,.4,0a1.33,1.33,0,0,1,.3.06l.28.09h.06a.87.87,0,0,1,.52.43.61.61,0,0,1,0,.47.78.78,0,0,1-.29.38.8.8,0,0,1-.45.14.71.71,0,0,1-.26-.05l-.34-.08a1.43,1.43,0,0,0-.38,0,3.44,3.44,0,0,0-.81.12,6.1,6.1,0,0,0-.85.37,4.62,4.62,0,0,0-.95.68,4.18,4.18,0,0,0-.78,1,3.27,3.27,0,0,0-.38,1.36,7.11,7.11,0,0,0,.07,1.65A5.53,5.53,0,0,0,52,227.7a3,3,0,0,0,.46.76c.16.19.29.34.4.45a2.5,2.5,0,0,0,.84.55,2.73,2.73,0,0,0,1,.19,3.42,3.42,0,0,0,1.07-.14,3.6,3.6,0,0,0,.68-.32A.65.65,0,0,1,56.87,229.1Z"/><path class="cls-1" d="M52.06,235.27h.11a.76.76,0,0,1,.21,0l.2.1a.21.21,0,0,1,.08.17,1.81,1.81,0,0,1,0,.38,1.35,1.35,0,0,1-.46.68.74.74,0,0,1-.4.14h-.27c-.23,0-.5,0-.82-.05a.58.58,0,0,1-.43-.27.83.83,0,0,1-.17-.48.65.65,0,0,1,.23-.48.72.72,0,0,1,.47-.23l.17,0h.8A2,2,0,0,1,52.06,235.27Zm4.52,0c.52,0,.78.18.78.53a.72.72,0,0,1-.14.44,1,1,0,0,1-.32.31,1.27,1.27,0,0,1-.4.17,1.41,1.41,0,0,1-.37.06h-1.5a.37.37,0,0,0-.21,0s-.07.12-.09.27,0,.5,0,.86,0,.77,0,1.24V245a1.06,1.06,0,0,1-.1.5.83.83,0,0,1-.24.33.75.75,0,0,1-.34.18,1.21,1.21,0,0,1-.38.06A.33.33,0,0,1,53,246a.7.7,0,0,1-.13-.24.89.89,0,0,1-.07-.28,2.45,2.45,0,0,1,0-.25c0-.1,0-.24,0-.42s0-.36,0-.56v-.64c0-.22,0-.43,0-.63s0-.36,0-.54,0-.36,0-.53,0-.38,0-.55a2.26,2.26,0,0,1,0-.46,7.12,7.12,0,0,0,0-.74c0-.32,0-.64,0-1,0-.14,0-.29,0-.43v-.62a2.81,2.81,0,0,0,0-.3c0-.16,0-.34,0-.55s0-.41,0-.63,0-.42,0-.62a2.73,2.73,0,0,0-.05-.53.43.43,0,0,1,.11-.38.74.74,0,0,1,.37-.25,1.13,1.13,0,0,1,.4-.08,2.69,2.69,0,0,1,.46,0,.41.41,0,0,1,.25.14.41.41,0,0,1,0,.28v0l.19,0h.36l.18,0h.84l.36,0h.3Z"/></g></svg>