<svg xmlns="http://www.w3.org/2000/svg" viewBox="0 0 23.59 228.4"><defs><style>.cls-1{fill:#fffc92;}</style></defs><title>FacebookRudo</title><g id="Texto_Expand"><path class="cls-1" d="M.85,3.54V0H19.06V4a21.22,21.22,0,0,1-1.43,7.87,19.38,19.38,0,0,1-3.24,5.4,15.37,15.37,0,0,1-4,3.28,22.41,22.41,0,0,1-4,1.79A26.17,26.17,0,0,1,3,23.2V19.69a21.24,21.24,0,0,0,4-1.21A13.91,13.91,0,0,0,10.86,16a14.24,14.24,0,0,0,3.27-4.48,20.33,20.33,0,0,0,1.55-7.93Z"/><path class="cls-1" d="M2.26,41.22V38.29H17.89v2.93H11.63V54.11h6.84V57H1.77V54.11H8.64V41.22Z"/><path class="cls-1" d="M20,67.29a31.65,31.65,0,0,1-2.7,4.29,27.13,27.13,0,0,1-3.72,4.32V92.3H10.1V78.89A40.67,40.67,0,0,1,.24,84.4V80.76A41.68,41.68,0,0,0,5.64,78,30,30,0,0,0,11,73.69a30,30,0,0,0,4.9-6.4Z"/><path class="cls-1" d="M1.56,105.35V101.9H18.39a26,26,0,0,1-1.86,5.87,44.06,44.06,0,0,1-3.17,6,45.89,45.89,0,0,0,3.12,4A37.54,37.54,0,0,0,19.84,121v4.38q-.49-.35-1.89-1.5a34.9,34.9,0,0,1-3-2.8,42.67,42.67,0,0,1-3.68-4.5,38.5,38.5,0,0,1-4.48,4.82,28.69,28.69,0,0,1-3.7,2.82,24.68,24.68,0,0,1-2.71,1.52v-3.87a27.64,27.64,0,0,0,4.79-3.58A38.59,38.59,0,0,0,9.8,113a30.21,30.21,0,0,0,3.95-7.61Z"/><path class="cls-1" d="M0,139.54V136H17.89v-2.67h2.22V138h-1.9v2a21,21,0,0,1-1.44,7.87,19.37,19.37,0,0,1-3.23,5.4,15.53,15.53,0,0,1-4,3.28,22.41,22.41,0,0,1-4,1.79,26.28,26.28,0,0,1-3.47.9v-3.51a20.8,20.8,0,0,0,4-1.21A14,14,0,0,0,10,152a14.4,14.4,0,0,0,3.27-4.48,20.17,20.17,0,0,0,1.54-7.93ZM21.37,138v-4.64h2.22V138Z"/><path class="cls-1" d="M4.13,173.48l1.74,9.77H3.22l-1.64-9.77Zm-.42,20.27v-3a11.07,11.07,0,0,0,5.36-2.56,13.74,13.74,0,0,0,3.55-4.59,28.85,28.85,0,0,0,1.82-5,35.63,35.63,0,0,0,.9-5.05h2.87a37.34,37.34,0,0,1-.6,4.34,31.6,31.6,0,0,1-1.38,4.77,19.59,19.59,0,0,1-2.74,4.93,17.24,17.24,0,0,1-4.34,4A13.53,13.53,0,0,1,3.71,193.75Zm5.76-20.27,1.78,9.77H8.57l-1.64-9.77Z"/><path class="cls-1" d="M9.35,202.55c-.24,1.07-.51,2.19-.81,3.35H19.37V210a21.57,21.57,0,0,1-1.77,7.1,17.28,17.28,0,0,1-3.42,5.06,20.12,20.12,0,0,1-4.09,3.19,30.85,30.85,0,0,1-3.93,1.94A28,28,0,0,1,2.9,228.4v-3.61a28.15,28.15,0,0,0,3.9-1.53,18.5,18.5,0,0,0,4-2.71,16.25,16.25,0,0,0,3.45-4.3,16.89,16.89,0,0,0,1.69-7H7.15a26.76,26.76,0,0,1-3.75,5A20.33,20.33,0,0,1,.52,216.7v-4.45a16.58,16.58,0,0,0,2.17-2.48,18.67,18.67,0,0,0,1.9-3.32,17.51,17.51,0,0,0,1.21-3.9Z"/></g></svg>