<svg id="Capa_1" x="0px" y="0px" viewBox="0 0 45 305.6">
<title>Facebook</title>
	<path class="borde" d="M45,305.6H0V37.4h45V305.6z M1.5,304h41.9V39H1.5V304z"/>
	<path class="icono" d="M0,45h45V0H0V45z M16,20.1h3.9v-3.3c0-3.8,2.3-5.9,5.8-5.9H29v4.2h-2.3c-1.9,0-2.2,0.9-2.2,2.2v2.9h4.4v4.5
		h-4.4v9.5h-4.6v-9.6H16V20.1z"/>
	<path class="st0" d="M12.2,64.6v-3.5h18.2v4c0,2.7-0.5,5.4-1.4,7.9c-0.8,2-1.9,3.8-3.2,5.4c-1.1,1.3-2.5,2.4-4,3.3
		c-1.3,0.7-2.6,1.3-4,1.8c-1.1,0.4-2.3,0.7-3.5,0.9v-3.6c1.4-0.3,2.7-0.7,4-1.2c1.4-0.6,2.8-1.5,3.9-2.5c1.4-1.3,2.5-2.8,3.3-4.5
		c1.1-2.5,1.6-5.2,1.6-7.9H12.2z"/>
	<path class="st0" d="M13.6,102.3v-2.9h15.6v2.9H23v12.9h6.8v2.9H13.1v-2.9H20v-12.9H13.6z"/>
	<path class="st0" d="M31.3,128.4c-0.8,1.5-1.7,2.9-2.7,4.3c-1.1,1.6-2.3,3-3.7,4.3v16.4h-3.5V140c-3,2.3-6.3,4.1-9.9,5.5v-3.6
		c1.9-0.8,3.7-1.7,5.4-2.8c1.9-1.2,3.7-2.7,5.3-4.3c1.9-1.9,3.6-4.1,4.9-6.4L31.3,128.4z"/>
	<path class="st0" d="M12.9,166.4V163h16.8c-0.4,2-1,4-1.9,5.9c-0.9,2.1-2,4.1-3.2,6c1,1.4,2,2.7,3.1,4c1,1.2,2.2,2.2,3.4,3.3v4.4
		c-0.3-0.2-1-0.7-1.9-1.5c-1.1-0.9-2.1-1.8-3-2.8c-1.3-1.4-2.6-2.9-3.7-4.5c-1.4,1.7-2.9,3.3-4.5,4.8c-1.2,1-2.4,2-3.7,2.8
		c-0.9,0.6-1.8,1.1-2.7,1.5V183c1.7-1,3.3-2.2,4.8-3.6c1.7-1.6,3.3-3.4,4.6-5.3c1.7-2.3,3-4.9,4-7.6L12.9,166.4z"/>
	<path class="st0" d="M11.3,200.6v-3.5h17.9v-2.7h2.2v4.6h-1.9v2c0,2.7-0.5,5.4-1.4,7.9c-0.8,2-1.9,3.8-3.2,5.4
		c-1.1,1.3-2.5,2.4-4,3.3c-1.3,0.7-2.6,1.3-4,1.8c-1.1,0.4-2.3,0.7-3.5,0.9v-3.5c1.4-0.3,2.7-0.7,4-1.2c1.4-0.6,2.8-1.5,3.9-2.5
		c1.4-1.3,2.5-2.8,3.3-4.5c1-2.5,1.6-5.2,1.5-7.9L11.3,200.6z M32.7,199.1v-4.6h2.2v4.6H32.7z"/>
	<path class="st0" d="M15.4,234.6l1.7,9.8h-2.6l-1.6-9.8H15.4z M15,254.9v-3c2-0.3,3.8-1.2,5.4-2.6c1.5-1.3,2.7-2.8,3.5-4.6
		c0.8-1.6,1.4-3.3,1.8-5c0.4-1.7,0.7-3.3,0.9-5.1h2.9c-0.1,1.5-0.3,2.9-0.6,4.3c-0.3,1.6-0.8,3.2-1.4,4.8c-0.7,1.8-1.6,3.4-2.7,4.9
		c-1.2,1.6-2.7,2.9-4.3,4C18.8,253.8,17,254.5,15,254.9z M20.8,234.6l1.8,9.8h-2.7l-1.6-9.8H20.8z"/>
	<path class="st0" d="M20.7,263.6c-0.2,1.1-0.5,2.2-0.8,3.4h10.8v4.1c-0.2,2.5-0.8,4.9-1.8,7.1c-0.8,1.9-2,3.6-3.4,5.1
		c-1.2,1.2-2.6,2.3-4.1,3.2c-1.3,0.7-2.6,1.4-3.9,1.9c-1.1,0.4-2.1,0.8-3.3,1.1v-3.6c1.3-0.4,2.6-0.9,3.9-1.5c1.4-0.7,2.8-1.6,4-2.7
		c1.4-1.2,2.6-2.7,3.5-4.3c1.1-2.2,1.6-4.6,1.7-7h-8.7c-1.1,1.8-2.3,3.5-3.8,5c-0.9,0.9-1.8,1.7-2.9,2.4v-4.5
		c0.8-0.7,1.5-1.6,2.2-2.5c0.7-1,1.4-2.2,1.9-3.3c0.5-1.2,1-2.6,1.2-3.9H20.7z"/>

</svg>
