<svg xmlns="http://www.w3.org/2000/svg" viewBox="0 0 20.75 227.65"><defs><style>.cls-1{fill:#fffc92;}</style></defs><title>InstagramRudo</title><g id="Texto_Expand"><path class="cls-1" d="M20.3,0a31,31,0,0,1-2.69,4.29A27.6,27.6,0,0,1,13.89,8.6V25H10.41V11.6A40.67,40.67,0,0,1,.55,17.11V13.47A43,43,0,0,0,6,10.68,30.35,30.35,0,0,0,11.28,6.4,30,30,0,0,0,16.18,0Z"/><path class="cls-1" d="M.63,38.32V34.84H9.14v3.48Zm19.66,1.93a25,25,0,0,1-3.9,8.4,22.88,22.88,0,0,1-5.48,5.54,21,21,0,0,1-5.35,2.72A25.23,25.23,0,0,1,.63,58V54.33a17.89,17.89,0,0,0,4.09-.77,14.79,14.79,0,0,0,4.45-2.37,21.35,21.35,0,0,0,4.29-4.35,22.64,22.64,0,0,0,3.25-6.59Z"/><path class="cls-1" d="M1.87,72.06V68.61H18.69a26.08,26.08,0,0,1-1.85,5.87,44.12,44.12,0,0,1-3.18,6,44,44,0,0,0,3.13,4,37.36,37.36,0,0,0,3.35,3.26V92c-.32-.24-.95-.73-1.88-1.5a34.91,34.91,0,0,1-3-2.8,42.74,42.74,0,0,1-3.67-4.5,40,40,0,0,1-4.48,4.82,28.72,28.72,0,0,1-3.71,2.82A26.56,26.56,0,0,1,.68,92.4V88.53A27.58,27.58,0,0,0,5.46,85a37.92,37.92,0,0,0,4.64-5.28,29.58,29.58,0,0,0,4-7.61Z"/><path class="cls-1" d="M9.35,101.26c-.22.94-.44,1.78-.68,2.51H20v4.13a23.1,23.1,0,0,1-1.79,7.38,17.08,17.08,0,0,1-3.51,5.22,24.55,24.55,0,0,1-4.3,3.45A24.59,24.59,0,0,1,6.29,126,25.82,25.82,0,0,1,2.9,127.1v-3.54a23.31,23.31,0,0,0,3.47-1.23A21,21,0,0,0,10.3,120a17.38,17.38,0,0,0,4.07-4.48h-8v-3.25h9.31a17.09,17.09,0,0,0,.78-5.13h-9a24.56,24.56,0,0,1-4,5.77,35.08,35.08,0,0,1-3,2.68v-4.45a27.15,27.15,0,0,0,2.12-2.58,18.33,18.33,0,0,0,1.79-3.22,23.76,23.76,0,0,0,1.4-4Z"/><path class="cls-1" d="M9.46,135.26c-.24,1.07-.51,2.19-.81,3.35H19.48v4.13a21.33,21.33,0,0,1-1.77,7.1,17.09,17.09,0,0,1-3.42,5.06,19.85,19.85,0,0,1-4.09,3.19A29.42,29.42,0,0,1,6.27,160,24.65,24.65,0,0,1,3,161.1v-3.6A26.12,26.12,0,0,0,6.91,156a17.84,17.84,0,0,0,3.95-2.7,16.41,16.41,0,0,0,3.45-4.3A16.74,16.74,0,0,0,16,142H7.27a27,27,0,0,1-3.76,5,19.78,19.78,0,0,1-2.88,2.44V145a16.58,16.58,0,0,0,2.17-2.48,18.7,18.7,0,0,0,1.91-3.32,17.49,17.49,0,0,0,1.2-3.9ZM13.75,137v-4.64H16V137Zm3.48,0v-4.64h2.22V137Z"/><path class="cls-1" d="M.66,181.57v-3.38H20a17.72,17.72,0,0,1-1.13,6.38,12.23,12.23,0,0,1-3.21,4.8,17.26,17.26,0,0,1-4.25,2.88,20.69,20.69,0,0,1-4.14,1.47c-1.31.3-2.53.54-3.64.71v-3.64a21.45,21.45,0,0,0,3.11-.6,19.38,19.38,0,0,0,3.44-1.32,12.58,12.58,0,0,0,3.55-2.69,9.17,9.17,0,0,0,2.3-4.61Zm.9-7.77v-3.32h17v3.32Z"/><path class="cls-1" d="M9.64,204.23q-.92,4.44-2.05,8.63t-2.06,6.88c-.61,1.8-1.15,3.26-1.6,4.4H16.27a57.09,57.09,0,0,0-1.51-5.94q-.87-2.76-1.71-4.76h3.61a76.66,76.66,0,0,1,2.5,7.3,55.52,55.52,0,0,1,1.59,6.91H0v-3.86c.84-2.15,1.59-4.18,2.27-6.08s1.36-4.06,2.05-6.48,1.26-4.75,1.71-7Z"/></g></svg>