<svg id="Capa_1" x="0px" y="0px" viewBox="0 0 45 305.6">
<style type="text/css">
	.st0{fill:#FFFC92;}
</style>
<title>Instagram</title>
<path class="st0" d="M45,305.6H0V37.4h45V305.6z M1.5,304h41.9V39H1.5V304z"/>
<path class="st0" d="M0,45h45V0H0V45z M35.2,6c1.5,0,2.7,1.2,2.7,2.7s-1.2,2.7-2.7,2.7s-2.7-1.2-2.7-2.7C32.5,7.2,33.6,6,35.2,6
	C35.1,5.9,35.1,5.9,35.2,6L35.2,6z M22.4,13.2c5.6,0,10.1,4.5,10.1,10.1S28,33.4,22.4,33.4s-10.1-4.5-10.1-10.1c0,0,0,0,0,0
	C12.2,17.7,16.7,13.2,22.4,13.2C22.3,13.1,22.4,13.1,22.4,13.2L22.4,13.2z"/>
<path class="st0" d="M22.4,29c3.2,0,5.8-2.6,5.8-5.8c0-3.2-2.6-5.8-5.8-5.8c-3.2,0-5.8,2.6-5.8,5.8c0,0,0,0,0,0
	C16.6,26.4,19.2,29,22.4,29z"/>
<path class="st0" d="M31.9,58.4c-0.8,1.5-1.7,2.9-2.7,4.3c-1.1,1.6-2.3,3-3.7,4.3v16.4H22V70c-3,2.3-6.3,4.1-9.9,5.5v-3.7
	c1.9-0.8,3.7-1.7,5.4-2.8c1.9-1.2,3.7-2.7,5.3-4.3c1.9-1.9,3.6-4.1,4.9-6.4H31.9z"/>
<path class="st0" d="M12.2,96.7v-3.5h8.5v3.5L12.2,96.7z M31.9,98.6c-0.8,3-2.1,5.8-3.9,8.4c-1.5,2.1-3.4,4-5.5,5.5
	c-1.6,1.2-3.4,2.1-5.4,2.7c-1.6,0.5-3.3,0.9-4.9,1.1v-3.7c1.4-0.1,2.8-0.4,4.1-0.8c1.6-0.5,3.1-1.3,4.4-2.4c1.6-1.2,3-2.7,4.2-4.3
	c1.4-2,2.5-4.2,3.3-6.6H31.9z"/>
<path class="st0" d="M13.4,130.4V127h16.8c-0.4,2-1,4-1.9,5.9c-0.9,2.1-2,4.1-3.2,6c1,1.4,2,2.7,3.1,4c1,1.2,2.2,2.2,3.4,3.3v4.4
	c-0.3-0.2-1-0.7-1.9-1.5c-1.1-0.9-2.1-1.8-3-2.8c-1.3-1.4-2.6-2.9-3.7-4.5c-1.4,1.7-2.9,3.3-4.5,4.8c-1.2,1-2.4,1.9-3.7,2.7
	c-0.9,0.6-1.8,1.1-2.7,1.5v-3.9c1.7-1,3.3-2.2,4.7-3.6c1.7-1.6,3.3-3.4,4.6-5.3c1.7-2.3,3-4.9,4-7.6H13.4z"/>
<path class="st0" d="M20.9,159.6c-0.2,0.9-0.4,1.8-0.7,2.5h11.3v4.1c-0.2,2.5-0.8,5-1.8,7.4c-0.8,1.9-2,3.7-3.5,5.2
	c-1.3,1.3-2.7,2.5-4.3,3.4c-1.3,0.8-2.7,1.5-4.1,2.1c-1.1,0.4-2.2,0.8-3.4,1.1V182c1.2-0.3,2.3-0.7,3.5-1.2
	c1.4-0.6,2.7-1.4,3.9-2.4c1.6-1.2,3-2.8,4.1-4.5h-8v-3.3h9.3c0.5-1.7,0.8-3.4,0.8-5.1h-9c-1.1,2.1-2.4,4-4,5.8
	c-0.9,1-1.9,1.8-3,2.7v-4.4c0.8-0.8,1.5-1.7,2.1-2.6c0.7-1,1.3-2.1,1.9-3.3c0.6-1.3,1.1-2.6,1.4-4L20.9,159.6z"/>
<path class="st0" d="M21,193.6c-0.2,1.1-0.5,2.2-0.8,3.4H31v4.1c-0.2,2.5-0.8,4.9-1.8,7.1c-0.8,1.9-2,3.6-3.4,5.1
	c-1.2,1.2-2.6,2.3-4.1,3.2c-1.3,0.7-2.6,1.4-3.9,1.9c-1.1,0.4-2.1,0.8-3.3,1.1v-3.6c1.3-0.4,2.6-0.9,3.9-1.5c1.4-0.7,2.8-1.6,4-2.7
	c1.4-1.2,2.6-2.7,3.5-4.3c1.1-2.2,1.6-4.6,1.7-7h-8.7c-1.1,1.8-2.3,3.5-3.8,5c-0.9,0.9-1.8,1.7-2.9,2.4v-4.4
	c0.8-0.8,1.5-1.6,2.2-2.5c0.7-1,1.4-2.1,1.9-3.3c0.6-1.2,1-2.6,1.2-3.9L21,193.6z M25.3,195.4v-4.6h2.2v4.6H25.3z M28.8,195.4v-4.6
	H31v4.6H28.8z"/>
<path class="st0" d="M12.2,240v-3.4h19.3c0,2.2-0.4,4.3-1.1,6.4c-0.7,1.8-1.8,3.5-3.2,4.8c-1.3,1.2-2.7,2.1-4.2,2.8
	c-1.3,0.6-2.7,1.1-4.1,1.5c-1.3,0.3-2.5,0.5-3.6,0.7v-3.6c1.1-0.1,2.1-0.3,3.1-0.6c1.2-0.3,2.3-0.8,3.5-1.3
	c1.3-0.7,2.5-1.6,3.5-2.7c1.2-1.3,2-2.9,2.3-4.6H12.2z M13.1,232.2v-3.3h17v3.3H13.1z"/>
<path class="st0" d="M21.2,262.6c-0.6,3-1.3,5.8-2,8.6s-1.4,5.1-2.1,6.9c-0.6,1.8-1.1,3.3-1.6,4.4h12.3c-0.4-2-0.9-4-1.5-5.9
	c-0.6-1.8-1.2-3.4-1.7-4.8h3.6c0.9,2.2,1.7,4.7,2.5,7.3c0.7,2.3,1.2,4.5,1.6,6.9H11.6v-3.9c0.8-2.1,1.6-4.2,2.3-6.1
	s1.4-4.1,2.1-6.5c0.7-2.4,1.2-4.8,1.7-7L21.2,262.6z"/>
</svg>
