<svg id="RudaLogo" x="0px" y="0px" viewBox="0 0 431.6 268.8">
	<path d="M182.7,140.6H165V84.1c0-6.7-0.8-13.3-2.2-19.8l30.9-27.9c8.2-6.5,9.5-18.5,3-26.7s-18.5-9.5-26.7-3
		c-0.6,0.5-1.2,1-1.7,1.6l-22.8,20.6C130.4,11,107.9,0,81.8,0C42.5,0,0,32.1,0,84.1v91.2c0,1.8,1.5,3.3,3.3,3.3c0,0,0,0,0,0h123.8
		v1.9c0,22.7-8.5,49.8-49.2,49.8H2.3c-1.2,0-2.3,1-2.3,2.3V266c0,1.2,1,2.3,2.3,2.3l0,0h75.6c52.9,0,87.1-34.4,87.1-87.8v-1.9h17.2
		c9.9,0,18.5-7.4,19.4-17.3c0.9-10.5-6.8-19.7-17.2-20.6C183.8,140.7,183.2,140.7,182.7,140.6z M41.4,140.6h-3.4V84.1
		c0-28.9,22.3-46.1,43.9-46.1c0.8,0,1.6,0.1,2.3,0.1s1.3,0,2,0.1s1.4,0.2,2.1,0.3s1.3,0.2,2,0.3s1.4,0.3,2.1,0.4s1.3,0.3,2,0.4
		s1.4,0.4,2,0.6s1.3,0.4,1.9,0.6s1.3,0.5,2,0.8s1.2,0.5,1.8,0.8s1.3,0.7,2,1s1.2,0.6,1.8,0.9s1.3,0.8,1.9,1.2s1.1,0.7,1.7,1.1
		s1.2,0.9,1.7,1.4s1.1,0.8,1.6,1.3s1.1,1.1,1.6,1.6s1,0.9,1.4,1.4s1,1.2,1.5,1.8s0.9,1,1.3,1.6s0.9,1.4,1.4,2.1s0.7,1.1,1.1,1.7
		c0.4,0.8,0.8,1.6,1.2,2.4c0.3,0.6,0.6,1.2,0.9,1.8c0.4,0.8,0.7,1.8,1,2.6c0.2,0.6,0.5,1.3,0.7,1.9c0.3,0.9,0.5,1.9,0.8,2.9
		c0.2,0.7,0.4,1.3,0.5,2c0.2,1.1,0.3,2.3,0.5,3.4c0.1,0.6,0.2,1.2,0.3,1.9c0.2,1.8,0.3,3.8,0.3,5.7v56.6L41.4,140.6z"/>
	<path d="M337.2,0.5c-20.3,0-40.1,6.5-56.5,18.6l-12-10.8c-7.3-7.5-19.3-7.7-26.9-0.4s-7.7,19.3-0.4,26.9
		c0.6,0.6,1.2,1.1,1.8,1.6l12.1,10.9c-8.2,14-12.5,29.9-12.5,46.2c0,0.3,0,0.6,0,0.9v170c0,2.5,2,4.4,4.4,4.5c0,0,0,0,0,0h181.1
		c1.7,0,3.1-1.4,3.1-3.1v-162v-9.3c0-0.3,0-0.6,0-0.9C431.6,42.2,389.5,0.5,337.2,0.5z M337.2,38.5c30.7,0,56.6,25,56.9,54.7
		l-0.1,2.8c-1.4,28.8-26.7,52.6-56.7,52.6s-55.4-23.9-56.7-52.6l-0.1-2.8C280.6,63.5,306.5,38.5,337.2,38.5z M280.8,230.9v-62.9
		c33.5,24.7,79.3,24.7,112.8,0v62.9H280.8z"/>
</svg>
