<svg xmlns="http://www.w3.org/2000/svg" viewBox="0 0 169.4 496.19"><defs><style>.cls-1{fill:#fbf191;}.cls-2{fill:#00958c;}</style></defs><title>1_Mesa de trabajo 3 copiaRudo</title><g id="Texto_Inicio"><path class="cls-1" d="M27.37,24.11H16.64v3.54H26.81v5H17q3.44,2.92,7.82,7.31l-3.26,3.76q-2.37-2.74-4.89-5.28V51.65h-5.9V38.78a42,42,0,0,1-7.42,9.11L0,43.56a40.84,40.84,0,0,0,9.16-11h-8v-5h9.62V24.11H1.12V19.34h6C6.48,16.86,5.62,14,4.5,10.62h-3V5.68h9.28V0h5.9V5.68H27.49v4.94h-3a50.9,50.9,0,0,1-2.92,8.72h5.84ZM12.42,19.34H16a55.4,55.4,0,0,0,3.09-8.72H10C10.92,13.51,11.75,16.41,12.42,19.34ZM26.3,51.09l-4.38-3.93A36,36,0,0,0,26.78,38,54.91,54.91,0,0,0,29.23,25.6Q30,17.88,30,4.89,42.39,3.93,50.42,1L51.88,6.3A79.51,79.51,0,0,1,35.69,9.72c-.07,3.6-.15,6.32-.22,8.15H52.78v5.34H47.55V51.15H41.76V23.21H35.13a74.74,74.74,0,0,1-2.87,16.47A37.9,37.9,0,0,1,26.3,51.09Z"/><path class="cls-1" d="M18,54V85.15q0,3.76,1.07,5.36t4.05,1.83a17.5,17.5,0,0,0,7.11-1.69,57,57,0,0,0,7.05-3.71,59.35,59.35,0,0,0,5.28-3.59V90.2A49.79,49.79,0,0,1,37,94.05a33.29,33.29,0,0,1-6.23,2.84,24.48,24.48,0,0,1-7.26,1.3Q17.6,98.07,15,94.62T12.31,85V54Z"/><path class="cls-1" d="M9.81,105.82h6c-.15,2.33-.27,4.72-.34,7.2s-.14,5.07-.2,7.81-.1,5.25-.14,7.53a49.14,49.14,0,0,0,.51,7.7c.33,2.1,1.35,3.24,3,3.43a8.54,8.54,0,0,0,4.19-1.38,23.7,23.7,0,0,0,3.23-2.27V142A16.5,16.5,0,0,1,22.71,144a13.76,13.76,0,0,1-4.64,1.3,6.57,6.57,0,0,1-6.35-3q-2.31-3.37-2.31-11.86,0-3.6,0-8T9.56,114C9.61,111.27,9.7,108.56,9.81,105.82Zm23.44,0H39A99.17,99.17,0,0,1,42.32,123a178.27,178.27,0,0,1,.82,21.24H37.35q.06-4.54-.08-8.85c-.1-2.87-.31-6.19-.65-10s-.83-7.53-1.46-11.24A58,58,0,0,0,33.25,105.82Z"/><path class="cls-1" d="M9.81,155.5h6c-.15,2.32-.27,4.72-.34,7.2s-.14,5.07-.2,7.81-.1,5.24-.14,7.53a49.14,49.14,0,0,0,.51,7.7c.33,2.1,1.35,3.24,3,3.43a8.54,8.54,0,0,0,4.19-1.38,23.7,23.7,0,0,0,3.23-2.27v6.12a17,17,0,0,1-3.34,2.08A13.53,13.53,0,0,1,18.07,195a6.54,6.54,0,0,1-6.35-3q-2.31-3.37-2.31-11.86,0-3.6,0-8t.12-8.46C9.61,161,9.7,158.24,9.81,155.5Zm23.44,0H39a99.05,99.05,0,0,1,3.28,17.14,178.54,178.54,0,0,1,.82,21.25H37.35c0-3,0-6-.08-8.85s-.31-6.19-.65-10-.83-7.53-1.46-11.24A58,58,0,0,0,33.25,155.5Z"/><path class="cls-1" d="M10,231.77V210.18H23.27v-7.3h6v7.3H43v7.65a38.72,38.72,0,0,1-2,12.36,21.65,21.65,0,0,1-5,8.32,28.38,28.38,0,0,1-6.63,4.86,38,38,0,0,1-6.61,2.81,36.3,36.3,0,0,1-5.45,1.27v-5.9a31.62,31.62,0,0,0,6.44-1.86,25.77,25.77,0,0,0,6.43-3.93,16.85,16.85,0,0,0,5-7.06,30.86,30.86,0,0,0,1.79-11V216H15.91v15.74Z"/><path class="cls-1" d="M12.87,267.45v-5.12H40.13v5.12H29.23v22.48H41.14v5.12H12v-5.12H24V267.45Z"/><path class="cls-1" d="M8.94,310.72v-6.18H40.13v-4.67H44V308H40.69v3.48a36.76,36.76,0,0,1-2.5,13.72,33.27,33.27,0,0,1-5.65,9.41,26.29,26.29,0,0,1-6.94,5.73,39.17,39.17,0,0,1-7,3.12,46.49,46.49,0,0,1-6,1.58v-6.13a36.3,36.3,0,0,0,7-2.11,24,24,0,0,0,6.83-4.41,25,25,0,0,0,5.7-7.81c1.58-3.23,2.48-7.83,2.7-13.83ZM46.2,308v-8.1h3.88V308Z"/><path class="cls-1" d="M13.88,379V366.36H8.15v-6.19h5.73v-7.86h5.79v7.86H33.11v-8.09H39v8.09h5.9v6.19H39v9.33a17.33,17.33,0,0,1-8.1,15.12,31.13,31.13,0,0,1-6.88,3.4A50.63,50.63,0,0,1,17.48,396v-6.41a33.66,33.66,0,0,0,4.72-1.1,18.49,18.49,0,0,0,4.86-2.27,15.4,15.4,0,0,0,4.16-4.1,11.14,11.14,0,0,0,1.89-6.41v-9.33H19.67V379Z"/><path class="cls-1" d="M43.81,402.66a54.38,54.38,0,0,1-4.69,7.47,48.53,48.53,0,0,1-6.49,7.54v28.61H26.56V422.89a71.4,71.4,0,0,1-17.2,9.61v-6.35a74.54,74.54,0,0,0,9.41-4.86,53.38,53.38,0,0,0,9.31-7.47,52.28,52.28,0,0,0,8.54-11.16Z"/><path class="cls-1" d="M12.62,495.67v-44.4h6.29v15.29h23.5v6.12H18.91v23Z"/></g><g id="Texto_Medio"><path class="cls-1" d="M117.48,44.74l-2.82,4.95q-13-8.26-20.51-17.88V51.32H88.08V31.65a79.1,79.1,0,0,1-20.52,18l-2.81-4.95A80.94,80.94,0,0,0,84.14,28.89H66V23.78H78.19q-3-5.85-6.36-11.36l4-1.85H68V5.51H88.08V0h6.07V5.51h20.12v5.06h-8l4,1.68a73.27,73.27,0,0,1-6.07,11.53h12v5.11H98.08A81.21,81.21,0,0,0,117.48,44.74Zm-40-34.17Q81.27,16.92,83.75,22l-4,1.8h8.38V10.57Zm25.23,13.21L98.76,22a82.49,82.49,0,0,0,6-11.41H94.15V23.78Z"/><path class="cls-1" d="M108.31,57.52v6a22,22,0,0,0-9,3.07,30.67,30.67,0,0,0-7.25,5.82,15.86,15.86,0,0,0-3.8,6.46c-.78,2.89-.71,5.23.23,7a8.53,8.53,0,0,0,3.68,3.86A13.29,13.29,0,0,0,97,91.13a28.45,28.45,0,0,0,4.66.06c1.27-.11,2.51-.26,3.71-.45V97a37.53,37.53,0,0,1-4,.25c-1.41,0-3,0-4.64-.14A20.6,20.6,0,0,1,91.56,96a13.73,13.73,0,0,1-5.14-2.92,16.52,16.52,0,0,1-3.57-4.92,14.53,14.53,0,0,1-1-7.75,20.7,20.7,0,0,1,2-6.07A22.47,22.47,0,0,1,87,69.6a32.48,32.48,0,0,1,3-3.06q1.29-1.1,4.27-3.12H74.14v-5.9Z"/><path class="cls-1" d="M74.39,108.13h6q-.22,3.48-.34,7.19c-.07,2.47-.14,5.08-.19,7.81s-.11,5.25-.14,7.54a49.36,49.36,0,0,0,.5,7.7q.51,3.15,3,3.42a8.39,8.39,0,0,0,4.18-1.37,23,23,0,0,0,3.24-2.28v6.13a17.87,17.87,0,0,1-3.35,2.08,13.92,13.92,0,0,1-4.64,1.29,6.57,6.57,0,0,1-6.35-3Q74,141.24,74,132.75q0-3.6,0-8t.11-8.46Q74.23,112.23,74.39,108.13Zm23.44,0h5.79a99,99,0,0,1,3.29,17.14,178.71,178.71,0,0,1,.81,21.25h-5.79q.06-4.56-.08-8.86c-.09-2.86-.31-6.19-.65-10s-.82-7.53-1.46-11.24A56.33,56.33,0,0,0,97.83,108.13Z"/><path class="cls-1" d="M75.52,172.67H89.85v-5.28H74.5v-5.68H89.85V157.1h5.9v4.61h11.64v5.68H95.75v5.28h10.68v5.4H95.75v6.18a27,27,0,0,1,5.54,2.42,30.45,30.45,0,0,1,4,2.67c1,.8,1.39,1.06,1.24.76v7.53a43.17,43.17,0,0,0-10.74-7.36v2.13a10.53,10.53,0,0,1-1.6,6,7,7,0,0,1-3.8,2.81,15.6,15.6,0,0,1-4.72.59,14.74,14.74,0,0,1-5.73-1.12,8.35,8.35,0,0,1-4-3.15,9.49,9.49,0,0,1-1.41-4.78,9.82,9.82,0,0,1,1.83-5.9,9.64,9.64,0,0,1,5.23-3.54,19.31,19.31,0,0,1,8.29-.28v-5H75.52Zm10.11,23.5a5.43,5.43,0,0,0,2.84-.73,3.18,3.18,0,0,0,1.38-2.65v-4.1q-4.89-1-7.17.25a4.05,4.05,0,0,0-2.39,3.29,3.5,3.5,0,0,0,1.32,2.87A6.33,6.33,0,0,0,85.63,196.17Z"/><path class="cls-1" d="M73.49,218.84v-5.73H95.08v-5.46h5.73v5.46h8.09v5.73h-8.09v11.69a20.05,20.05,0,0,1,1.63,6.24,27.6,27.6,0,0,1-.84,8.4,21.49,21.49,0,0,1-3.15,7.06h-6.8a21.1,21.1,0,0,0,3.57-6,19.19,19.19,0,0,0,1-4,12.28,12.28,0,0,1-4.08,2.87,12.7,12.7,0,0,1-4.3,1.12,9.84,9.84,0,0,1-9.67-5.34,14,14,0,0,1,.37-12.93,10.64,10.64,0,0,1,4.24-4,12.37,12.37,0,0,1,6.41-1.1,17.48,17.48,0,0,1,2.87.53,8.61,8.61,0,0,1,3,1.49v-6Zm22.2,15.51a6.68,6.68,0,0,0-1.74-3.9,6.42,6.42,0,0,0-4.66-2.39,5.33,5.33,0,0,0-4.84,1.6,6.55,6.55,0,0,0-1.74,4.52q0,3.54,2,5.15a5.76,5.76,0,0,0,5,1,9.21,9.21,0,0,0,4-2,5.69,5.69,0,0,0,1.63-2.41A7.58,7.58,0,0,0,95.69,234.35Z"/><path class="cls-1" d="M87.35,259.61h7.53l-.9,30H88.25Zm.34,42v-7.47h6.85v7.47Z"/></g><g id="Texto_ENG"><rect class="cls-1" x="139.4" width="30" height="303.92"/><path class="cls-2" d="M158.79,14.27c0,.19,0,.53,0,1s0,1,0,1.56,0,1.15,0,1.75,0,1.11,0,1.55c0,.28,0,.52,0,.71v.41a1.28,1.28,0,0,1-.09.44,1.63,1.63,0,0,1-.62.78.76.76,0,0,1-.43.14,1.7,1.7,0,0,1-1.52-.76l-.37-.58-.62-1-.63-1a7.64,7.64,0,0,1-.39-.72c-.08-.16-.21-.38-.38-.67s-.36-.6-.55-.93l-.58-1c-.18-.31-.34-.57-.47-.78l-.25-.42-.17-.32c-.08-.17-.18-.35-.29-.57l-.34-.66c-.11-.22-.22-.43-.31-.63,0,.3,0,.7,0,1.2s0,1.09.06,1.79c0,.43,0,.87,0,1.33s0,.91,0,1.35,0,.85,0,1.23,0,.71,0,1,0,.26,0,.37v.27a2.2,2.2,0,0,1-.23,1.13.94.94,0,0,1-.76.4h0a.79.79,0,0,1-.62-.31,1.08,1.08,0,0,1-.18-.26.69.69,0,0,1-.07-.42c0-.09,0-.25,0-.47s0-.46,0-.73,0-.56,0-.87,0-.59,0-.86v-1.9c0-.36,0-.76,0-1.19s0-.88,0-1.35,0-.92,0-1.36,0-1.07,0-1.48v-.78a6.35,6.35,0,0,1,.06-1,1.46,1.46,0,0,1,.21-.59l.18-.17a.72.72,0,0,1,.35-.17H150a.84.84,0,0,1,.72.34c.06.1.18.29.34.58l.58,1,.65,1.16c.22.4.4.76.56,1.07s.33.62.52,1,.39.69.58,1,.38.66.57,1,.34.56.48.77.28.46.5.8.42.69.64,1l.78,1.26.07.1.07.08v-.12c0-.16,0-.42,0-.8s0-.8,0-1.24,0-.93-.05-1.37,0-.77,0-1,0-.25,0-.44,0-.41,0-.67V10.47c0-.34,0-.56,0-.68q.06-1.08.93-1.08a.74.74,0,0,1,.54.29,1.23,1.23,0,0,1,.32.49,1.31,1.31,0,0,1,.09.53,4.37,4.37,0,0,0,0,.56c0,.26,0,.56,0,.9s0,.5,0,.75,0,.52,0,.77,0,.49,0,.71S158.8,14.12,158.79,14.27Z"/><path class="cls-2" d="M152.42,32.72a.88.88,0,0,0,0,.16.62.62,0,0,1,0,.13.38.38,0,0,0,0,.12v2h.06a.56.56,0,0,0,.21-.1l.29-.15,1.67-.9a1.2,1.2,0,0,1,.6,0,.63.63,0,0,1,.49.44.58.58,0,0,1,0,.56,1.58,1.58,0,0,1-.48.43l-2.5,1.38a.64.64,0,0,0-.26.18.27.27,0,0,0-.07.18.86.86,0,0,1,0,.17c0,.05,0,.08,0,.11a.06.06,0,0,1,0,0s0,.11,0,.25a5,5,0,0,1,0,.55c0,.15,0,.29,0,.44v.19h.1a1.91,1.91,0,0,1,.43,0H153l.32,0H157a1.11,1.11,0,0,1,.6.13.71.71,0,0,1,.31.31,1.29,1.29,0,0,1,.12.38c0,.12,0,.23,0,.31a.65.65,0,0,1-.24.5.93.93,0,0,1-.56.25,1,1,0,0,1-.24,0h-.7a2.61,2.61,0,0,1-.4,0h-4.4a3.6,3.6,0,0,0-.44,0h0a.41.41,0,0,1-.28-.11.89.89,0,0,1-.18-.58,7.59,7.59,0,0,1,0-.92c0-.1,0-.2,0-.31s0-.2,0-.31v-.79c0-.31,0-.62,0-.91s0-.52,0-.83,0-.65,0-1V34c0-.33,0-.61,0-.83s0-.37,0-.68v-1c0-.38,0-.77,0-1.18s0-.78,0-1.12,0-.64,0-.88v-.43a.7.7,0,0,1,.29-.57,1.07,1.07,0,0,1,.6-.19h5a.6.6,0,0,1,.38.12,1.11,1.11,0,0,1,.24.28,1.09,1.09,0,0,1,.13.34,1.11,1.11,0,0,1,0,.29c0,.55-.24.83-.72.83h-4a.39.39,0,0,0,0,.21c0,.12,0,.21,0,.27v.18a.59.59,0,0,1,0,.14,2.72,2.72,0,0,0,0,.58V31c0,.14,0,.39,0,.73S152.43,32.41,152.42,32.72Z"/><path class="cls-2" d="M160.18,45.36a.48.48,0,0,1,.29.11,1.59,1.59,0,0,1,.19.2.79.79,0,0,1,.17.25.44.44,0,0,1,0,.27c-.07.3-.12.52-.17.66s-.08.27-.1.37a.45.45,0,0,0-.05.17,1.67,1.67,0,0,1,0,.18c-.09.34-.19.68-.29,1l-.24.88c-.07.29-.14.56-.21.82s-.12.52-.24,1-.25.94-.39,1.46-.27,1-.4,1.5-.23.86-.31,1.13l0,.1-.06.21c0,.08-.05.16-.07.24-.07.24-.13.5-.21.77l-.21.78-.18.64a3.23,3.23,0,0,1-.12.37,1.69,1.69,0,0,1-.45.52,1.2,1.2,0,0,1-.79.27,1.49,1.49,0,0,1-.81-.16,2.67,2.67,0,0,1-.49-.42l0,0a3.76,3.76,0,0,1-.54-.7l-.33-.56-.08-.12a1.48,1.48,0,0,1-.11-.22.76.76,0,0,0-.06-.16l-.06-.1a1,1,0,0,0-.13.14l-.16.21-.09.13-.09.12-.06.08-.46.61a6,6,0,0,1-.53.58,5.1,5.1,0,0,1-.56.44,1,1,0,0,1-.5.17,1.25,1.25,0,0,1-.61-.18,1.21,1.21,0,0,1-.48-.58,2.14,2.14,0,0,1-.1-.22c0-.07-.06-.14-.09-.2s-.15-.36-.21-.53a5.85,5.85,0,0,1-.22-.67c-.06-.26-.15-.59-.26-1s-.22-.83-.34-1.28-.2-.81-.31-1.22-.2-.8-.3-1.16-.18-.66-.26-.93-.14-.45-.17-.57a4.94,4.94,0,0,1-.21-.75l-.18-.88c0-.27-.1-.52-.15-.76a2.94,2.94,0,0,0-.14-.54,2.21,2.21,0,0,1-.17-.57c0-.2-.06-.38-.09-.53a1.29,1.29,0,0,1,0-.25.61.61,0,0,0,0-.14.28.28,0,0,1,0-.28.9.9,0,0,1,.21-.27,1.64,1.64,0,0,1,.25-.22.7.7,0,0,1,.19-.1.35.35,0,0,1,.23-.06.67.67,0,0,1,.41.13s0,0,.09.08l.25.22a.79.79,0,0,1,.2.4,3.33,3.33,0,0,1,.1.4l.13.49c.05.25.11.51.18.79s.14.55.21.82.13.53.19.76.13.43.18.58.14.45.22.74.16.58.24.88.15.61.23.91.13.58.18.82.15.69.25,1.1.2.78.29,1.12c0,.12,0,.24.08.34s.05.2.08.28.05.23.08.34a2.21,2.21,0,0,0,.09.24.52.52,0,0,0,.08-.11l.08-.13a.35.35,0,0,0,.07-.09.33.33,0,0,1,.06-.1,3.17,3.17,0,0,1,.2-.27l.15-.18a.6.6,0,0,0,.08-.08,1,1,0,0,0,.08-.11l.23-.31a4.24,4.24,0,0,1,.41-.46,3.63,3.63,0,0,1,.47-.42.79.79,0,0,1,.44-.19.73.73,0,0,1,.53.17,2.28,2.28,0,0,1,.3.38.16.16,0,0,1,.06.08l0,.07.27.36c.12.15.23.3.35.47l.33.44c.1.14.19.24.25.32l.06.1a.9.9,0,0,0,.14.17,1.09,1.09,0,0,0,.05-.25l.06-.33.1-.49c0-.19.08-.39.13-.61s.1-.41.18-.71.16-.64.26-1,.2-.75.31-1.14.21-.77.31-1.12.19-.65.26-.92l.18-.57c.07-.23.15-.49.22-.76l.21-.81q.1-.4.21-.78c.06-.24.12-.46.17-.64a1.4,1.4,0,0,0,.06-.24.91.91,0,0,1,0-.16.25.25,0,0,0,0-.07.11.11,0,0,1,0-.07c0-.1.05-.21.08-.32a.7.7,0,0,1,.19-.29,1,1,0,0,1,.37-.21A1.73,1.73,0,0,1,160.18,45.36Z"/><path class="cls-2" d="M160.18,74.52a.42.42,0,0,1,.29.11,1.11,1.11,0,0,1,.19.2.69.69,0,0,1,.17.25.44.44,0,0,1,0,.27c-.07.3-.12.52-.17.66s-.08.26-.1.37a.41.41,0,0,0-.05.17s0,.11,0,.18c-.09.33-.19.68-.29,1l-.24.89c-.07.29-.14.56-.21.82s-.12.52-.24,1-.25.94-.39,1.45-.27,1-.4,1.51-.23.86-.31,1.13l0,.1q0,.09-.06.21c0,.08-.05.16-.07.23-.07.25-.13.51-.21.78l-.21.78-.18.63a2.25,2.25,0,0,1-.12.37,1.61,1.61,0,0,1-.45.53,1.2,1.2,0,0,1-.79.27,1.48,1.48,0,0,1-.81-.17,2.6,2.6,0,0,1-.49-.41l0,0a4.55,4.55,0,0,1-.54-.7l-.33-.56-.08-.12a1.48,1.48,0,0,1-.11-.22.85.85,0,0,0-.06-.17L153.8,86a1,1,0,0,0-.13.14l-.16.21-.09.13-.09.12-.06.07c-.14.2-.29.4-.46.62a7.45,7.45,0,0,1-.53.58,4,4,0,0,1-.56.43.93.93,0,0,1-.5.18,1.17,1.17,0,0,1-.61-.19,1.14,1.14,0,0,1-.48-.57l-.1-.22a1.89,1.89,0,0,1-.09-.21c-.08-.18-.15-.35-.21-.52a6.12,6.12,0,0,1-.22-.68c-.06-.26-.15-.58-.26-1s-.22-.82-.34-1.28-.2-.8-.31-1.22-.2-.8-.3-1.15-.18-.67-.26-.93l-.17-.57a4.94,4.94,0,0,1-.21-.75l-.18-.88c0-.27-.1-.53-.15-.76a2.94,2.94,0,0,0-.14-.54,2.21,2.21,0,0,1-.17-.57q0-.3-.09-.54a1.2,1.2,0,0,1,0-.24.61.61,0,0,0,0-.14.3.3,0,0,1,0-.29,1.24,1.24,0,0,1,.21-.27,2.32,2.32,0,0,1,.25-.21l.19-.11a.35.35,0,0,1,.23-.06.68.68,0,0,1,.41.14s0,0,.09.08.16.14.25.22a.75.75,0,0,1,.2.4,2.91,2.91,0,0,1,.1.4c0,.14.08.31.13.49s.11.51.18.79.14.55.21.82.13.52.19.76l.18.58c.06.2.14.45.22.73s.16.58.24.89.15.6.23.91.13.58.18.82.15.69.25,1.1.2.78.29,1.11c0,.13,0,.25.08.35a2.3,2.3,0,0,0,.08.27,3.59,3.59,0,0,0,.08.35,1.33,1.33,0,0,0,.09.23.44.44,0,0,0,.08-.1l.08-.13.07-.09a.24.24,0,0,1,.06-.1,3.17,3.17,0,0,1,.2-.27,1.43,1.43,0,0,1,.15-.18.36.36,0,0,0,.08-.09l.08-.1c0-.05.11-.16.23-.31a4.3,4.3,0,0,1,.41-.47,4.45,4.45,0,0,1,.47-.41.72.72,0,0,1,.44-.19.73.73,0,0,1,.53.17,2.2,2.2,0,0,1,.3.37l.06.08s0,0,0,.08.15.21.27.36l.35.46.33.45c.1.14.19.24.25.32l.06.1.14.17a1.22,1.22,0,0,0,.05-.25l.06-.33c0-.14.06-.31.1-.5s.08-.39.13-.61.1-.4.18-.7.16-.64.26-1l.31-1.15.31-1.11c.1-.35.19-.66.26-.92s.14-.46.18-.57.15-.49.22-.76l.21-.81c.07-.28.14-.53.21-.78s.12-.46.17-.64a1.4,1.4,0,0,0,.06-.24,1.46,1.46,0,0,1,0-.17.21.21,0,0,0,0-.06.1.1,0,0,1,0-.07c0-.11.05-.21.08-.32a.7.7,0,0,1,.19-.29,1,1,0,0,1,.37-.22A1.76,1.76,0,0,1,160.18,74.52Z"/><path class="cls-2" d="M152.42,98.44a.77.77,0,0,0,0,.15.71.71,0,0,1,0,.14.31.31,0,0,0,0,.11v2h.06a.56.56,0,0,0,.21-.1l.29-.15,1.67-.89a1.09,1.09,0,0,1,.6,0,.67.67,0,0,1,.49.44.6.6,0,0,1,0,.57,1.71,1.71,0,0,1-.48.42l-2.5,1.38a.76.76,0,0,0-.26.18.28.28,0,0,0-.07.19.76.76,0,0,1,0,.16s0,.08,0,.11a.11.11,0,0,1,0,0s0,.1,0,.24a5,5,0,0,1,0,.55c0,.15,0,.3,0,.44v.19h.1a2.74,2.74,0,0,1,.43,0H153a1.47,1.47,0,0,0,.32,0H157a1.21,1.21,0,0,1,.6.13.77.77,0,0,1,.31.31,1.29,1.29,0,0,1,.12.38c0,.13,0,.23,0,.31a.65.65,0,0,1-.24.5.94.94,0,0,1-.56.26h-5.74a2.26,2.26,0,0,0-.44,0h0a.38.38,0,0,1-.28-.12.88.88,0,0,1-.18-.57,7.47,7.47,0,0,1,0-.92c0-.11,0-.21,0-.31s0-.21,0-.32v-.79c0-.31,0-.61,0-.91s0-.52,0-.83,0-.64,0-1v-.89c0-.34,0-.62,0-.84s0-.37,0-.68v-1c0-.39,0-.78,0-1.19s0-.78,0-1.12,0-.64,0-.87v-.44a.68.68,0,0,1,.29-.56,1,1,0,0,1,.6-.2h5a.6.6,0,0,1,.38.12,1.31,1.31,0,0,1,.24.28,1.09,1.09,0,0,1,.13.34,1.11,1.11,0,0,1,0,.29c0,.56-.24.83-.72.83h-4s0,.1,0,.22,0,.2,0,.27v.17a.59.59,0,0,1,0,.14,2.73,2.73,0,0,0,0,.58v.62c0,.14,0,.39,0,.74S152.43,98.13,152.42,98.44Z"/><path class="cls-2" d="M157.76,118.63a5.48,5.48,0,0,1,.46.88,2.86,2.86,0,0,1,.22,1.14,3.6,3.6,0,0,1-1.45,3l-.48.3a5.31,5.31,0,0,1-.75.35,8,8,0,0,1-.94.31,5,5,0,0,1-1,.14l-.57,0h-1.84l-.29,0h-.23a1,1,0,0,1-.32-.06,1,1,0,0,1-.34-.19,1.49,1.49,0,0,1-.27-.33.91.91,0,0,1-.12-.49c0-.14,0-.33,0-.56s0-.48,0-.74,0-.44,0-.64V121l0-2V117.8l0-1.92a4.65,4.65,0,0,1,0-1.07v-.09a5.54,5.54,0,0,0,0-.73c0-.3,0-.6,0-.9s0-.31,0-.46v-.41a.81.81,0,0,1,.39-.71,2,2,0,0,1,1.07-.3h2.25a3.33,3.33,0,0,1,1.49.29,3.56,3.56,0,0,1,.93.6,4.47,4.47,0,0,1,.74.89,2.76,2.76,0,0,1,.33,1.2,3.26,3.26,0,0,1-.23,1.5,5.34,5.34,0,0,1-.86,1.49l.43.19a4.13,4.13,0,0,1,.37.2,2.1,2.1,0,0,1,.48.39A6.55,6.55,0,0,1,157.76,118.63Zm-6-5.56c0,.18,0,.48,0,.9s0,.82,0,1.19v.74a.23.23,0,0,1,0,.14s0,.09,0,.13v1.4l.81-.09a3.39,3.39,0,0,0,.82-.2,2.65,2.65,0,0,0,1.3-1,2.8,2.8,0,0,0,.49-1.63,1.46,1.46,0,0,0-.24-.9,1.53,1.53,0,0,0-.52-.47,1.76,1.76,0,0,0-.54-.17l-.27,0h-1.81Zm3.28,9.56a2.57,2.57,0,0,0,1.21-.79,2.09,2.09,0,0,0,.34-1.29,2.11,2.11,0,0,0-.37-1.26,1.93,1.93,0,0,0-.71-.68,3.2,3.2,0,0,1-.37-.15l-.43-.19a4.55,4.55,0,0,1-1.07.44,4.78,4.78,0,0,1-.9.21,8.78,8.78,0,0,1-1,.12c0,.56,0,1,0,1.45s0,.65,0,.7v.22c0,.24,0,.5,0,.76s0,.43,0,.48a.37.37,0,0,0,.13.2.43.43,0,0,0,.28.07h.06l.11,0h1a2.12,2.12,0,0,0,.38,0l.48-.08.45-.08Z"/><path class="cls-2" d="M154.93,145.76V154a.62.62,0,0,1-.09.32.89.89,0,0,1-.26.25,1.19,1.19,0,0,1-.34.16,1.45,1.45,0,0,1-.35,0,.78.78,0,0,1-.58-.28,1.17,1.17,0,0,1-.26-.82v-.6c0-.23,0-.5,0-.8s0-.59,0-.88,0-.56,0-.8,0-.44,0-.57v-4.81a1.12,1.12,0,0,1,.12-.53,1.34,1.34,0,0,1,.28-.37,1.41,1.41,0,0,1,.35-.21.84.84,0,0,1,.32-.07.83.83,0,0,1,.54.25,1.06,1.06,0,0,1,.27.8Zm-.87-2.68a.85.85,0,0,1-.73-.37,1.46,1.46,0,0,1-.28-.79,1,1,0,0,1,.29-.72,1.64,1.64,0,0,1,.37-.26.93.93,0,0,1,.41-.11.66.66,0,0,1,.5.22.87.87,0,0,1,.18.31,2,2,0,0,1,.08.33,1.06,1.06,0,0,1,0,.3c0,.08,0,.14,0,.18a1.22,1.22,0,0,1-.24.62A.67.67,0,0,1,154.06,143.08Z"/><path class="cls-2" d="M155.88,166.85a4.59,4.59,0,0,1,.86.55,4.38,4.38,0,0,1,.76.79,2,2,0,0,1,.4,1,2.93,2.93,0,0,1-.06,1,3.65,3.65,0,0,1-.34.89,3.93,3.93,0,0,1-.52.74,2.72,2.72,0,0,1-.63.52,5.57,5.57,0,0,1-.82.41,2.86,2.86,0,0,1-1.1.23,5.72,5.72,0,0,1-1.28-.15,5.33,5.33,0,0,1-1.05-.35c-.65-.29-1-.61-1-1a.74.74,0,0,1,.24-.72.84.84,0,0,1,.64-.31,1.31,1.31,0,0,1,.73.29,2.28,2.28,0,0,0,.68.34,2.91,2.91,0,0,0,.82.11h.25l.29,0a1.68,1.68,0,0,0,.32,0,1.36,1.36,0,0,0,.42-.18,1.77,1.77,0,0,0,.4-.38,1.29,1.29,0,0,0,.26-.63,2.57,2.57,0,0,0,0-.48,1.09,1.09,0,0,0-.18-.47,1.5,1.5,0,0,0-.48-.45,4.29,4.29,0,0,0-.9-.41,7.05,7.05,0,0,1-3.78-2.55,4.48,4.48,0,0,1-.71-1.66,4.07,4.07,0,0,1,.07-1.76,3,3,0,0,1,.39-.89,4.83,4.83,0,0,1,.84-1,5,5,0,0,1,1.29-.84,4.14,4.14,0,0,1,1.73-.35,4.07,4.07,0,0,1,2.68.81,1.24,1.24,0,0,1,.5.79,1.07,1.07,0,0,1-.14.69.73.73,0,0,1-.67.39,1.13,1.13,0,0,1-.76-.3,1.71,1.71,0,0,0-.68-.36,3.25,3.25,0,0,0-1.09-.16h-.31a2.47,2.47,0,0,0-1.28.54,2.22,2.22,0,0,0-.77,1.46,2.3,2.3,0,0,0,.15,1.27,3,3,0,0,0,.88,1.06A6.66,6.66,0,0,0,154,166c.4.2.76.36,1.09.49l.11.06C155.38,166.6,155.6,166.7,155.88,166.85Z"/><path class="cls-2" d="M157.79,197.73a.9.9,0,0,1,.72.31l.16.26a.66.66,0,0,1,.09.48,1.07,1.07,0,0,1-.48.71,3.49,3.49,0,0,1-1.36.59,7.52,7.52,0,0,1-1.8.21,4.84,4.84,0,0,1-3.8-1.71,7,7,0,0,1-1.44-2.4,8.79,8.79,0,0,1-.44-3.34,5.46,5.46,0,0,1,.38-1.86,10.31,10.31,0,0,1,.78-1.56,7.59,7.59,0,0,1,.82-1.12,4.62,4.62,0,0,1,.56-.56,5.3,5.3,0,0,1,.72-.47,9.54,9.54,0,0,1,.91-.44,9.65,9.65,0,0,1,.95-.32,3.53,3.53,0,0,1,.85-.12c.27,0,.5,0,.7,0l.49,0a3,3,0,0,1,.37.08l.34.11.08,0a1,1,0,0,1,.64.52.71.71,0,0,1,.05.58.87.87,0,0,1-.35.47,1,1,0,0,1-.56.17.78.78,0,0,1-.31-.06l-.42-.1a2.12,2.12,0,0,0-.47-.05,4.11,4.11,0,0,0-1,.15,7.73,7.73,0,0,0-1.06.46,5.52,5.52,0,0,0-1.16.83,5.19,5.19,0,0,0-1,1.24,3.81,3.81,0,0,0-.46,1.68,7.67,7.67,0,0,0,.08,2,6.14,6.14,0,0,0,.43,1.42,3.89,3.89,0,0,0,.56.94c.2.24.37.43.5.56a3,3,0,0,0,1,.67,3.38,3.38,0,0,0,1.27.24,3.89,3.89,0,0,0,1.31-.18,4.5,4.5,0,0,0,.85-.38A.7.7,0,0,1,157.79,197.73Z"/><path class="cls-2" d="M154.07,204.62a5.6,5.6,0,0,1,1,.1,5,5,0,0,1,1,.32,5.25,5.25,0,0,1,1,.58,4.56,4.56,0,0,1,.86.89,9.36,9.36,0,0,1,1.42,5.79c0,.43-.07.83-.11,1.2a6.61,6.61,0,0,1-.24,1.07,6.35,6.35,0,0,1-.46,1,7,7,0,0,1-.75,1.06,4.31,4.31,0,0,1-1,.88,9.32,9.32,0,0,1-1,.53,6,6,0,0,1-1,.34,3.74,3.74,0,0,1-.75.11,3.46,3.46,0,0,1-1-.15,5.64,5.64,0,0,1-1.05-.4,7.79,7.79,0,0,1-1-.63,5.94,5.94,0,0,1-.88-.76,3.92,3.92,0,0,1-.68-1.08,9.21,9.21,0,0,1-.49-1.4,13.39,13.39,0,0,1-.28-1.56c-.05-.54-.08-1-.08-1.51a5.29,5.29,0,0,1,.13-1.16,9.28,9.28,0,0,1,.35-1.17,9,9,0,0,1,.48-1.09,7.38,7.38,0,0,1,.53-.9,4.15,4.15,0,0,1,.93-1,5,5,0,0,1,1.08-.64,5.79,5.79,0,0,1,1.09-.36,4.69,4.69,0,0,1,1-.12Zm0,12a2.28,2.28,0,0,0,.84-.16,3.17,3.17,0,0,0,.79-.42,4.1,4.1,0,0,0,.66-.59,4.56,4.56,0,0,0,.5-.68,5.69,5.69,0,0,0,.42-.87,3.32,3.32,0,0,0,.18-.79,5.41,5.41,0,0,0,0-.81c0-.28,0-.58-.06-.92a1.11,1.11,0,0,1,0-.17.44.44,0,0,0,0-.16c0-.24,0-.45,0-.62s0-.32-.05-.46,0-.29-.08-.42-.07-.3-.13-.5a4.28,4.28,0,0,0-.67-1.39,2.69,2.69,0,0,0-.68-.67,3.45,3.45,0,0,0-.72-.36,2.33,2.33,0,0,0-.63-.14l-.42,0h-.11a3.4,3.4,0,0,0-1.25.32,3.24,3.24,0,0,0-1.11.83,4.41,4.41,0,0,0-.81,1.38,6.07,6.07,0,0,0-.38,1.93,8.48,8.48,0,0,0,.27,2.73,4.52,4.52,0,0,0,1.07,2A3.2,3.2,0,0,0,154.11,216.65Z"/><path class="cls-2" d="M160,227v1.59c0,.61,0,1.24,0,1.91s0,1.31,0,1.91,0,1.14,0,1.59,0,.78,0,.94a2.13,2.13,0,0,1-.39,1.61.78.78,0,0,1-.58.26.9.9,0,0,1-.66-.26,1.72,1.72,0,0,1-.29-1.16c0-.14,0-.37,0-.69s0-.67,0-1.05,0-.8,0-1.24v-1.24c0-.39,0-.74,0-1.05s0-.54,0-.68,0-.26,0-.44,0-.37,0-.59,0-.41,0-.65,0-.47,0-.7,0-.43,0-.62,0-.33,0-.43a7,7,0,0,0-.53.54c-.23.26-.49.57-.77.95-.13.17-.31.38-.54.65a10.56,10.56,0,0,1-.73.78,6.56,6.56,0,0,1-.79.67,1.19,1.19,0,0,1-.66.28,1.11,1.11,0,0,1-.75-.29,6.33,6.33,0,0,1-.57-.52l-.07-.07a.27.27,0,0,1-.08-.07l-.34-.32-.53-.49-.59-.56c-.19-.2-.35-.36-.48-.51l-.19-.19a6.14,6.14,0,0,1-.43-.45l-.33-.35a2.2,2.2,0,0,0,0,.54c0,.22,0,.43,0,.61q0,.6,0,1.41v1.11c0,.3,0,.71,0,1.24s0,1.08,0,1.66,0,1.12,0,1.64,0,.91.06,1.18a1.31,1.31,0,0,1-.28,1,1,1,0,0,1-.79.31.58.58,0,0,1-.51-.25,1.81,1.81,0,0,1-.26-.61,3.89,3.89,0,0,1-.09-.79c0-.29,0-.55,0-.8V233c0-.51,0-1.12,0-1.81s0-1.38,0-2.06v-1.89c0-.58,0-1,0-1.31v-.8c0-.22,0-.43,0-.63a2,2,0,0,1,0-.51,2.12,2.12,0,0,1,.18-.82.65.65,0,0,1,.55-.33h.06a1.76,1.76,0,0,1,.33,0,1.35,1.35,0,0,1,.47.23,6,6,0,0,1,.87.78c.3.32.58.63.85.94l.3.34.28.3c.18.18.38.4.58.64s.42.48.63.7.39.46.59.68l.41.44a3.4,3.4,0,0,0,.39-.39l.58-.67.61-.74.48-.6c.09-.12.23-.28.41-.5s.37-.44.59-.68.43-.48.65-.71a5.59,5.59,0,0,1,.6-.55,1.25,1.25,0,0,1,.83-.26.42.42,0,0,1,.29.12,1.31,1.31,0,0,1,.24.28,2.17,2.17,0,0,1,.15.35l.1.32a5,5,0,0,1,.1.95c0,.32,0,.63,0,.93V227Z"/><path class="cls-2" d="M154.93,246.07v8.22a.62.62,0,0,1-.09.32.89.89,0,0,1-.26.25,1.19,1.19,0,0,1-.34.16,1.45,1.45,0,0,1-.35,0,.78.78,0,0,1-.58-.28,1.17,1.17,0,0,1-.26-.82v-.6c0-.23,0-.5,0-.8s0-.59,0-.88,0-.56,0-.8,0-.44,0-.57V245.5a1.12,1.12,0,0,1,.12-.53,1.34,1.34,0,0,1,.28-.37,1.41,1.41,0,0,1,.35-.21.84.84,0,0,1,.32-.07.83.83,0,0,1,.54.25,1.06,1.06,0,0,1,.27.8Zm-.87-2.68a.85.85,0,0,1-.73-.37,1.46,1.46,0,0,1-.28-.79,1,1,0,0,1,.29-.72,1.64,1.64,0,0,1,.37-.26.93.93,0,0,1,.41-.11.69.69,0,0,1,.5.21,1,1,0,0,1,.18.32,2,2,0,0,1,.08.33,1.06,1.06,0,0,1,0,.3c0,.08,0,.14,0,.18a1.22,1.22,0,0,1-.24.62A.67.67,0,0,1,154.06,243.39Z"/><path class="cls-2" d="M158.79,265c0,.2,0,.53,0,1s0,1,0,1.56,0,1.15,0,1.75,0,1.11,0,1.55,0,.52,0,.72v.4a1.28,1.28,0,0,1-.09.44,1.66,1.66,0,0,1-.25.45,1.7,1.7,0,0,1-.37.34.75.75,0,0,1-.43.13,1.71,1.71,0,0,1-1.52-.75l-.37-.59-.62-1-.63-1.05a7.64,7.64,0,0,1-.39-.72l-.38-.67c-.18-.29-.36-.6-.55-.93l-.58-1c-.18-.31-.34-.57-.47-.77l-.25-.43-.17-.32-.29-.56c-.11-.22-.22-.44-.34-.66l-.31-.63c0,.3,0,.69,0,1.19s0,1.1.06,1.79c0,.43,0,.87,0,1.33s0,.91,0,1.35,0,.85,0,1.23,0,.72,0,1,0,.27,0,.38v.26a2.15,2.15,0,0,1-.23,1.13.92.92,0,0,1-.76.4h0a.76.76,0,0,1-.62-.31.91.91,0,0,1-.18-.26.69.69,0,0,1-.07-.42c0-.09,0-.24,0-.46s0-.47,0-.74,0-.56,0-.86,0-.59,0-.87v-1.9c0-.36,0-.75,0-1.19s0-.88,0-1.35,0-.91,0-1.35,0-1.08,0-1.49v-.78a6.44,6.44,0,0,1,.06-1,1.36,1.36,0,0,1,.21-.58,1.46,1.46,0,0,1,.18-.18,1,1,0,0,1,.35-.17H150a.85.85,0,0,1,.72.35c.06.09.18.28.34.57l.58,1,.65,1.16c.22.4.4.76.56,1.07s.33.62.52,1l.58,1c.2.33.38.65.57,1s.34.56.48.76l.5.81c.21.34.42.68.64,1l.78,1.27.07.09.07.08v-.12c0-.15,0-.42,0-.8s0-.79,0-1.23,0-.94-.05-1.38,0-.76,0-1,0-.25,0-.44,0-.41,0-.66v-3.77c0-.33,0-.56,0-.67,0-.73.35-1.09.93-1.09a.77.77,0,0,1,.54.29,1.3,1.3,0,0,1,.32.49,1.33,1.33,0,0,1,.09.54,4.2,4.2,0,0,0,0,.55c0,.27,0,.57,0,.9s0,.5,0,.76,0,.51,0,.76,0,.49,0,.71S158.8,264.83,158.79,265Z"/><path class="cls-2" d="M158.87,286.48a1.25,1.25,0,0,1,.36.24.87.87,0,0,1,.17.33,1.63,1.63,0,0,1,0,.36,4.32,4.32,0,0,1-.08.79,4.22,4.22,0,0,1-.22.77,4.14,4.14,0,0,1-.34.7,2.69,2.69,0,0,1-.43.55,4.78,4.78,0,0,1-.51.45,3.71,3.71,0,0,1-.75.42,6.65,6.65,0,0,1-1.05.31,7.56,7.56,0,0,1-1.43.12,5.48,5.48,0,0,1-1.71-.25,6,6,0,0,1-1.42-.66,5.75,5.75,0,0,1-1.09-.9,5.31,5.31,0,0,1-.76-1,7.59,7.59,0,0,1-.86-2.1,9.69,9.69,0,0,1-.31-2.4,5.56,5.56,0,0,1,.15-1.22,7.82,7.82,0,0,1,.41-1.3,7.5,7.5,0,0,1,.61-1.2,5.49,5.49,0,0,1,.74-1,5.67,5.67,0,0,1,1.92-1.3,5.93,5.93,0,0,1,2.28-.47h.16a6.52,6.52,0,0,1,2.23.46,3.47,3.47,0,0,1,1.88,1.6l.19.37a.61.61,0,0,1,.06.33,1.4,1.4,0,0,1-.08.34,1.06,1.06,0,0,1-.15.28.76.76,0,0,1-.2.17.9.9,0,0,1-.46.12,1,1,0,0,1-.41-.09,1.36,1.36,0,0,1-.35-.24.86.86,0,0,0-.07-.1l-.06-.07a.93.93,0,0,0-.13-.15l-.16-.16-.1-.1a3.12,3.12,0,0,0-.26-.27,2.09,2.09,0,0,0-.4-.3,2.42,2.42,0,0,0-.56-.25,2.88,2.88,0,0,0-.76-.09h-.19a.68.68,0,0,0-.2,0,5.74,5.74,0,0,0-1.07.19,4,4,0,0,0-.81.33,3.18,3.18,0,0,0-.63.46,5.14,5.14,0,0,0-.53.59,7.26,7.26,0,0,0-.81,1.27,4.08,4.08,0,0,0-.35,1.79,6.51,6.51,0,0,0,.08,1.07,7.77,7.77,0,0,0,.25,1.06,7.22,7.22,0,0,0,.36,1,4.94,4.94,0,0,0,.49.82,2.66,2.66,0,0,0,.56.55,4.48,4.48,0,0,0,.77.46,6.15,6.15,0,0,0,.85.31,3.57,3.57,0,0,0,.82.11h.16a10.15,10.15,0,0,0,1.4-.14,2.18,2.18,0,0,0,1-.52,1.11,1.11,0,0,0,.3-.35.58.58,0,0,0,.07-.21.37.37,0,0,1,0-.12v0h-.3a.55.55,0,0,0-.18,0h-.84l-.21,0-.38,0a2.46,2.46,0,0,1-.45-.11,1.14,1.14,0,0,1-.38-.23.85.85,0,0,1-.23-.43.84.84,0,0,1,.9-1.07h2.79A1.71,1.71,0,0,1,158.87,286.48Z"/></g></svg>