<svg xmlns="http://www.w3.org/2000/svg" viewBox="0 0 70.49 213.99"><defs><style>.cls-1{fill:#fffc92;}.cls-2{fill:#525589;}</style></defs><title>Recurso 1</title><g id="Capa_2" data-name="Capa 2"><g id="Texto"><rect class="cls-1" x="60.03" width="10.46" height="105.94"/><path class="cls-2" d="M66.79,5v.9c0,.2,0,.4,0,.61V7a2.36,2.36,0,0,1,0,.25v.14a.49.49,0,0,1,0,.15.51.51,0,0,1-.09.16.69.69,0,0,1-.13.11.23.23,0,0,1-.15,0,.6.6,0,0,1-.53-.26l-.13-.21c-.06-.1-.14-.22-.21-.35s-.15-.24-.22-.36a2.76,2.76,0,0,1-.14-.25l-.13-.24-.2-.32a3.62,3.62,0,0,0-.2-.33l-.16-.27q-.08-.15-.09-.15L64.34,5c0-.06-.06-.13-.1-.2l-.12-.23L64,4.38c0,.1,0,.24,0,.42s0,.38,0,.62,0,.3,0,.46V7.13a.62.62,0,0,0,0,.13v.09a.8.8,0,0,1-.08.4.34.34,0,0,1-.26.14h0a.28.28,0,0,1-.22-.11.35.35,0,0,1-.06-.09.33.33,0,0,1,0-.15s0-.08,0-.16V6.82c0-.1,0-.2,0-.3V5.44c0-.15,0-.3,0-.47s0-.32,0-.47V3.71a1.62,1.62,0,0,1,0-.34.52.52,0,0,1,.07-.21l.06-.06L63.64,3h.09a.31.31,0,0,1,.25.13s.06.09.12.2l.2.34.22.41.2.37a3.79,3.79,0,0,0,.18.34c.07.12.14.24.2.36l.2.33a2.62,2.62,0,0,0,.17.27l.17.28.22.35.28.44,0,0,0,0v0s0-.14,0-.28,0-.27,0-.43,0-.32,0-.48V5.35s0-.09,0-.16V3.65a1.36,1.36,0,0,1,0-.24c0-.25.12-.38.32-.38a.27.27,0,0,1,.19.11.39.39,0,0,1,.11.17.4.4,0,0,1,0,.18,1.27,1.27,0,0,0,0,.2v.57a2.53,2.53,0,0,1,0,.27,2,2,0,0,1,0,.25A1,1,0,0,1,66.79,5Z"/><path class="cls-2" d="M64.57,11.41v.05a.11.11,0,0,1,0,0s0,0,0,0v.7h0l.07,0,.1-.05.58-.31a.38.38,0,0,1,.21,0,.23.23,0,0,1,.17.16.19.19,0,0,1,0,.19.65.65,0,0,1-.17.15l-.87.48a.25.25,0,0,0-.09.07.09.09,0,0,0,0,.06V13h0a.44.44,0,0,0,0,.09v.19c0,.05,0,.1,0,.15v.07h1.61a.35.35,0,0,1,.2,0,.29.29,0,0,1,.11.11.2.2,0,0,1,0,.13.45.45,0,0,1,0,.11.23.23,0,0,1-.08.17.34.34,0,0,1-.2.09H64.07a.12.12,0,0,1-.09,0,.34.34,0,0,1-.07-.2c0-.09,0-.2,0-.32s0-.07,0-.11v-.38c0-.11,0-.22,0-.32v-.29c0-.1,0-.22,0-.36v-.31a2.44,2.44,0,0,0,0-.29v-1c0-.14,0-.27,0-.39V9.71a.28.28,0,0,1,.1-.2.42.42,0,0,1,.21-.06H66a.17.17,0,0,1,.13,0,.28.28,0,0,1,.09.1.61.61,0,0,1,0,.12.38.38,0,0,1,0,.1c0,.19-.08.29-.25.29H64.59s0,0,0,.07a.41.41,0,0,0,0,.1v.11a.65.65,0,0,0,0,.2v.47A2,2,0,0,1,64.57,11.41Z"/><path class="cls-2" d="M67.28,15.81a.14.14,0,0,1,.1,0l.07.07a.19.19,0,0,1,0,.09.1.1,0,0,1,0,.09c0,.11,0,.18-.05.23a.93.93,0,0,0,0,.13.14.14,0,0,0,0,.06s0,0,0,.06-.07.24-.11.36,0,.21-.08.31,0,.19-.07.29a2.5,2.5,0,0,1-.09.33c0,.16-.08.33-.13.51s-.09.35-.14.52-.08.3-.11.4v0l0,.08a.31.31,0,0,1,0,.08c0,.08,0,.17-.07.27s-.05.18-.08.27,0,.16-.06.22a1.11,1.11,0,0,1,0,.13.52.52,0,0,1-.16.18.38.38,0,0,1-.27.1.52.52,0,0,1-.29-.06,1.14,1.14,0,0,1-.17-.15h0a1.1,1.1,0,0,1-.19-.25L65.16,20l0,0a.41.41,0,0,1,0-.08l0-.06s0,0,0,0l0,.05-.06.07,0,0,0,0,0,0-.16.21a1.8,1.8,0,0,1-.19.2,1.25,1.25,0,0,1-.19.15.32.32,0,0,1-.18.06.48.48,0,0,1-.21-.06.36.36,0,0,1-.16-.2.3.3,0,0,1,0-.08l0-.07-.08-.18-.07-.24c0-.09-.05-.2-.09-.34s-.08-.29-.12-.45-.07-.28-.11-.42-.07-.28-.1-.41a3.29,3.29,0,0,1-.09-.32l-.06-.2a1.34,1.34,0,0,1-.08-.26l-.06-.31c0-.09,0-.18-.05-.26a1.24,1.24,0,0,0,0-.19.66.66,0,0,1-.06-.2l0-.19s0-.06,0-.08a.07.07,0,0,0,0-.05.12.12,0,0,1,0-.1l.08-.09.09-.08.06,0a.11.11,0,0,1,.08,0,.22.22,0,0,1,.14,0l0,0,.09.08a.23.23,0,0,1,.06.14.5.5,0,0,1,0,.13c0,.06,0,.11,0,.18s0,.17.07.27,0,.19.07.29a2,2,0,0,0,.07.26,1.67,1.67,0,0,0,.06.2c0,.08,0,.16.08.26s0,.2.08.31.05.21.08.32,0,.2.06.28,0,.24.09.39.07.27.1.38l0,.13a.29.29,0,0,1,0,.09.56.56,0,0,0,0,.12.22.22,0,0,0,0,.08l0,0,0-.05s0,0,0,0l0,0s0-.07.06-.09l.06-.06,0,0a.08.08,0,0,1,0,0l.08-.11a1.1,1.1,0,0,1,.15-.16A1.07,1.07,0,0,1,64.9,19a.25.25,0,0,1,.15-.07.25.25,0,0,1,.19.06.64.64,0,0,1,.1.13l0,0,0,0a.77.77,0,0,0,.09.13l.12.16.12.16.09.11s0,0,0,0l0,.06a.19.19,0,0,0,0-.08l0-.12a1.22,1.22,0,0,1,0-.17,1.6,1.6,0,0,1,0-.21,2.15,2.15,0,0,1,.06-.25,3,3,0,0,1,.09-.35c0-.13.07-.26.11-.4s.07-.27.1-.39l.1-.32a1,1,0,0,1,.06-.2c0-.08,0-.17.07-.26l.08-.29c0-.09,0-.18.07-.27s0-.16.06-.22a.29.29,0,0,0,0-.09.11.11,0,0,0,0-.05,0,0,0,0,0,0,0v0l0-.11a.21.21,0,0,1,.06-.1.41.41,0,0,1,.13-.08A.69.69,0,0,1,67.28,15.81Z"/><path class="cls-2" d="M67.28,26a.14.14,0,0,1,.1,0l.07.06a.41.41,0,0,1,0,.09.12.12,0,0,1,0,.1l-.05.23c0,.05,0,.09,0,.12l0,.06s0,0,0,.07-.07.23-.11.35a2.81,2.81,0,0,1-.08.31c0,.1,0,.2-.07.29A2.53,2.53,0,0,1,67,28c0,.15-.08.32-.13.5s-.09.36-.14.53-.08.3-.11.39v0l0,.07a.19.19,0,0,1,0,.08c0,.09,0,.18-.07.27s-.05.19-.08.27,0,.16-.06.23,0,.1,0,.12a.64.64,0,0,1-.16.19.42.42,0,0,1-.27.09.52.52,0,0,1-.29-.06.7.7,0,0,1-.17-.14h0a1.33,1.33,0,0,1-.19-.24l-.12-.2,0,0a.41.41,0,0,1,0-.08l0-.05s0,0,0,0L65,30l-.06.07,0,.05,0,0,0,0-.16.21a1.9,1.9,0,0,1-.19.21,1.25,1.25,0,0,1-.19.15.32.32,0,0,1-.18.06.4.4,0,0,1-.21-.07.36.36,0,0,1-.16-.2.25.25,0,0,1,0-.07l0-.07c0-.07-.05-.13-.08-.19L63.56,30c0-.09-.05-.21-.09-.35l-.12-.44c0-.14-.07-.29-.11-.43s-.07-.28-.1-.4a3.4,3.4,0,0,1-.09-.33l-.06-.2a1.15,1.15,0,0,1-.08-.26l-.06-.3c0-.1,0-.19-.05-.27a1.67,1.67,0,0,0,0-.19.66.66,0,0,1-.06-.2q0-.11,0-.18s0-.06,0-.09a.07.07,0,0,0,0-.05.1.1,0,0,1,0-.09.39.39,0,0,1,.08-.1l.09-.07.06,0L63,26a.17.17,0,0,1,.14.05l0,0a.36.36,0,0,0,.09.08.26.26,0,0,1,.06.14.57.57,0,0,1,0,.14s0,.11,0,.17a2.68,2.68,0,0,0,.07.27c0,.1,0,.2.07.29a1.63,1.63,0,0,0,.07.26,1.91,1.91,0,0,0,.06.21l.08.25c0,.1,0,.21.08.31s.05.21.08.32,0,.2.06.29,0,.24.09.38.07.27.1.39l0,.12a.51.51,0,0,1,0,.09.65.65,0,0,0,0,.13.34.34,0,0,0,0,.08s0,0,0,0l0,0a.05.05,0,0,0,0,0l0,0s0-.07.06-.1l.06-.06,0,0s0,0,0,0,0-.05.08-.1a1.14,1.14,0,0,1,.15-.17,1.07,1.07,0,0,1,.16-.14.33.33,0,0,1,.15-.07.25.25,0,0,1,.19.06.64.64,0,0,1,.1.13s0,0,0,0l0,0,.09.12.12.17.12.15a.59.59,0,0,0,.09.11l0,0a.21.21,0,0,1,0,.06.24.24,0,0,0,0-.09s0-.07,0-.12a1.55,1.55,0,0,1,0-.17c0-.06,0-.13,0-.21s0-.14.06-.25,0-.22.09-.35.07-.26.11-.4.07-.26.1-.39l.1-.32a1,1,0,0,1,.06-.2c0-.08,0-.17.07-.26l.08-.28c0-.1,0-.19.07-.27s0-.16.06-.23a.31.31,0,0,0,0-.08.18.18,0,0,0,0-.06v0a0,0,0,0,1,0,0l0-.11a.21.21,0,0,1,.06-.1.4.4,0,0,1,.13-.07A.69.69,0,0,1,67.28,26Z"/><path class="cls-2" d="M64.57,34.31v.06a.06.06,0,0,1,0,0,.07.07,0,0,0,0,.05v.68h0l.07,0,.1-.06.58-.31a.5.5,0,0,1,.21,0,.2.2,0,0,1,.17.15.2.2,0,0,1,0,.2.65.65,0,0,1-.17.15l-.87.48a.17.17,0,0,0-.09.06.11.11,0,0,0,0,.07V36a.37.37,0,0,0,0,.08v.2s0,.1,0,.15v.07h0l.15,0h1.42a.34.34,0,0,1,.2.05.27.27,0,0,1,.11.1.25.25,0,0,1,0,.14.41.41,0,0,1,0,.1.25.25,0,0,1-.08.18.34.34,0,0,1-.2.09H64.07a.18.18,0,0,1-.09,0,.34.34,0,0,1-.07-.2c0-.09,0-.2,0-.32s0-.07,0-.11V36c0-.1,0-.21,0-.31v-.29c0-.11,0-.23,0-.36v-.31a2.36,2.36,0,0,0,0-.29v-1c0-.15,0-.28,0-.4v-.45a.28.28,0,0,1,.1-.2.44.44,0,0,1,.21-.07H66a.17.17,0,0,1,.13,0,.22.22,0,0,1,.09.1.37.37,0,0,1,0,.11.45.45,0,0,1,0,.11c0,.19-.08.29-.25.29H64.59s0,0,0,.07a.34.34,0,0,0,0,.09v.11a.72.72,0,0,0,0,.21V34A1.93,1.93,0,0,1,64.57,34.31Z"/><path class="cls-2" d="M66.44,41.35a3,3,0,0,1,.15.31.87.87,0,0,1,.08.4,1.27,1.27,0,0,1-.5,1l-.17.11-.26.12-.33.11a2.11,2.11,0,0,1-.35,0H64l-.11,0-.12-.07a.62.62,0,0,1-.09-.12.29.29,0,0,1,0-.17v-.45a1.7,1.7,0,0,0,0-.22v-.16h0V40.39a1.12,1.12,0,0,1,0-.37v-.6a.86.86,0,0,1,0-.16v-.14a.29.29,0,0,1,.14-.25.65.65,0,0,1,.37-.1H65a1.15,1.15,0,0,1,.52.1,1,1,0,0,1,.33.21,1.18,1.18,0,0,1,.25.31.8.8,0,0,1,.12.42,1.11,1.11,0,0,1-.08.52,2.12,2.12,0,0,1-.3.52l.15.06.13.07a1.53,1.53,0,0,1,.17.14Zm-2.11-1.94v.32c0,.14,0,.28,0,.41h0v.25s0,0,0,.05V41l.28,0a1,1,0,0,0,.29-.07.89.89,0,0,0,.45-.36,1,1,0,0,0,.17-.56.56.56,0,0,0-.08-.32.65.65,0,0,0-.18-.16.38.38,0,0,0-.19-.06h-.73Zm1.15,3.34a.93.93,0,0,0,.42-.28A.71.71,0,0,0,66,42a.81.81,0,0,0-.13-.44.64.64,0,0,0-.25-.23l-.13-.06-.15-.06a1.69,1.69,0,0,1-.37.15l-.31.08-.35,0v.75h0v.07a2.44,2.44,0,0,1,0,.27,1.47,1.47,0,0,1,0,.16.13.13,0,0,0,.05.07.13.13,0,0,0,.1,0h.41l.14,0,.17,0,.15,0Z"/><path class="cls-2" d="M65.45,50.81v2.86a.24.24,0,0,1,0,.12l-.09.08a.34.34,0,0,1-.12.06l-.13,0a.32.32,0,0,1-.2-.1.42.42,0,0,1-.09-.29v-3a.48.48,0,0,1,0-.18.45.45,0,0,1,.1-.13.42.42,0,0,1,.12-.08l.12,0a.26.26,0,0,1,.18.09.34.34,0,0,1,.1.28Zm-.31-.93a.31.31,0,0,1-.25-.13.59.59,0,0,1-.1-.28.37.37,0,0,1,.23-.34.28.28,0,0,1,.15,0,.25.25,0,0,1,.17.08.21.21,0,0,1,.06.1.3.3,0,0,1,0,.12.38.38,0,0,1,0,.1v.07a.4.4,0,0,1-.09.21A.24.24,0,0,1,65.14,49.88Z"/><path class="cls-2" d="M65.78,58.16a1.66,1.66,0,0,1,.3.19,1.16,1.16,0,0,1,.26.28.67.67,0,0,1,.14.35.86.86,0,0,1,0,.36.77.77,0,0,1-.12.31,1.2,1.2,0,0,1-.18.26.73.73,0,0,1-.22.18l-.28.15a1.09,1.09,0,0,1-.39.08,1.72,1.72,0,0,1-.44-.06,1.23,1.23,0,0,1-.37-.12c-.22-.1-.34-.21-.36-.34a.23.23,0,0,1,.08-.25.31.31,0,0,1,.22-.11.47.47,0,0,1,.26.11.7.7,0,0,0,.23.11.88.88,0,0,0,.29,0h.19l.11,0a.42.42,0,0,0,.14-.06.87.87,0,0,0,.15-.13.48.48,0,0,0,.08-.22.49.49,0,0,0,0-.17.29.29,0,0,0-.06-.17.65.65,0,0,0-.17-.15,1.29,1.29,0,0,0-.31-.14,2.47,2.47,0,0,1-1.32-.9,1.58,1.58,0,0,1-.25-.57,1.65,1.65,0,0,1,0-.62,1.38,1.38,0,0,1,.13-.31,1.6,1.6,0,0,1,.3-.35,1.45,1.45,0,0,1,.45-.29,1.26,1.26,0,0,1,.6-.13,1.61,1.61,0,0,1,.61.1,1.21,1.21,0,0,1,.32.19.43.43,0,0,1,.18.27.39.39,0,0,1-.05.24.26.26,0,0,1-.24.14.4.4,0,0,1-.26-.11.67.67,0,0,0-.24-.12,1,1,0,0,0-.37-.06H65.1a.93.93,0,0,0-.45.19.83.83,0,0,0-.21,1,.91.91,0,0,0,.3.37,2.36,2.36,0,0,0,.4.24,3,3,0,0,0,.38.17l0,0Z"/><path class="cls-2" d="M66.45,68.93a.33.33,0,0,1,.25.1.29.29,0,0,0,0,.1.21.21,0,0,1,0,.16.35.35,0,0,1-.17.25,1.21,1.21,0,0,1-.47.21,3.2,3.2,0,0,1-.63.07,1.68,1.68,0,0,1-1.32-.6,2.26,2.26,0,0,1-.5-.84,3.08,3.08,0,0,1-.16-1.16,2,2,0,0,1,.14-.65,3.4,3.4,0,0,1,.27-.54,2.19,2.19,0,0,1,.29-.39,2,2,0,0,1,.19-.2l.25-.16a1.87,1.87,0,0,1,.32-.15,1.42,1.42,0,0,1,.33-.11,1.18,1.18,0,0,1,.29,0h.25L66,65l.13,0,.12,0h0a.33.33,0,0,1,.23.18.28.28,0,0,1,0,.2.4.4,0,0,1-.12.16.36.36,0,0,1-.2.06.2.2,0,0,1-.11,0l-.14,0-.17,0a1.64,1.64,0,0,0-.34.05l-.37.16a2.19,2.19,0,0,0-.41.29,1.64,1.64,0,0,0-.33.44,1.22,1.22,0,0,0-.16.58,2.65,2.65,0,0,0,0,.71,1.91,1.91,0,0,0,.14.49,1.59,1.59,0,0,0,.2.33,1.92,1.92,0,0,0,.17.19,1,1,0,0,0,.36.24,1.12,1.12,0,0,0,.45.08A1.36,1.36,0,0,0,66,69.1a1.42,1.42,0,0,0,.3-.13A.24.24,0,0,1,66.45,68.93Z"/><path class="cls-2" d="M65.15,71.33l.33,0a2.47,2.47,0,0,1,.36.11,2.09,2.09,0,0,1,.34.21,1.27,1.27,0,0,1,.3.31A3.18,3.18,0,0,1,67,74l0,.41a2.34,2.34,0,0,1-.09.38,1.89,1.89,0,0,1-.16.36,1.94,1.94,0,0,1-.26.37,1.44,1.44,0,0,1-.36.3,3.28,3.28,0,0,1-.36.19l-.36.12-.26,0a1.4,1.4,0,0,1-.34-.05L64.38,76a2.5,2.5,0,0,1-.35-.21,2.86,2.86,0,0,1-.31-.27,1.17,1.17,0,0,1-.23-.38,2.35,2.35,0,0,1-.17-.49,3,3,0,0,1-.1-.54,5,5,0,0,1,0-.52,1.48,1.48,0,0,1,.05-.41,3.17,3.17,0,0,1,.12-.41c0-.13.1-.26.16-.38a2.81,2.81,0,0,1,.19-.31,1.3,1.3,0,0,1,.32-.34,1.63,1.63,0,0,1,.38-.22,1.9,1.9,0,0,1,.38-.13,1.5,1.5,0,0,1,.35,0Zm0,4.19a1,1,0,0,0,.3,0,1.82,1.82,0,0,0,.27-.15,1.51,1.51,0,0,0,.23-.21,1.3,1.3,0,0,0,.18-.23,1.66,1.66,0,0,0,.14-.31.88.88,0,0,0,.06-.27,1.31,1.31,0,0,0,0-.28c0-.1,0-.21,0-.32s0,0,0-.07v0c0-.09,0-.16,0-.22s0-.11,0-.16l0-.14s0-.11,0-.18A1.54,1.54,0,0,0,66,72.4a1.06,1.06,0,0,0-.23-.24L65.49,72a1.12,1.12,0,0,0-.22-.05h-.19a1.14,1.14,0,0,0-.43.11,1.11,1.11,0,0,0-.39.29,1.41,1.41,0,0,0-.28.48,2.21,2.21,0,0,0-.14.67,3.26,3.26,0,0,0,.1,1,1.54,1.54,0,0,0,.37.68A1.12,1.12,0,0,0,65.16,75.52Z"/><path class="cls-2" d="M67.21,79.12v1.22c0,.24,0,.46,0,.67v.55a2.65,2.65,0,0,0,0,.33.74.74,0,0,1-.14.56.27.27,0,0,1-.2.09.3.3,0,0,1-.23-.09.55.55,0,0,1-.1-.4v-.24c0-.11,0-.24,0-.37V80.21c0-.11,0-.19,0-.24v-.36a1.77,1.77,0,0,0,0-.22,2,2,0,0,0,0-.25c0-.07,0-.15,0-.21s0-.12,0-.15l-.19.18c-.08.09-.17.21-.27.34l-.18.22-.26.28a2.76,2.76,0,0,1-.27.23.48.48,0,0,1-.23.1.47.47,0,0,1-.27-.1,1.69,1.69,0,0,1-.19-.19l0,0,0,0-.11-.12-.19-.17-.2-.19-.17-.18-.07-.07-.15-.15-.11-.12a.87.87,0,0,0,0,.18c0,.08,0,.15,0,.21a4.15,4.15,0,0,1,0,.5v.38c0,.11,0,.25,0,.44v.57c0,.2,0,.39,0,.58s0,.31,0,.41a.4.4,0,0,1-.09.36.36.36,0,0,1-.28.11.21.21,0,0,1-.17-.08.63.63,0,0,1-.09-.22A1.1,1.1,0,0,1,63,82v-.74c0-.18,0-.39,0-.63V79.22c0-.2,0-.35,0-.46v-.28a1.48,1.48,0,0,0,0-.21c0-.07,0-.13,0-.18A.88.88,0,0,1,63,77.8a.21.21,0,0,1,.19-.11h.14a.79.79,0,0,1,.16.08,1.92,1.92,0,0,1,.3.28l.3.32.11.12.09.11a2.28,2.28,0,0,1,.21.22,2.57,2.57,0,0,0,.21.24l.21.24.14.15a.72.72,0,0,0,.14-.13l.2-.24.22-.25c.06-.09.12-.16.16-.21l.14-.18c.07-.07.13-.15.21-.24L66.4,78a1.14,1.14,0,0,1,.2-.19.47.47,0,0,1,.3-.09.14.14,0,0,1,.1,0,.27.27,0,0,1,.08.1.33.33,0,0,1,0,.12.76.76,0,0,1,0,.11,1.84,1.84,0,0,1,0,.33c0,.11,0,.22,0,.32v.41Z"/><path class="cls-2" d="M65.45,85.78v2.86a.2.2,0,0,1,0,.11.38.38,0,0,1-.09.09.67.67,0,0,1-.12.06h-.13a.28.28,0,0,1-.2-.1.39.39,0,0,1-.09-.28v-3a.58.58,0,0,1,0-.19.4.4,0,0,1,.1-.12.42.42,0,0,1,.12-.08l.12,0a.26.26,0,0,1,.18.09.32.32,0,0,1,.1.27Zm-.31-.94a.29.29,0,0,1-.25-.13.52.52,0,0,1-.1-.27.36.36,0,0,1,.1-.25A.38.38,0,0,1,65,84.1a.28.28,0,0,1,.15,0,.23.23,0,0,1,.17.07.24.24,0,0,1,.06.11.27.27,0,0,1,0,.12.38.38,0,0,1,0,.1v.07a.48.48,0,0,1-.09.21A.23.23,0,0,1,65.14,84.84Z"/><path class="cls-2" d="M66.79,92.37v.89c0,.2,0,.4,0,.61v.54a2.36,2.36,0,0,1,0,.25v.14a.5.5,0,0,1,0,.16.6.6,0,0,1-.09.15.49.49,0,0,1-.13.12.3.3,0,0,1-.15,0,.59.59,0,0,1-.53-.27s-.06-.09-.13-.2l-.21-.35-.22-.37a1.84,1.84,0,0,1-.14-.25l-.13-.23-.2-.32a3.79,3.79,0,0,0-.2-.34l-.16-.27-.09-.15-.06-.11-.1-.2L64.12,92c0-.07-.07-.15-.1-.21,0,.1,0,.24,0,.41s0,.38,0,.63,0,.3,0,.46v1.25a.62.62,0,0,0,0,.13v.09a.76.76,0,0,1-.08.39.31.31,0,0,1-.26.14h0a.27.27,0,0,1-.22-.1l-.06-.1a.26.26,0,0,1,0-.14s0-.09,0-.16v-.56c0-.11,0-.21,0-.3V92.84c0-.15,0-.31,0-.47s0-.32,0-.47v-.79a1.73,1.73,0,0,1,0-.35.52.52,0,0,1,.07-.2.33.33,0,0,1,.06-.06.23.23,0,0,1,.12-.06h.09a.3.3,0,0,1,.25.12l.12.2.2.35.22.4c.08.14.14.27.2.38l.18.33.2.36.2.34.17.26.17.28c.08.12.15.24.22.36l.28.44,0,0,0,0v0s0-.15,0-.28,0-.28,0-.43,0-.33,0-.48v-.34s0-.08,0-.15V91.05a1.36,1.36,0,0,1,0-.24c0-.25.12-.38.32-.38a.26.26,0,0,1,.19.1.45.45,0,0,1,.11.17.44.44,0,0,1,0,.19,1.16,1.16,0,0,0,0,.19v.58a2.44,2.44,0,0,1,0,.27,1.77,1.77,0,0,1,0,.24A1.15,1.15,0,0,1,66.79,92.37Z"/><path class="cls-2" d="M66.82,99.86A.33.33,0,0,1,67,100a.24.24,0,0,1,.06.11.62.62,0,0,1,0,.13,2.45,2.45,0,0,1,0,.27,2.76,2.76,0,0,1-.08.27,1.15,1.15,0,0,1-.12.25.9.9,0,0,1-.15.19l-.18.15a.81.81,0,0,1-.26.15,2.07,2.07,0,0,1-.37.11,2.37,2.37,0,0,1-.49,0,1.89,1.89,0,0,1-.6-.09,1.84,1.84,0,0,1-.49-.23,2,2,0,0,1-.39-.31,3.44,3.44,0,0,1-.26-.34,2.73,2.73,0,0,1-.3-.74,3.32,3.32,0,0,1-.11-.83,1.77,1.77,0,0,1,.06-.43,2.59,2.59,0,0,1,.14-.45,2.74,2.74,0,0,1,.21-.42,2.34,2.34,0,0,1,.26-.34,2.08,2.08,0,0,1,.67-.45,2,2,0,0,1,.79-.16h.06a2.21,2.21,0,0,1,.78.16,1.26,1.26,0,0,1,.53.37,1.45,1.45,0,0,1,.12.19l.07.12a.25.25,0,0,1,0,.12.53.53,0,0,1,0,.12.19.19,0,0,1,0,.09.46.46,0,0,1-.07.07.42.42,0,0,1-.16,0,.32.32,0,0,1-.14,0,.38.38,0,0,1-.13-.09l0,0,0,0-.05-.05,0-.06,0,0-.09-.1a.85.85,0,0,0-.14-.1l-.19-.09a1.12,1.12,0,0,0-.27,0h-.13a1.36,1.36,0,0,0-.38.07l-.28.11-.22.16a1.24,1.24,0,0,0-.18.21,2,2,0,0,0-.28.44,1.27,1.27,0,0,0-.13.62,2.31,2.31,0,0,0,0,.37,2.62,2.62,0,0,0,.09.38,2,2,0,0,0,.12.34,2,2,0,0,0,.17.29,1.23,1.23,0,0,0,.2.19,1.75,1.75,0,0,0,.27.16,1.42,1.42,0,0,0,.29.1,1,1,0,0,0,.29,0h.05a3,3,0,0,0,.49-.06.74.74,0,0,0,.37-.17.64.64,0,0,0,.1-.13.19.19,0,0,0,0-.07s0,0,0,0H65.7l-.16,0a.29.29,0,0,1-.13-.08.28.28,0,0,1-.08-.15.28.28,0,0,1,0-.27.31.31,0,0,1,.26-.1h1A.58.58,0,0,1,66.82,99.86Z"/><path class="cls-1" d="M6.84,14.74c.91.65,3.51,2.74,4.12,3.29l-1,1.26c-.57-.65-2-2-3.14-3v6.64H5.21V16.13A19.31,19.31,0,0,1,1.11,21,6.44,6.44,0,0,0,0,19.78,17,17,0,0,0,4.89,14H.47V12.57H5.21V10H.15V8.49h3a15.31,15.31,0,0,0-1.07-3.8l1.34-.37a15.32,15.32,0,0,1,1.16,3.9l-.92.27H7.85c-.32-.12-.66-.24-.69-.24a26.23,26.23,0,0,0,1.38-4l1.88.59c-.05.15-.22.22-.49.25-.35,1-.94,2.39-1.44,3.4H12.1V10h-5a.66.66,0,0,1-.25.05v2.57h4.89V14H6.84Zm4.74-12V4.2H.64V2.77H5.21V0l2.1.12c0,.18-.15.3-.47.35v2.3ZM23.09,8.49v1.56H20.18V22.94H18.55V10.05H14.64V11c0,3.71-.47,8.6-4,12a3.78,3.78,0,0,0-1.16-1.16c3.23-3.11,3.6-7.38,3.6-10.89V2.35l1.21.39A33.76,33.76,0,0,0,21.16.07l1.66,1.26a.59.59,0,0,1-.52.08A42.73,42.73,0,0,1,14.64,4V8.49Z"/><path class="cls-1" d="M7.61,22.38c-.05.29-.28.47-.77.54C6.64,25.78,6.4,32.33,6.4,36s1.82,5.46,4.93,5.46,6.08-1.5,8.9-4.69a9.82,9.82,0,0,0,1.11,1.46c-2.89,3.28-6.4,5-10,5-4.49,0-6.79-2.59-6.79-7.26,0-3.11.22-10.77.39-13.81Z"/><path class="cls-1" d="M4.35,46c0,.23-.33.37-.67.4a40.08,40.08,0,0,0-.47,6.15c0,.91,0,1.8.1,2.59.3,4.2,2,6.74,3.9,6.72,1,0,2.27-2.52,3.16-5.29A8.74,8.74,0,0,0,11.8,57.6c-1.13,3.33-2.56,6-4.61,6.1-3.14,0-5.31-3.76-5.66-8.5-.07-.94-.1-2-.1-3.09a60.58,60.58,0,0,1,.37-6.64ZM20.72,57.45a12.33,12.33,0,0,0-6.22-9.29l1.08-1.33a13.57,13.57,0,0,1,7,10.05Z"/><path class="cls-1" d="M4.35,67.28c0,.22-.33.37-.67.39a40.28,40.28,0,0,0-.47,6.15c0,.92,0,1.81.1,2.6.3,4.2,2,6.74,3.9,6.71,1,0,2.27-2.51,3.16-5.28a9.29,9.29,0,0,0,1.43,1.06c-1.13,3.33-2.56,6-4.61,6.1-3.14,0-5.31-3.75-5.66-8.49-.07-.94-.1-2-.1-3.09a60.44,60.44,0,0,1,.37-6.64ZM20.72,78.76a12.31,12.31,0,0,0-6.22-9.28l1.08-1.34a13.59,13.59,0,0,1,7,10Z"/><path class="cls-1" d="M10.67,85.83l2.47.15a.7.7,0,0,1-.69.49v3.88h6.61l.38-.15,1.53.69a.91.91,0,0,1-.28.27c-1.13,8.65-4.71,13.66-12.54,16.4A10.7,10.7,0,0,0,7,106.08c7.33-2.52,10.72-7.11,11.56-14h-14v6.12H2.89v-7.8h7.78Z"/><path class="cls-1" d="M18.08,114.21v1.43H12v9.7h7.46v1.44H3v-1.44h7.46v-9.7h-6v-1.43Z"/><path class="cls-1" d="M18.5,131.52a23.8,23.8,0,0,0-2.4-2.62l.87-.69a19.24,19.24,0,0,1,3.16,3.56l-.47.34.2.1a.65.65,0,0,1-.35.28c-1.9,9.31-6.72,14.86-14.79,17.7a11,11,0,0,0-1.14-1.43c7.75-2.57,12.35-8,13.78-15.41H1.63v-1.68H18l.32-.22Zm3.8-.15a17,17,0,0,0-3-3.55l.91-.72a17.89,17.89,0,0,1,3.09,3.56Z"/><path class="cls-1" d="M22.32,157.31H17.16V159c0,4.72-1.45,9.51-7.9,12.42A8.83,8.83,0,0,0,8,170.2c6.27-2.72,7.43-7.11,7.43-11.16v-1.73h-8v6.15H5.68v-6.15H.84v-1.68H5.68v-5.36l2.37.15a.65.65,0,0,1-.62.52v4.69h8V150l2.37.15c0,.22-.22.42-.62.47v5.06h5.16Z"/><path class="cls-1" d="M21.48,172.79a.52.52,0,0,1-.46.2,1.14,1.14,0,0,1-.25,0,60.31,60.31,0,0,1-7,5.9,5.92,5.92,0,0,1,.59.27.62.62,0,0,1-.54.32v13.26H12V180a72.33,72.33,0,0,1-9.41,5.51,8.45,8.45,0,0,0-1-1.36c6.74-3.11,14.13-8.4,18.1-12.77Z"/><path class="cls-1" d="M17.71,205.67a88.72,88.72,0,0,0-8.67-4V214H7.19V192.53l2.49.15c0,.27-.22.44-.64.52v7.21l.37-.52A84.27,84.27,0,0,1,18.69,204Z"/><path class="cls-1" d="M50.43,12.72h-9A25.92,25.92,0,0,0,51,20.42a6.16,6.16,0,0,0-1.21,1.46,28.44,28.44,0,0,1-9.63-8.32v9.36H38.43V13.71a28.18,28.18,0,0,1-9.51,8.07,7.25,7.25,0,0,0-1.21-1.41,25.43,25.43,0,0,0,9.51-7.65h-9V11.14h10.2V4.67h-9V3.06h9V0l2.22.15c0,.17-.15.29-.49.34V3.06h9.21V4.67H40.16v6.47H50.43Zm-16.57-1.9A19.74,19.74,0,0,0,31.54,6L33,5.41a19.58,19.58,0,0,1,2.44,4.76ZM47.89,6a.62.62,0,0,1-.57.22,38.37,38.37,0,0,1-2.72,4.7s-1.41-.62-1.41-.62a33.28,33.28,0,0,0,2.65-5.06Z"/><path class="cls-1" d="M29.12,25.22C31,25.14,46.18,24.06,49.39,24l0,1.85c-.32,0-.62,0-.92,0a7.06,7.06,0,0,0-4.22,1.26C40.58,29.34,37,33.32,37,36.5,37,40,39.42,42,45.54,42.8l-.81,1.73c-7-1-9.64-3.63-9.64-8,0-3.48,3.44-7.7,8-10.54-2.62.17-10,.74-13.19,1a.78.78,0,0,1-.54.4Z"/><path class="cls-1" d="M32.06,47.1c-.05.22-.32.37-.67.39a40.28,40.28,0,0,0-.47,6.15c0,.92,0,1.8.1,2.6.3,4.19,2,6.74,3.9,6.71,1,0,2.27-2.52,3.16-5.28a9.29,9.29,0,0,0,1.43,1.06c-1.13,3.33-2.56,6.05-4.61,6.1-3.14,0-5.31-3.75-5.66-8.5-.07-.93-.1-2-.1-3.08a60.62,60.62,0,0,1,.37-6.65ZM48.43,58.58a12.31,12.31,0,0,0-6.22-9.28L43.29,48a13.57,13.57,0,0,1,7,10Z"/><path class="cls-1" d="M29.83,69.47c1.54.1,3.58.1,5.26.1,1.12,0,2.37,0,3.41,0,0-1.18,0-2.56,0-3.43l2.5.12c0,.3-.25.45-.67.52,0,.4,0,2.3,0,2.72a49.59,49.59,0,0,0,8.2-1l.22,1.63a50.1,50.1,0,0,1-8.42.93c0,1.49,0,3,.1,4.55a42.2,42.2,0,0,0,7-1l.2,1.6a47.12,47.12,0,0,1-7.14.87l.2,4.12a27.39,27.39,0,0,1,7.26,3.85l-1.08,1.51A24,24,0,0,0,40.65,83c0,.39,0,.84,0,1.16,0,2.34-1.44,3.7-4.43,3.7s-5.43-1.28-5.43-3.6,2.69-3.68,5.46-3.68a10.94,10.94,0,0,1,2.59.29c0-1.06-.07-2.34-.1-3.68-.79,0-1.68,0-2.39,0-4.22,0-5.41-.66-5.41-2.1,0-.93.72-1.7,2.3-2.71l1.18.76c-1.11.62-1.7,1.16-1.7,1.66,0,.74,1.16.89,4.3.89.54,0,1.11,0,1.65,0l-.15-4.57c-1.06.05-2.3.05-3.41.05-1.58,0-3.82,0-5.31-.05ZM39,82.34A10.42,10.42,0,0,0,36.21,82c-1.88,0-3.78.76-3.78,2.24s1.73,2.18,3.87,2.18c2,0,2.7-.87,2.7-2.6Z"/><path class="cls-1" d="M40.18,91.6c0-.54-.1-3.23-.15-3.85l2.55.1c0,.2-.2.44-.65.52,0,.29,0,.59,0,3.18,3-.09,6.23-.17,8.08-.19v1.7c-2.1,0-5.09,0-8,.1,0,1.93.1,3.7.18,5.06a8.67,8.67,0,0,1,.29,2.59,10.85,10.85,0,0,1-.24,2.4c-.65,2.89-2.77,5.43-7.12,7.16A12.84,12.84,0,0,0,33.88,109c3.78-1.35,5.81-3.4,6.43-5.75h0a3.1,3.1,0,0,1-2.54,1.31,4.21,4.21,0,0,1-4.15-4.32A4.54,4.54,0,0,1,38,95.58a3.68,3.68,0,0,1,2.3.76c0-.42,0-2.07-.1-3.13-2.57.05-10.37.32-11.38.37L28.8,92l5.63-.15Zm.47,8.67c0-1,0-3.21-2.52-3.21a3,3,0,0,0-2.94,3.14,2.76,2.76,0,0,0,2.74,2.86A2.66,2.66,0,0,0,40.65,100.27Z"/><path class="cls-1" d="M37.76,128.94a1.53,1.53,0,1,1,1.53,1.61A1.57,1.57,0,0,1,37.76,128.94Zm.74-4-.37-13.53H40.5L40.13,125Z"/></g></g></svg>