<svg xmlns="http://www.w3.org/2000/svg" viewBox="0 0 19.72 129.84"><defs><style>.cls-1{fill:#fffc92;}</style></defs><title>VimeoRudo</title><g id="Texto_Expand"><path class="cls-1" d="M.35,18.69V6.32H8V2.13h3.42V6.32H19.3V10.7a22,22,0,0,1-1.16,7.09,12.35,12.35,0,0,1-2.85,4.77,16.51,16.51,0,0,1-3.8,2.79A22.64,22.64,0,0,1,7.7,27a21.24,21.24,0,0,1-3.12.72V24.3a18.59,18.59,0,0,0,3.69-1.06A15.11,15.11,0,0,0,12,21a9.64,9.64,0,0,0,2.86-4,17.9,17.9,0,0,0,1-6.34V9.67H3.77v9Zm13.28-14V0h2.23V4.64Zm3.48,0V0h2.23V4.64Z"/><path class="cls-1" d="M18.34,40.67a25.23,25.23,0,0,1-2.29,3.66A25,25,0,0,1,12.89,48V61.94h-3V50.53a35,35,0,0,1-8.38,4.71V52.11a36.66,36.66,0,0,0,4.59-2.35,25.6,25.6,0,0,0,4.53-3.64,25.52,25.52,0,0,0,4.15-5.45Z"/><path class="cls-1" d="M.37,95.1V91.4a17.62,17.62,0,0,0,5.53-3,20.57,20.57,0,0,0,4.65-5.11A44.38,44.38,0,0,0,4,78.28v-4a58.89,58.89,0,0,1,8.25,6,33.23,33.23,0,0,0,2-5.08c.47-1.62.86-3.09,1.16-4.43h3.67A47.4,47.4,0,0,1,17.77,76a44.59,44.59,0,0,1-2.67,6.36c.73.82,1.43,1.57,2.09,2.24s1.24,1.3,1.71,1.86V92a61.77,61.77,0,0,0-5.64-6.48,36.68,36.68,0,0,1-4,4.45,23.54,23.54,0,0,1-4.48,3.24A17.75,17.75,0,0,1,.37,95.1Z"/><path class="cls-1" d="M12.57,129.84V113.92a36.56,36.56,0,0,1-5.51,8.87A35.41,35.41,0,0,1,0,129.2V125a41.41,41.41,0,0,0,3.21-2.76,32.26,32.26,0,0,0,3.72-4.61,27,27,0,0,0,3.32-6.17H.06V108H12.57v-4h3.48v4h3.67v3.38H16.05v18.43Z"/></g></svg>