<svg version="1.1" id="VimeoRudo" x="0px" y="0px" viewBox="0 0 45 206">
<style type="text/css">
	.borde{fill:#FFFC92;}
	.icono{fill:#FFFC92;}
	.texto{fill:#FFFC92;}
</style>
<title>Vimeo</title>
	<path class="borde" d="M45,206H0V37.4h45V206z M1.5,204.5h41.9V39H1.5V204.5z"/>
	<path class="icono" d="M0,45h45V0H0V45z M16.5,13.3c0.9-0.5,2.4-0.8,3.3,2.5s1.5,6.3,1.7,7c0.6,2.6,1.2,5.1,1.9,5.1s1.9-2.3,3-4
		c1.1-1.6,2.1-3.4,3-5.1c0.5-1,0.5-1.8-0.8-1.8c-1.1,0.1-2.2,0.2-3.3,0.5c2.5-3.4,4-4.9,6.6-4.9c3,0,4.8,2.7,3.5,5.3
		c-0.4,0.9-0.9,1.8-1.4,2.7c-1.4,2.4-2.8,4.8-5.2,8.5c-2.9,4.4-4.5,5.2-7,5.2c-1.3,0-3.4-1.3-4.1-4.1c-0.7-2.5-1.5-6.3-2.2-8.8
		c-0.8-2.7-0.9-3.5-2.3-2.8c-0.7,0.4-1.4,0.8-2,1.3l-1.6-2.1C9.4,17.9,15.7,13.7,16.5,13.3L16.5,13.3z"/>
	<g class='texto'>
	<path class="st2" d="M12.4,76.3V64h7.6v-4.2h3.4V64h7.9v4.4c0,2.4-0.4,4.8-1.2,7.1c-0.6,1.8-1.6,3.4-2.9,4.8
		c-1.1,1.1-2.4,2-3.8,2.8c-1.2,0.7-2.5,1.2-3.8,1.6c-1,0.3-2.1,0.6-3.1,0.7V82c1.3-0.2,2.5-0.6,3.7-1.1c1.3-0.6,2.6-1.4,3.7-2.3
		c1.3-1.1,2.3-2.4,2.9-4c0.7-2,1.1-4.2,1-6.3v-0.9h-12v9L12.4,76.3z M25.7,62.3v-4.6h2.2v4.6H25.7z M29.2,62.3v-4.6h2.2v4.6H29.2z"
		/>
	<path class="st3" d="M30.4,98.3c-0.7,1.3-1.4,2.5-2.3,3.7c-0.9,1.3-2,2.5-3.1,3.6v14h-3v-11.5c-2.6,1.9-5.4,3.5-8.4,4.7v-3.1
		c1.6-0.7,3.1-1.5,4.6-2.3c1.6-1,3.2-2.3,4.5-3.6c1.6-1.6,3-3.5,4.1-5.4L30.4,98.3z"/>
	<path class="st4" d="M12.4,152.8v-3.7c2-0.7,3.9-1.7,5.5-3c1.8-1.4,3.4-3.1,4.7-5.1c-2-1.9-4.2-3.6-6.5-5.1v-4
		c2.9,1.8,5.7,3.8,8.3,6c0.8-1.6,1.5-3.3,2-5.1c0.5-1.6,0.9-3.1,1.2-4.4h3.7c-0.3,1.8-0.8,3.5-1.3,5.2c-0.7,2.2-1.6,4.3-2.7,6.4
		c0.7,0.8,1.4,1.6,2.1,2.2s1.2,1.3,1.7,1.9v5.6c-1.7-2.3-3.6-4.5-5.6-6.5c-1.2,1.6-2.5,3.1-4,4.4c-1.4,1.3-2.9,2.3-4.5,3.2
		C15.5,151.7,14,152.3,12.4,152.8z"/>
	<path class="st5" d="M24.6,187.5v-15.9c-1.4,3.2-3.3,6.2-5.5,8.9c-2.1,2.4-4.4,4.6-7.1,6.4v-4.3c1.1-0.9,2.2-1.8,3.2-2.8
		c1.4-1.4,2.6-3,3.7-4.6c1.4-1.9,2.5-4,3.3-6.2H12.1v-3.4h12.5v-4h3.5v4h3.7v3.4h-3.7v18.4L24.6,187.5z"/>
	</g>
</svg>
