<?xml version="1.0" encoding="utf-8"?>
<!-- Generator: Adobe Illustrator 23.0.2, SVG Export Plug-In . SVG Version: 6.00 Build 0)  -->
<svg version="1.1" xmlns="http://www.w3.org/2000/svg" xmlns:xlink="http://www.w3.org/1999/xlink" x="0px" y="0px"
	 viewBox="0 0 58.3 58.3" style="enable-background:new 0 0 58.3 58.3;" xml:space="preserve">
<style type="text/css">
	.st0{fill:#FFFC92;}
	.st1{fill:#FFFC92;stroke:#FFFC92;stroke-width:0.7172;stroke-miterlimit:10;}
	.st2{fill:#FFFC92;stroke:#FFFC92;stroke-width:0.42;stroke-miterlimit:10;}
	.st3{fill:none;stroke:#FFFC92;stroke-width:2;stroke-miterlimit:10;}
	.st4{opacity:0.25;fill:#FFFC92;}
</style>
<g id="Capa_1">
</g>
<g id="Capa_2">
	<g>
		<path class="st0" d="M40.7,28c-3.2,0-3.7,3.2-3.7,3.2h6.8C43.9,31.2,43.9,28,40.7,28z"/>
		<path class="st0" d="M26.7,25.5c0-2.2-1.5-2.2-1.5-2.2h-0.8h-5.3V28h5.7C25.8,28,26.7,27.7,26.7,25.5z"/>
		<g>
			<path class="st0" d="M25.2,31.2h-6.1v5.6h5.8c0.9,0,2.5-0.3,2.5-2.7C27.4,31.2,25.2,31.2,25.2,31.2z"/>
			<path class="st0" d="M0,0v58.3h58.3V0H0z M36.1,20.9h8.6v2.6h-8.6V20.9z M31.8,34.3c0,6.3-6.6,6.1-6.6,6.1h-6.1H19h-4.6V19.6H19
				h0.2h6.1c3.3,0,5.9,1.8,5.9,5.5c0,3.7-3.2,4-3.2,4C32.1,29.1,31.8,34.3,31.8,34.3z M47.9,34H37.1c0,3.9,3.7,3.6,3.7,3.6
				c3.5,0,3.3-2.2,3.3-2.2h3.7c0,5.9-7.1,5.5-7.1,5.5c-8.5,0-8-7.9-8-7.9s0-8,8-8C49,24.9,47.9,34,47.9,34z"/>
		</g>
	</g>
</g>
<g id="Capa_3">
</g>
</svg>
