<?xml version="1.0" encoding="utf-8"?>
<!-- Generator: Adobe Illustrator 23.0.2, SVG Export Plug-In . SVG Version: 6.00 Build 0)  -->
<svg version="1.1" xmlns="http://www.w3.org/2000/svg" xmlns:xlink="http://www.w3.org/1999/xlink" x="0px" y="0px"
	 viewBox="0 0 58.3 58.3" style="enable-background:new 0 0 58.3 58.3;" xml:space="preserve">
<style type="text/css">
	.st0{fill:#FFFC92;}
	.st1{fill:#FFFC92;stroke:#FFFC92;stroke-width:0.7172;stroke-miterlimit:10;}
	.st2{fill:#FFFC92;stroke:#FFFC92;stroke-width:0.42;stroke-miterlimit:10;}
	.st3{fill:none;stroke:#FFFC92;stroke-width:2;stroke-miterlimit:10;}
	.st4{opacity:0.25;fill:#FFFC92;}
</style>
<g id="Capa_1">
</g>
<g id="Capa_2">
	<g>
		<path class="st0" d="M0,58.3h58.3V0H0V58.3z M49.4,8.2c2,0,3.6,1.6,3.6,3.6s-1.6,3.6-3.6,3.6c-2,0-3.6-1.6-3.6-3.6
			S47.4,8.2,49.4,8.2z M29.2,14c8.6,0,15.6,7,15.6,15.6s-7,15.6-15.6,15.6c-8.6,0-15.6-7-15.6-15.6S20.6,14,29.2,14z"/>
		<path class="st0" d="M29.2,41.2c6.4,0,11.6-5.2,11.6-11.6S35.6,18,29.2,18s-11.6,5.2-11.6,11.6S22.8,41.2,29.2,41.2z"/>
	</g>
</g>
<g id="Capa_3">
</g>
</svg>
