<?xml version="1.0" encoding="utf-8"?>
<!-- Generator: Adobe Illustrator 23.0.2, SVG Export Plug-In . SVG Version: 6.00 Build 0)  -->
<svg version="1.1" xmlns="http://www.w3.org/2000/svg" xmlns:xlink="http://www.w3.org/1999/xlink" x="0px" y="0px"
	 viewBox="0 0 534.6 333" style="enable-background:new 0 0 534.6 333;" xml:space="preserve">
<style type="text/css">
	.st0{fill:#FFFC92;}
	.st1{fill:#FFFC92;stroke:#FFFC92;stroke-width:0.7172;stroke-miterlimit:10;}
	.st2{fill:#FFFC92;stroke:#FFFC92;stroke-width:0.42;stroke-miterlimit:10;}
	.st3{fill:none;stroke:#FFFC92;stroke-width:2;stroke-miterlimit:10;}
	.st4{opacity:0.25;fill:#FFFC92;}
</style>
<g id="Capa_1">
</g>
<g id="Capa_2">
	<g>
		<path class="st0" d="M226.3,174.2h-21.9v-70.1c0-8.5-1-16.7-2.7-24.5l38.2-34.5c9.6-8.7,10.4-23.6,1.7-33.2
			c-8.7-9.6-23.5-10.4-33.2-1.7l-28.2,25.5C161.6,13.6,133.7,0,101.4,0C52.6,0,0,39.8,0,104.1v104.7c0,6.9,5.6,12.4,12.4,12.4h145
			v2.3c0,28.2-10.6,61.7-61,61.7H8.5c-4.7,0-8.5,3.8-8.5,8.5v29.9c0,4.7,3.8,8.5,8.5,8.5h87.9c65.6,0,107.9-42.7,107.9-108.7v-2.3
			h20.9c12.3,0,23.2-9,24.4-21.2C251,186,240,174.2,226.3,174.2z M51.2,174.2c-1.6,0-3,0-4.3,0v-70.1C47,68.4,74.6,47,101.4,47
			c1,0,1.9,0.1,2.9,0.1c0.8,0,1.6,0.1,2.5,0.1c0.9,0.1,1.7,0.2,2.6,0.3c0.8,0.1,1.6,0.2,2.4,0.3c0.9,0.1,1.7,0.4,2.6,0.5
			c0.8,0.2,1.6,0.3,2.4,0.5c0.9,0.2,1.7,0.5,2.5,0.8c0.8,0.2,1.6,0.5,2.4,0.7c0.8,0.3,1.7,0.7,2.5,1c0.8,0.3,1.5,0.6,2.3,0.9
			c0.8,0.4,1.6,0.8,2.4,1.2c0.7,0.4,1.5,0.7,2.2,1.1c0.8,0.5,1.5,1,2.3,1.5c0.7,0.4,1.4,0.9,2.1,1.4c0.7,0.5,1.4,1.1,2.2,1.7
			c0.7,0.5,1.3,1,1.9,1.6c0.7,0.6,1.3,1.3,2,2c0.6,0.6,1.2,1.1,1.8,1.8c0.7,0.7,1.2,1.5,1.9,2.3c0.5,0.6,1.1,1.3,1.6,1.9
			c0.6,0.8,1.1,1.7,1.7,2.6c0.4,0.7,0.9,1.4,1.3,2.1c0.5,0.9,1,1.9,1.5,2.9c0.4,0.7,0.8,1.5,1.1,2.2c0.5,1,0.8,2.2,1.2,3.3
			c0.3,0.8,0.6,1.5,0.9,2.4c0.4,1.2,0.6,2.4,0.9,3.6c0.2,0.8,0.5,1.6,0.6,2.5c0.3,1.4,0.4,2.8,0.6,4.3c0.1,0.8,0.3,1.5,0.3,2.3
			c0.2,2.3,0.3,4.6,0.3,7.1v70.1H51.2z"/>
		<path class="st0" d="M417.7,0.7c-26.3,0-50.4,8.6-69.9,23l-14.9-13.4c-9.6-8.7-24.5-8-33.2,1.7c-8.7,9.6-8,24.5,1.7,33.2
			l14.9,13.5c-9.8,16.9-15.5,36.4-15.5,57.2c0,0.4,0,0.7,0,1.1l0,11.5v192.1c0,6.8,5.6,12.4,12.4,12.4h208.9
			c6.9,0,12.4-5.6,12.4-12.4V128.4l0-11.5c0-0.4,0-0.7,0-1.1C534.6,52.3,482.5,0.7,417.7,0.7z M417.7,47.6c38,0,70.1,30.9,70.4,67.7
			l-0.2,3.5c-1.7,35.6-33.1,65.2-70.3,65.2c-37.1,0-68.6-29.6-70.3-65.2l-0.2-3.5C347.6,78.6,379.7,47.6,417.7,47.6z M347.8,286v-78
			c19.5,14.4,43.6,23,69.9,23c26.3,0,50.4-8.6,69.9-23v78H347.8z"/>
	</g>
</g>
<g id="Capa_3">
</g>
</svg>
