<?xml version="1.0" encoding="utf-8"?>
<!-- Generator: Adobe Illustrator 23.0.2, SVG Export Plug-In . SVG Version: 6.00 Build 0)  -->
<svg version="1.1" xmlns="http://www.w3.org/2000/svg" xmlns:xlink="http://www.w3.org/1999/xlink" x="0px" y="0px"
	 viewBox="0 0 58.3 58.3" style="enable-background:new 0 0 58.3 58.3;" xml:space="preserve">
<style type="text/css">
	.st0{fill:#FFFC92;}
	.st1{fill:#FFFC92;stroke:#FFFC92;stroke-width:0.7172;stroke-miterlimit:10;}
	.st2{fill:#FFFC92;stroke:#FFFC92;stroke-width:0.42;stroke-miterlimit:10;}
	.st3{fill:none;stroke:#FFFC92;stroke-width:2;stroke-miterlimit:10;}
	.st4{opacity:0.25;fill:#FFFC92;}
</style>
<g id="Capa_1">
</g>
<g id="Capa_2">
	<path class="st0" d="M0,58.3h58.3V0H0V58.3z M17.6,20.6c2.2-1.9,3.8-2.8,4.8-2.9c2.5-0.2,4.1,1.5,4.7,5.2c0.6,4,1.1,6.5,1.3,7.5
		c0.7,3.3,1.5,5,2.4,5c0.7,0,1.7-1.1,3.1-3.2c1.4-2.2,2.1-3.8,2.2-4.9c0.2-1.9-0.5-2.8-2.2-2.8c-0.8,0-1.6,0.2-2.4,0.5
		c1.6-5.3,4.7-7.8,9.2-7.7c3.4,0.1,4.9,2.3,4.7,6.5c-0.1,3.2-2.4,7.5-6.7,13.1c-4.4,5.8-8.2,8.7-11.3,8.7c-1.9,0-3.5-1.8-4.8-5.3
		c-0.9-3.2-1.8-6.4-2.6-9.7c-1-3.5-2-5.3-3.1-5.3c-0.2,0-1.1,0.5-2.6,1.5l-1.5-2C14.4,23.4,16,22,17.6,20.6z"/>
</g>
<g id="Capa_3">
</g>
</svg>
